SplineFontDB: 3.0
FontName: LatinModernMonoLightDejaVu
FullName: LatinModernMonoLightDejaVu
FamilyName: LatinModernMonoLightDejaVu
Weight: Light
Copyright: Copyright (c) 2003 by Bitstream, Inc. All Rights Reserved.\nDejaVu changes are in public domain\n
Version: 2.33
ItalicAngle: 0
UnderlinePosition: -85
UnderlineWidth: 90
Ascent: 1556
Descent: 492
sfntRevision: 0x0002547a
LayerCount: 2
Layer: 0 1 "Arri+AOgA-re"  1
Layer: 1 1 "Avant"  0
NeedsXUIDChange: 1
XUID: [1021 243 1574659762 4005803]
FSType: 0
OS2Version: 1
OS2_WeightWidthSlopeOnly: 0
OS2_UseTypoMetrics: 1
CreationTime: 1298817777
ModificationTime: 1331581694
PfmFamily: 17
TTFWeight: 400
TTFWidth: 5
LineGap: 0
VLineGap: 0
Panose: 2 11 6 9 3 8 4 2 2 4
OS2TypoAscent: 0
OS2TypoAOffset: 1
OS2TypoDescent: 0
OS2TypoDOffset: 1
OS2TypoLinegap: 410
OS2WinAscent: -232
OS2WinAOffset: 1
OS2WinDescent: -284
OS2WinDOffset: 1
HheadAscent: -232
HheadAOffset: 1
HheadDescent: 284
HheadDOffset: 1
OS2SubXSize: 1331
OS2SubYSize: 1433
OS2SubXOff: 0
OS2SubYOff: 286
OS2SupXSize: 1331
OS2SupYSize: 1433
OS2SupXOff: 0
OS2SupYOff: 983
OS2StrikeYSize: 102
OS2StrikeYPos: 530
OS2Vendor: 'PfEd'
OS2CodePages: 6000019f.dfd70000
OS2UnicodeRanges: e00002ff.5200f9fb.02000020.00000000
Lookup: 1 0 0 "'locl' Formes localis+AOkA-es g+AOkA-ographiquement dans Latin lookup 0"  {"sous-table 'locl' Formes localis+AOkA-es g+AOkA-ographiquement dans Latin lookup 0"  } ['locl' ('latn' <'ISM ' 'KSM ' 'LSM ' 'NSM ' 'SKS ' 'SSM ' > ) ]
Lookup: 6 0 0 "'ccmp' Composition et d+AOkA-composition de glyphe (CJK) lookups1"  {"sous-table 'ccmp' Composition et d+AOkA-composition de glyphe (CJK) lookups1"  } ['ccmp' ('cyrl' <'SRB ' 'dflt' > 'grek' <'dflt' > 'latn' <'ISM ' 'KSM ' 'LSM ' 'MOL ' 'NSM ' 'ROM ' 'SKS ' 'SSM ' 'dflt' > ) ]
Lookup: 1 0 0 "'locl' Formes localis+AOkA-es g+AOkA-ographiquement dans Cyrillique lookup 2"  {"sous-table 'locl' Formes localis+AOkA-es g+AOkA-ographiquement dans Cyrillique lookup 2"  } ['locl' ('cyrl' <'SRB ' > ) ]

StartChar: .notdef
Encoding: 1114112 -1 0
Width: 1233
Flags: W
LayerCount: 2
Fore
SplineSet
69.667 -362 m 1,0,-1
 69.667 1444 l 1,1,-1
 1093.67 1444 l 1,2,-1
 1093.67 -362 l 1,3,-1
 69.667 -362 l 1,0,-1
184.667 -248 m 1,4,-1
 979.667 -248 l 1,5,-1
 979.667 1329 l 1,6,-1
 184.667 1329 l 1,7,-1
 184.667 -248 l 1,4,-1
EndSplineSet
EndChar

StartChar: exclam
Encoding: 33 33 4
Width: 1233
VWidth: 2000
GlyphClass: 2
Flags: W
HStem: 0 166<593.5 639.5> 1204 40G<608.5 624.5>
VStem: 534.5 164<59 106 1148 1192>
LayerCount: 2
Fore
SplineSet
698.5 1148 m 2,0,-1
 680.5 460 l 1,1,2
 676.584 397.336 676.584 397.336 659.307 387.252 c 0,3,4
 644.559 380.266 644.559 380.266 616.5 380 c 0,5,6
 558.75 383.186 558.75 383.186 554.5 414 c 1,7,-1
 534.5 1148 l 1,8,9
 544.33 1234.08 544.33 1234.08 616.5 1244 c 1,10,11
 676.242 1244 676.242 1244 693.537 1185.67 c 0,12,13
 698.238 1167.54 698.238 1167.54 698.5 1148 c 2,0,-1
698.5 82 m 0,14,15
 698.5 24.1943 698.5 24.1943 645.072 4.92871 c 0,16,17
 630.28 0.332031 630.28 0.332031 616.5 0 c 0,18,19
 558.694 0 558.694 0 539.429 53.4277 c 0,20,21
 534.832 68.2197 534.832 68.2197 534.5 82 c 0,22,23
 534.5 142.163 534.5 142.163 588.562 161.277 c 0,24,25
 601.92 166 601.92 166 616.5 166 c 0,26,27
 675.036 166 675.036 166 693.797 110.968 c 0,28,29
 698.188 96.0332 698.188 96.0332 698.5 82 c 0,14,15
EndSplineSet
EndChar

StartChar: quotedbl
Encoding: 34 34 5
Width: 1233
VWidth: 2000
GlyphClass: 2
Flags: W
HStem: 678 42G<415.611 453.611 781.613 819.613> 1204 40G<424.611 444.611 790.613 810.613>
LayerCount: 2
Fore
SplineSet
504.611 1154 m 2,0,-1
 478.611 732 l 1,1,2
 470.541 680.056 470.541 680.056 434.611 678 c 1,3,4
 394.069 680.401 394.069 680.401 388.611 734 c 1,5,-1
 362.611 1154 l 2,6,7
 356.753 1224.31 356.753 1224.31 418.867 1241.55 c 0,8,9
 427.685 1244 427.685 1244 434.611 1244 c 0,10,11
 482.348 1244 482.348 1244 499.33 1199.32 c 0,12,13
 506.145 1178.5 506.145 1178.5 504.611 1154 c 2,0,-1
870.612 1154 m 2,14,-1
 844.612 732 l 1,15,16
 836.543 680.056 836.543 680.056 800.612 678 c 1,17,18
 760.072 680.401 760.072 680.401 754.612 734 c 1,19,-1
 728.612 1154 l 2,20,21
 722.753 1224.31 722.753 1224.31 784.873 1241.55 c 0,22,23
 794.152 1243.72 794.152 1243.72 800.612 1244 c 0,24,25
 848.343 1244 848.343 1244 865.333 1199.32 c 0,26,27
 872.143 1178.5 872.143 1178.5 870.612 1154 c 2,14,-1
EndSplineSet
EndChar

StartChar: numbersign
Encoding: 35 35 6
Width: 1233
VWidth: 2000
GlyphClass: 2
Flags: W
HStem: 0 42G<348.502 385.502 708.498 745.498> 338 102<234.502 364.502 244.502 348.502 468.502 708.498 244.502 454.502 828.498 988.498> 784 104<234.502 422.502 244.502 406.502 244.502 510.502 526.502 766.498 886.498 988.498> 1182 40G<484.502 520.502 844.498 880.498>
LayerCount: 2
Fore
SplineSet
1064.5 388 m 1,0,1
 1062.85 338.118 1062.85 338.118 988.498 338 c 2,2,-1
 812.498 338 l 1,3,-1
 778.498 68 l 1,4,5
 761.818 2.57129 761.818 2.57129 724.498 0 c 1,6,7
 683.309 0 683.309 0 673.889 40.0947 c 0,8,9
 672.698 47.0215 672.698 47.0215 672.498 52 c 2,10,-1
 708.498 338 l 1,11,-1
 454.502 338 l 1,12,-1
 418.502 68 l 1,13,14
 401.821 2.57129 401.821 2.57129 364.502 0 c 1,15,16
 323.313 0 323.313 0 313.893 40.0947 c 0,17,18
 312.698 47.0215 312.698 47.0215 312.502 52 c 2,19,-1
 348.502 338 l 1,20,-1
 244.502 338 l 1,21,22
 171.31 341.845 171.31 341.845 168.502 388 c 1,23,24
 170.153 439.877 170.153 439.877 244.502 440 c 2,25,-1
 364.502 440 l 1,26,-1
 406.502 784 l 1,27,-1
 244.502 784 l 1,28,29
 171.31 787.998 171.31 787.998 168.502 836 c 1,30,31
 170.153 887.877 170.153 887.877 244.502 888 c 2,32,-1
 422.502 888 l 1,33,-1
 454.502 1156 l 1,34,35
 465.768 1219.33 465.768 1219.33 508.502 1222 c 1,36,37
 554.678 1222 554.678 1222 559.302 1173.01 c 0,38,39
 560 1160.32 560 1160.32 558.502 1148 c 2,40,-1
 526.502 888 l 1,41,-1
 782.498 888 l 1,42,-1
 814.498 1156 l 1,43,44
 825.769 1219.33 825.769 1219.33 868.498 1222 c 1,45,46
 914.679 1222 914.679 1222 919.299 1173.01 c 0,47,48
 919.998 1160.32 919.998 1160.32 918.498 1148 c 2,49,-1
 886.498 888 l 1,50,-1
 988.498 888 l 1,51,52
 1061.7 884.002 1061.7 884.002 1064.5 836 c 1,53,54
 1062.85 784.123 1062.85 784.123 988.498 784 c 2,55,-1
 870.498 784 l 1,56,-1
 828.498 440 l 1,57,-1
 988.498 440 l 1,58,59
 1061.7 436.002 1061.7 436.002 1064.5 388 c 1,0,1
766.498 784 m 1,60,-1
 510.502 784 l 1,61,-1
 468.502 440 l 1,62,-1
 724.498 440 l 1,63,-1
 766.498 784 l 1,60,-1
EndSplineSet
EndChar

StartChar: dollar
Encoding: 36 36 7
Width: 1233
VWidth: 2000
GlyphClass: 2
Flags: W
HStem: -172 42G<596.5 639.5> 1354 40G<596.5 639.5>
VStem: 214.5 92<890 976 865 986> 574.5 86<-108 -12 74 576 696 1148 1234 1330> 926.5 92<267 380 264 381>
LayerCount: 2
Fore
SplineSet
1018.5 332 m 0,0,1
 1018.5 183.29 1018.5 183.29 890.87 82.1514 c 0,2,3
 797.77 9.99512 797.77 9.99512 660.5 -12 c 1,4,-1
 660.5 -108 l 1,5,6
 656.685 -169.631 656.685 -169.631 618.5 -172 c 1,7,8
 574.606 -169.705 574.606 -169.705 574.5 -108 c 2,9,-1
 574.5 -12 l 1,10,11
 332.193 11.833 332.193 11.833 247.333 180.56 c 0,12,13
 214.965 247.003 214.965 247.003 214.5 322 c 1,14,15
 223.637 397.229 223.637 397.229 288.5 406 c 1,16,17
 333.42 406 333.42 406 352.388 362.229 c 0,18,19
 358.104 346.903 358.104 346.903 358.5 332 c 0,20,21
 356.209 291.253 356.209 291.253 320.5 270 c 1,22,23
 368.863 104.547 368.863 104.547 562.879 75.6143 c 0,24,25
 569.638 74.6436 569.638 74.6436 574.5 74 c 1,26,-1
 574.5 594 l 1,27,28
 281.751 648.15 281.751 648.15 225.104 841.581 c 0,29,30
 214.668 878.365 214.668 878.365 214.5 914 c 0,31,32
 214.5 1053.8 214.5 1053.8 345.15 1148.57 c 0,33,34
 440.832 1216.47 440.832 1216.47 574.5 1232 c 1,35,-1
 574.5 1330 l 1,36,37
 578.497 1391.63 578.497 1391.63 618.5 1394 c 1,38,39
 660.398 1391.71 660.398 1391.71 660.5 1330 c 2,40,-1
 660.5 1234 l 1,41,42
 913.561 1211.55 913.561 1211.55 992.14 1044.62 c 0,43,44
 1018.07 987.479 1018.07 987.479 1018.5 924 c 1,45,46
 1008.17 851.697 1008.17 851.697 944.5 844 c 1,47,48
 893.09 844 893.09 844 877.75 892.896 c 0,49,50
 874.79 904.288 874.79 904.288 874.5 914 c 0,51,52
 877.04 948.641 877.04 948.641 908.5 974 c 1,53,54
 860.61 1122.37 860.61 1122.37 660.5 1148 c 1,55,-1
 660.5 678 l 1,56,57
 931.23 627.464 931.23 627.464 1000.91 430.243 c 0,58,59
 1018.17 379.766 1018.17 379.766 1018.5 332 c 0,0,1
574.5 696 m 1,60,-1
 574.5 1150 l 1,61,62
 393.861 1118.78 393.861 1118.78 329.692 1006.79 c 0,63,64
 306.5 966.318 306.5 966.318 306.5 922 c 0,65,66
 306.5 801.49 306.5 801.49 455.696 732.738 c 0,67,68
 510.645 708.015 510.645 708.015 574.5 696 c 1,60,-1
926.5 324 m 0,69,70
 926.5 453.868 926.5 453.868 791.28 529.546 c 0,71,72
 732.98 561.35 732.98 561.35 660.5 576 c 1,73,-1
 660.5 74 l 1,74,75
 835.97 105.712 835.97 105.712 901.561 227.492 c 0,76,77
 925.98 274.881 925.98 274.881 926.5 324 c 0,69,70
EndSplineSet
EndChar

StartChar: percent
Encoding: 37 37 8
Width: 1233
VWidth: 2000
GlyphClass: 2
Flags: W
HStem: -172 88<891.498 920.498 891.498 953.498> 250 88<891.498 920.498> 882 88<312.502 341.502 312.502 373.502> 1306 88<310.502 342.502>
VStem: 168.502 74<1086 1189 1086 1210> 412.502 74<1086 1189> 746.498 74<29 136 29 152> 990.498 74<29 136>
LayerCount: 2
Fore
SplineSet
486.502 1138 m 0,0,1
 486.502 980.793 486.502 980.793 403.551 911.316 c 0,2,3
 367.283 882.784 367.283 882.784 326.502 882 c 0,4,5
 239.633 882 239.633 882 194.377 994.283 c 0,6,7
 168.879 1059.8 168.879 1059.8 168.502 1140 c 0,8,9
 168.502 1294.47 168.502 1294.47 250.26 1364.3 c 0,10,11
 286.287 1393.2 286.287 1393.2 326.502 1394 c 0,12,13
 415.64 1394 415.64 1394 461.176 1280.6 c 0,14,15
 486.125 1216.23 486.125 1216.23 486.502 1138 c 0,0,1
958.498 1342 m 0,16,17
 957.269 1328.41 957.269 1328.41 946.498 1304 c 2,18,-1
 374.502 -138 l 1,19,20
 354.909 -170.44 354.909 -170.44 326.502 -172 c 0,21,22
 289.049 -172 289.049 -172 277.022 -135.567 c 0,23,24
 274.791 -126.877 274.791 -126.877 274.502 -120 c 0,25,26
 275.73 -106.414 275.73 -106.414 286.502 -82 c 2,27,-1
 850.498 1342 l 1,28,29
 873.929 1391.77 873.929 1391.77 906.498 1394 c 1,30,31
 943.368 1394 943.368 1394 955.979 1356.82 c 0,32,33
 958.198 1348.39 958.198 1348.39 958.498 1342 c 0,16,17
1064.5 82 m 0,34,35
 1064.5 -73.3271 1064.5 -73.3271 983.629 -142.297 c 0,36,37
 947.519 -171.206 947.519 -171.206 906.498 -172 c 0,38,39
 817.349 -172 817.349 -172 771.688 -58.29 c 0,40,41
 746.879 5.70605 746.879 5.70605 746.498 82 c 0,42,43
 746.498 235.936 746.498 235.936 827.738 306.823 c 0,44,45
 863.469 338 863.469 338 906.498 338 c 0,46,47
 995.538 338 995.538 338 1040.3 221.957 c 0,48,49
 1064.14 157.962 1064.14 157.962 1064.5 82 c 0,34,35
412.502 1140 m 0,50,51
 412.502 1242.44 412.502 1242.44 355.169 1292.38 c 0,52,53
 338.895 1305.05 338.895 1305.05 326.502 1306 c 0,54,55
 293.511 1306 293.511 1306 264.843 1245.12 c 0,56,57
 242.98 1196.37 242.98 1196.37 242.502 1140 c 0,58,59
 242.502 1029.09 242.502 1029.09 301.889 981.111 c 0,60,61
 316.178 970.881 316.178 970.881 326.502 970 c 0,62,63
 359.538 970 359.538 970 388.597 1028.75 c 0,64,65
 412.017 1078.54 412.017 1078.54 412.502 1140 c 0,50,51
990.498 82 m 0,66,67
 990.498 191.929 990.498 191.929 931.438 238.938 c 0,68,69
 916.998 249.133 916.998 249.133 906.498 250 c 0,70,71
 872.698 250 872.698 250 843.738 191.132 c 0,72,73
 820.979 142.434 820.979 142.434 820.498 82 c 0,74,75
 820.498 -26.4053 820.498 -26.4053 880.068 -72.7041 c 0,76,77
 894.599 -84 894.599 -84 906.498 -84 c 0,78,79
 938.238 -84 938.238 -84 966.929 -26.5078 c 0,80,81
 990.009 22.1963 990.009 22.1963 990.498 82 c 0,66,67
EndSplineSet
EndChar

StartChar: ampersand
Encoding: 38 38 9
Width: 1233
VWidth: 2000
GlyphClass: 2
Flags: W
HStem: -22 84<343.502 411.502 343.502 444.502 850.498 911.498> 766 84<825.498 853.498 933.498 1011.5 933.498 933.498> 1160 84<483.502 550.502>
VStem: 159.502 74 159.502 102<237 307> 315.502 74<957 1034 957 1061> 393.502 74 407.502 102 503.502 102 605.502 74<959 993>
LayerCount: 2
Fore
SplineSet
1073.5 806 m 1,0,1
 1071.14 766.1 1071.14 766.1 1011.5 766 c 2,2,-1
 933.498 766 l 1,3,-1
 805.498 430 l 1,4,5
 743.639 284.725 743.639 284.725 693.498 202 c 1,6,7
 772.009 95.459 772.009 95.459 854.049 68.4473 c 0,8,9
 873.629 62 873.629 62 891.498 62 c 0,10,11
 977.538 62 977.538 62 994.459 202.439 c 0,12,13
 995.028 207.146 995.028 207.146 995.498 212 c 0,14,15
 1003.9 241.781 1003.9 241.781 1031.5 244 c 1,16,17
 1031.5 244 1031.5 244 1051.75 235.564 c 1,18,19
 1066.6 220.447 1066.6 220.447 1067.5 196 c 0,20,21
 1067.5 84.8369 1067.5 84.8369 997.868 19.5557 c 0,22,23
 951.959 -21.1572 951.959 -21.1572 891.498 -22 c 0,24,25
 783.498 -22 783.498 -22 651.679 131.46 c 2,26,-1
 649.498 134 l 1,27,28
 521.984 -20.7773 521.984 -20.7773 393.502 -22 c 0,29,30
 260.621 -22 260.621 -22 194.72 108.624 c 0,31,32
 159.984 179.588 159.984 179.588 159.502 262 c 0,33,34
 160.698 380.917 160.698 380.917 233.502 472 c 1,35,-1
 375.502 626 l 1,36,37
 315.8 806.656 315.8 806.656 315.502 966 c 0,38,39
 315.502 1157.9 315.502 1157.9 430.433 1222.91 c 0,40,41
 468.806 1243.47 468.806 1243.47 509.502 1244 c 0,42,43
 644.839 1244 644.839 1244 673.538 1061.54 c 0,44,45
 679.358 1022.59 679.358 1022.59 679.498 982 c 0,46,47
 676.219 819.851 676.219 819.851 467.502 600 c 1,48,49
 504.654 500.562 504.654 500.562 645.498 268 c 1,50,51
 722.049 415.483 722.049 415.483 853.498 766 c 1,52,53
 776.488 766 776.488 766 764.469 786.491 c 0,54,55
 759.498 794.962 759.498 794.962 759.498 808 c 0,56,57
 761.688 849.887 761.688 849.887 821.498 850 c 2,58,-1
 1011.5 850 l 1,59,60
 1071.18 845.878 1071.18 845.878 1073.5 806 c 1,0,1
605.502 982 m 0,61,62
 605.502 1062.18 605.502 1062.18 569.867 1120.34 c 1,63,64
 543.846 1158.58 543.846 1158.58 509.502 1160 c 0,65,66
 447.469 1160 447.469 1160 412.114 1083.69 c 0,67,68
 389.916 1033.3 389.916 1033.3 389.502 966 c 0,69,70
 390.408 841.374 390.408 841.374 433.502 690 c 1,71,72
 605.502 882.537 605.502 882.537 605.502 982 c 0,61,62
601.502 202 m 1,73,74
 553.343 271.435 553.343 271.435 503.502 362 c 1,75,76
 443.881 457.977 443.881 457.977 407.502 538 c 1,77,78
 295.849 413.74 295.849 413.74 277.182 369.088 c 0,79,80
 261.71 329.585 261.71 329.585 261.502 268 c 0,81,82
 261.502 166.358 261.502 166.358 313.39 103.015 c 0,83,84
 348.646 63.0801 348.646 63.0801 395.502 62 c 1,85,86
 503.539 65.7529 503.539 65.7529 601.502 202 c 1,73,74
EndSplineSet
EndChar

StartChar: quotesingle
Encoding: 39 39 10
Width: 1233
VWidth: 2000
GlyphClass: 2
Flags: W
HStem: 678 42G<598.611 636.611> 1204 40G<607.611 627.611>
LayerCount: 2
Fore
SplineSet
687.611 1154 m 2,0,-1
 661.611 732 l 1,1,2
 653.541 680.056 653.541 680.056 617.611 678 c 1,3,4
 577.069 680.401 577.069 680.401 571.611 734 c 1,5,-1
 545.611 1154 l 2,6,7
 539.753 1224.31 539.753 1224.31 601.868 1241.55 c 0,8,9
 610.685 1244 610.685 1244 617.611 1244 c 0,10,11
 665.348 1244 665.348 1244 682.33 1199.32 c 0,12,13
 689.145 1178.5 689.145 1178.5 687.611 1154 c 2,0,-1
EndSplineSet
EndChar

StartChar: parenleft
Encoding: 40 40 11
Width: 1233
VWidth: 2000
GlyphClass: 2
Flags: W
HStem: -170 42G<801.498 843.498> 1354 40G<796.498 843.498>
VStem: 363.502 102<493 718 493 869>
LayerCount: 2
Fore
SplineSet
869.498 -132 m 1,0,1
 860.358 -165.067 860.358 -165.067 825.498 -170 c 1,2,3
 772.809 -170 772.809 -170 650.461 -52.7441 c 0,4,5
 580.726 14.7666 580.726 14.7666 527.502 88 c 1,6,7
 364.35 328.477 364.35 328.477 363.502 612 c 0,8,9
 363.502 978.377 363.502 978.377 615.272 1243.82 c 0,10,11
 726.679 1361.28 726.679 1361.28 809.658 1390.49 c 0,12,13
 819.889 1393.61 819.889 1393.61 825.498 1394 c 0,14,15
 865.578 1390.41 865.578 1390.41 869.498 1356 c 1,16,17
 866.028 1334.71 866.028 1334.71 829.498 1312 c 0,18,19
 534.234 1110.3 534.234 1110.3 476.737 751.66 c 0,20,21
 465.653 680.666 465.653 680.666 465.502 612 c 0,22,23
 465.502 298.902 465.502 298.902 655.962 68.0137 c 0,24,25
 730.288 -20.8438 730.288 -20.8438 825.498 -86 c 1,26,27
 869.498 -112.4 869.498 -112.4 869.498 -132 c 1,0,1
EndSplineSet
EndChar

StartChar: parenright
Encoding: 41 41 12
Width: 1233
VWidth: 2000
GlyphClass: 2
Flags: W
HStem: -170 42G<390.502 436.502> 1354 40G<390.502 431.502>
VStem: 767.498 102<506 681>
LayerCount: 2
Fore
SplineSet
869.498 612 m 0,0,1
 869.498 245.623 869.498 245.623 617.73 -19.8232 c 0,2,3
 506.326 -137.279 506.326 -137.279 423.347 -166.485 c 0,4,5
 413.358 -170 413.358 -170 407.502 -170 c 0,6,7
 368.184 -166.41 368.184 -166.41 363.502 -132 c 1,8,9
 363.502 -114 363.502 -114 401.019 -89.6543 c 2,10,-1
 403.502 -88 l 1,11,12
 703.479 115.48 703.479 115.48 757.719 480.483 c 0,13,14
 767.498 546.342 767.498 546.342 767.498 612 c 0,15,16
 767.498 967.479 767.498 967.479 521.696 1212.19 c 0,17,18
 456.87 1275.98 456.87 1275.98 379.502 1328 c 1,19,20
 364.68 1341.94 364.68 1341.94 363.502 1356 c 0,21,22
 363.502 1385.46 363.502 1385.46 394.896 1392.65 c 0,23,24
 401.994 1393.82 401.994 1393.82 407.502 1394 c 0,25,26
 460.191 1394 460.191 1394 582.543 1276.74 c 0,27,28
 652.277 1209.23 652.277 1209.23 705.502 1136 c 1,29,30
 868.658 895.523 868.658 895.523 869.498 612 c 0,0,1
EndSplineSet
EndChar

StartChar: asterisk
Encoding: 42 42 13
Width: 1233
VWidth: 2000
GlyphClass: 2
Flags: W
HStem: 186 42G<592.498 640.498> 996 40G<592.498 640.498>
VStem: 568.498 96<252 532 970 977>
LayerCount: 2
Fore
SplineSet
996.502 422 m 0,0,1
 996.502 386.346 996.502 386.346 962.472 376.027 c 0,2,3
 954.642 374.256 954.642 374.256 948.502 374 c 0,4,5
 935.901 374 935.901 374 896.142 396.342 c 0,6,7
 886.651 401.671 886.651 401.671 882.502 404 c 2,8,-1
 664.498 532 l 1,9,-1
 664.498 252 l 1,10,11
 660.267 188.976 660.267 188.976 616.498 186 c 1,12,13
 568.675 187.375 568.675 187.375 568.498 252 c 2,14,-1
 568.498 534 l 1,15,-1
 292.498 374 l 1,16,17
 238.778 377.768 238.778 377.768 236.498 422 c 1,18,19
 238.677 450.619 238.677 450.619 276.498 472 c 2,20,-1
 534.498 612 l 1,21,-1
 274.498 752 l 1,22,23
 237.863 777.093 237.863 777.093 236.498 800 c 0,24,25
 236.498 835.654 236.498 835.654 270.525 845.973 c 0,26,27
 278.353 847.744 278.353 847.744 284.498 848 c 0,28,29
 286.775 847.157 286.775 847.157 296.498 846 c 1,30,-1
 570.498 686 l 1,31,-1
 568.498 970 l 1,32,33
 572.73 1033.02 572.73 1033.02 616.498 1036 c 1,34,35
 664.322 1034.62 664.322 1034.62 664.498 970 c 2,36,-1
 662.498 688 l 1,37,-1
 940.502 848 l 1,38,39
 994.222 844.232 994.222 844.232 996.502 800 c 1,40,41
 994.321 771.381 994.321 771.381 956.502 750 c 2,42,-1
 698.502 610 l 1,43,-1
 982.502 458 l 1,44,45
 995.672 435.424 995.672 435.424 996.502 422 c 0,0,1
EndSplineSet
EndChar

StartChar: plus
Encoding: 43 43 14
Width: 1233
VWidth: 2000
GlyphClass: 2
Flags: W
HStem: 168 42G<590.502 642.502> 560 104<241.502 564.502 250.502 564.502 668.499 982.498> 1016 40G<590.502 642.502>
VStem: 564.502 104<244 560 664 980>
LayerCount: 2
Fore
SplineSet
1058.5 612 m 1,0,1
 1057 560.134 1057 560.134 982.498 560 c 2,2,-1
 668.498 560 l 1,3,-1
 668.498 244 l 1,4,5
 664.498 170.906 664.498 170.906 616.502 168 c 1,6,7
 564.636 169.502 564.636 169.502 564.502 244 c 2,8,-1
 564.502 560 l 1,9,-1
 250.502 560 l 1,10,11
 177.407 563.998 177.407 563.998 174.502 612 c 1,12,13
 176.004 663.866 176.004 663.866 250.502 664 c 2,14,-1
 564.502 664 l 1,15,-1
 564.502 980 l 1,16,17
 568.5 1053.09 568.5 1053.09 616.502 1056 c 1,18,19
 668.368 1054.5 668.368 1054.5 668.498 980 c 2,20,-1
 668.498 664 l 1,21,-1
 982.498 664 l 1,22,23
 1055.6 660.002 1055.6 660.002 1058.5 612 c 1,0,1
EndSplineSet
EndChar

StartChar: comma
Encoding: 44 44 15
Width: 1233
VWidth: 2000
GlyphClass: 2
Flags: W
HStem: -288 42G<498.5 541.5> 0 218<585.5 619.5>
VStem: 506.5 260<77 88 -75 138>
LayerCount: 2
Fore
SplineSet
766.5 32 m 0,0,1
 766.5 -139.209 766.5 -139.209 620.906 -241.667 c 0,2,3
 555.245 -286.974 555.245 -286.974 510.5 -288 c 0,4,5
 478.416 -288 478.416 -288 468.23 -253.523 c 0,6,7
 466.755 -246.713 466.755 -246.713 466.5 -242 c 0,8,9
 468.968 -219.867 468.968 -219.867 494.5 -208 c 1,10,11
 629.12 -163.127 629.12 -163.127 667.691 -53.6152 c 0,12,13
 673.458 -36.2246 673.458 -36.2246 676.5 -20 c 1,14,-1
 678.5 20 l 1,15,16
 656.041 0.924805 656.041 0.924805 614.5 0 c 0,17,18
 542.887 0 542.887 0 515.526 64.2393 c 0,19,20
 506.895 86.6562 506.895 86.6562 506.5 110 c 0,21,22
 506.5 181.665 506.5 181.665 569.042 208.684 c 0,23,24
 591.896 217.606 591.896 217.606 616.5 218 c 0,25,26
 705.66 218 705.66 218 747.08 127.316 c 0,27,28
 766.5 84.8135 766.5 84.8135 766.5 32 c 0,0,1
EndSplineSet
EndChar

StartChar: hyphen
Encoding: 45 45 16
Width: 1233
VWidth: 2000
GlyphClass: 2
Flags: W
HStem: 560 104<278.502 944.498 288.502 944.498>
LayerCount: 2
Fore
SplineSet
1022.5 612 m 1,0,1
 1020.89 560.119 1020.89 560.119 944.498 560 c 2,2,-1
 288.502 560 l 1,3,4
 213.339 563.898 213.339 563.898 210.502 612 c 1,5,6
 212.112 663.881 212.112 663.881 288.502 664 c 2,7,-1
 944.498 664 l 1,8,9
 1019.67 660.102 1019.67 660.102 1022.5 612 c 1,0,1
EndSplineSet
EndChar

StartChar: period
Encoding: 46 46 17
Width: 1233
VWidth: 2000
GlyphClass: 2
Flags: W
HStem: 0 218<587.5 645.5 584.5 648.5>
VStem: 507.5 218<81 137>
LayerCount: 2
Fore
SplineSet
725.5 108 m 0,0,1
 725.5 42.9883 725.5 42.9883 666.973 12.3799 c 0,2,3
 642.051 0.492188 642.051 0.492188 615.5 0 c 0,4,5
 549.936 0 549.936 0 519.521 59.4043 c 0,6,7
 507.5 82.8818 507.5 82.8818 507.5 110 c 0,8,9
 507.5 175.012 507.5 175.012 566.027 205.62 c 0,10,11
 590.949 217.508 590.949 217.508 617.5 218 c 0,12,13
 683.064 218 683.064 218 713.479 158.596 c 0,14,15
 725.016 133.904 725.016 133.904 725.5 108 c 0,0,1
EndSplineSet
EndChar

StartChar: slash
Encoding: 47 47 18
Width: 1233
VWidth: 2000
GlyphClass: 2
Flags: W
HStem: -172 42G<251.5 282.5> 1354 40G<949.5 980.5>
LayerCount: 2
Fore
SplineSet
1018.5 1342 m 0,0,1
 1016.84 1333.1 1016.84 1333.1 1002.5 1300 c 2,2,-1
 320.5 -126 l 1,3,4
 294.955 -170.247 294.955 -170.247 266.5 -172 c 0,5,6
 228.639 -172 228.639 -172 216.841 -134.815 c 0,7,8
 214.5 -127.436 214.5 -127.436 214.5 -120 c 0,9,10
 216.24 -110.599 216.24 -110.599 230.5 -80 c 2,11,-1
 912.5 1348 l 2,12,13
 932.03 1387.07 932.03 1387.07 952.89 1392.39 c 0,14,15
 960.42 1393.79 960.42 1393.79 966.5 1394 c 0,16,17
 1003.37 1394 1003.37 1394 1015.98 1356.82 c 0,18,19
 1018.2 1348.39 1018.2 1348.39 1018.5 1342 c 0,0,1
EndSplineSet
EndChar

StartChar: zero
Encoding: 48 48 19
Width: 1233
VWidth: 2000
GlyphClass: 2
Flags: W
HStem: -22 84<532.502 700.498 532.502 728.498> 1160 84<536.502 695.498>
VStem: 198.502 102<472 791 472 793> 932.498 102<472 792>
LayerCount: 2
Fore
SplineSet
1034.5 610 m 0,0,1
 1034.5 311.562 1034.5 311.562 883.858 123.455 c 0,2,3
 766.108 -20.7969 766.108 -20.7969 616.502 -22 c 0,4,5
 450.232 -22 450.232 -22 328.666 150.973 c 0,6,7
 199.148 337.696 199.148 337.696 198.502 612 c 0,8,9
 198.502 910.438 198.502 910.438 349.142 1098.54 c 0,10,11
 466.896 1242.8 466.896 1242.8 616.502 1244 c 0,12,13
 782.769 1244 782.769 1244 904.339 1071.03 c 0,14,15
 1033.86 884.304 1033.86 884.304 1034.5 610 c 0,0,1
932.498 632 m 0,16,17
 932.498 910.196 932.498 910.196 796.589 1065.62 c 0,18,19
 712.948 1158.87 712.948 1158.87 616.502 1160 c 0,20,21
 488.911 1160 488.911 1160 395.834 1011.03 c 0,22,23
 301.074 856.898 301.074 856.898 300.502 632 c 0,24,25
 300.502 352.029 300.502 352.029 425.838 179.654 c 0,26,27
 512.598 63.3535 512.598 63.3535 616.502 62 c 0,28,29
 744.629 62 744.629 62 838.108 228.08 c 0,30,31
 931.969 397.184 931.969 397.184 932.498 632 c 0,16,17
EndSplineSet
EndChar

StartChar: one
Encoding: 49 49 20
Width: 1233
VWidth: 2000
GlyphClass: 2
Flags: W
HStem: 0 84<351.502 572.502 362.502 572.502 672.502 882.498> 1204 40G<621.502 652.502>
VStem: 572.502 100<84 1024 1024 1024>
LayerCount: 2
Fore
SplineSet
944.498 42 m 1,0,1
 942.318 0.113281 942.318 0.113281 882.498 0 c 2,2,-1
 362.502 0 l 1,3,4
 302.94 3.93457 302.94 3.93457 300.502 42 c 1,5,6
 302.865 83.8955 302.865 83.8955 362.502 84 c 2,7,-1
 572.502 84 l 1,8,-1
 572.502 1024 l 1,9,10
 438.655 908 438.655 908 336.502 908 c 1,11,12
 290.875 912.346 290.875 912.346 288.502 950 c 1,13,14
 291.471 982.506 291.471 982.506 324.502 990 c 1,15,16
 473.997 1008.69 473.997 1008.69 561.535 1156.12 c 0,17,18
 579.399 1186.73 579.399 1186.73 594.502 1220 c 1,19,20
 607.595 1242.76 607.595 1242.76 632.502 1244 c 1,21,22
 672.404 1241.71 672.404 1241.71 672.502 1180 c 2,23,-1
 672.502 84 l 1,24,-1
 882.498 84 l 1,25,26
 942.179 80.0654 942.179 80.0654 944.498 42 c 1,0,1
EndSplineSet
EndChar

StartChar: two
Encoding: 50 50 21
Width: 1233
VWidth: 2000
GlyphClass: 2
Flags: W
HStem: 0 84<226.5 266.5 360.5 928.5> 1160 84<517.5 669.5>
VStem: 202.5 144<892 923 892 1003> 928.5 102<84 117 791 959>
LayerCount: 2
Fore
SplineSet
1030.5 64 m 2,0,1
 1030.5 10.9824 1030.5 10.9824 999.28 2.96875 c 0,2,3
 986 0.165039 986 0.165039 968.5 0 c 2,4,-1
 266.5 0 l 1,5,6
 204.869 3.99707 204.869 3.99707 202.5 44 c 1,7,8
 204.569 64.9102 204.569 64.9102 226.5 84 c 2,9,-1
 682.5 468 l 2,10,11
 927.17 673.597 927.17 673.597 928.5 862 c 0,12,13
 928.5 1035.43 928.5 1035.43 770.18 1116.37 c 0,14,15
 683.64 1159.53 683.64 1159.53 578.5 1160 c 0,16,17
 428.245 1160 428.245 1160 347.997 1044.27 c 0,18,19
 325.174 1011.36 325.174 1011.36 312.5 972 c 1,20,21
 345.545 944.734 345.545 944.734 346.5 914 c 0,22,23
 346.5 863.318 346.5 863.318 297.299 846.017 c 0,24,25
 284.918 842.332 284.918 842.332 274.5 842 c 0,26,27
 224.711 842 224.711 842 207.737 888.172 c 0,28,29
 202.823 903.774 202.823 903.774 202.5 920 c 0,30,31
 202.5 1063.28 202.5 1063.28 329.169 1160.47 c 0,32,33
 439.509 1243.29 439.509 1243.29 590.5 1244 c 0,34,35
 810.62 1244 810.62 1244 937.28 1106.76 c 0,36,37
 1029.67 1004.23 1029.67 1004.23 1030.5 862 c 1,38,39
 1028.75 675.694 1028.75 675.694 850.5 500 c 1,40,41
 804.41 457.509 804.41 457.509 464.271 172.246 c 0,42,43
 404.477 122.045 404.477 122.045 360.5 84 c 1,44,-1
 928.5 84 l 1,45,46
 928.5 160.938 928.5 160.938 947.45 174.116 c 0,47,48
 960.77 181.565 960.77 181.565 980.5 182 c 1,49,50
 1029.66 173.95 1029.66 173.95 1030.5 118 c 2,51,-1
 1030.5 64 l 2,0,1
EndSplineSet
EndChar

StartChar: three
Encoding: 51 51 22
Width: 1233
VWidth: 2000
GlyphClass: 2
Flags: W
HStem: -22 84<576.502 721.498 576.502 749.498> 1076 84 1160 84<610.502 697.498>
VStem: 186.502 142<251 286 251 286> 246.502 142<997 1030 997 1091> 518.502 102 884.498 102<938 1023> 944.498 102<272 404>
LayerCount: 2
Fore
SplineSet
1046.5 340 m 1,0,1
 1046.5 183.968 1046.5 183.968 914.089 76.0889 c 0,2,3
 792.169 -21.249 792.169 -21.249 620.502 -22 c 0,4,5
 380.028 -22 380.028 -22 258.188 96.5732 c 0,6,7
 187.432 167.77 187.432 167.77 186.502 260 c 0,8,9
 186.502 323.518 186.502 323.518 242.018 336.154 c 0,10,11
 251.153 337.802 251.153 337.802 258.502 338 c 0,12,13
 310.159 338 310.159 338 325.245 288.249 c 0,14,15
 328.229 276.414 328.229 276.414 328.502 266 c 0,16,17
 326.534 234.082 326.534 234.082 298.502 206 c 1,18,19
 367.261 85.1514 367.261 85.1514 570.337 64.6455 c 0,20,21
 597.301 62.0986 597.301 62.0986 620.502 62 c 0,22,23
 801.608 62 801.608 62 894.849 191.72 c 0,24,25
 943.788 261.864 943.788 261.864 944.498 340 c 0,26,27
 944.498 463.617 944.498 463.617 839.669 546.605 c 0,28,29
 747.818 617.294 747.818 617.294 614.502 618 c 2,30,-1
 518.502 618 l 1,31,32
 458.821 622.122 458.821 622.122 456.502 662 c 0,33,34
 456.502 692.384 456.502 692.384 498.405 700.592 c 0,35,36
 520.506 704.618 520.506 704.618 586.502 710 c 1,37,38
 699.078 715.629 699.078 715.629 754.709 750.042 c 0,39,40
 773.408 762.036 773.408 762.036 790.498 776 c 0,41,42
 880.118 856.518 880.118 856.518 884.498 972 c 1,43,44
 884.498 1070.1 884.498 1070.1 775.488 1125.52 c 0,45,46
 706.339 1159.52 706.339 1159.52 620.502 1160 c 0,47,48
 456.148 1160 456.148 1160 370.337 1083.4 c 0,49,50
 365.36 1078.78 365.36 1078.78 362.502 1076 c 1,51,52
 387.75 1045.85 387.75 1045.85 388.502 1020 c 0,53,54
 388.502 964.493 388.502 964.493 337.757 948.938 c 0,55,56
 327.18 946.279 327.18 946.279 318.502 946 c 0,57,58
 267.777 946 267.777 946 251.137 994.505 c 0,59,60
 246.808 1009.29 246.808 1009.29 246.502 1024 c 0,61,62
 246.502 1160.14 246.502 1160.14 416.288 1215.88 c 0,63,64
 503.395 1243.71 503.395 1243.71 618.502 1244 c 0,65,66
 826.948 1244 826.948 1244 930.729 1120.83 c 0,67,68
 985.698 1053.42 985.698 1053.42 986.498 974 c 1,69,70
 983.748 792.535 983.748 792.535 790.498 666 c 1,71,72
 1035.03 538.248 1035.03 538.248 1046.5 340 c 1,0,1
EndSplineSet
EndChar

StartChar: four
Encoding: 52 52 23
Width: 1233
VWidth: 2000
GlyphClass: 2
Flags: W
HStem: 0 84<599.5 758.5 610.5 758.5 834.5 982.5> 350 84<192.5 758.5 242.5 758.5 242.5 758.5 834.5 1016.5 242.5 834.5> 1162 84<712.5 758.5 704.5 768.5>
VStem: 758.5 76<84 350 84 350 434 1162 1162 1162>
LayerCount: 2
Fore
SplineSet
1078.5 390 m 1,0,1
 1076.32 350.107 1076.32 350.107 1016.5 350 c 2,2,-1
 834.5 350 l 1,3,-1
 834.5 84 l 1,4,-1
 982.5 84 l 1,5,6
 1042.18 80.0654 1042.18 80.0654 1044.5 42 c 1,7,8
 1042.32 0.113281 1042.32 0.113281 982.5 0 c 2,9,-1
 610.5 0 l 1,10,11
 550.939 3.93457 550.939 3.93457 548.5 42 c 1,12,13
 550.864 83.8955 550.864 83.8955 610.5 84 c 2,14,-1
 758.5 84 l 1,15,-1
 758.5 350 l 1,16,-1
 216.5 350 l 2,17,18
 165.441 350 165.441 350 157.641 379.583 c 0,19,20
 154.667 393.273 154.667 393.273 154.5 412 c 0,21,22
 155.459 447.022 155.459 447.022 162.5 460 c 2,23,-1
 642.5 1212 l 2,24,25
 663.15 1243.91 663.15 1243.91 689.54 1245.59 c 0,26,27
 698.16 1246 698.16 1246 712.5 1246 c 2,28,-1
 768.5 1246 l 2,29,30
 823.1 1246 823.1 1246 831.21 1216.19 c 0,31,32
 834.34 1202.26 834.34 1202.26 834.5 1182 c 2,33,-1
 834.5 434 l 1,34,-1
 1016.5 434 l 1,35,36
 1076.06 429.878 1076.06 429.878 1078.5 390 c 1,0,1
758.5 434 m 1,37,-1
 758.5 1162 l 1,38,-1
 704.5 1162 l 1,39,-1
 242.5 434 l 1,40,-1
 758.5 434 l 1,37,-1
EndSplineSet
EndChar

StartChar: five
Encoding: 53 53 24
Width: 1233
VWidth: 2000
GlyphClass: 2
Flags: W
HStem: -22 84<556.5 680.5 556.5 711.5> 678 84<612.5 736.5> 1138 84<378.5 896.5 378.5 378.5>
VStem: 202.5 144<264 303 264 304> 276.5 102<690 1138 690 1158 690 1183> 928.5 102<284 444>
LayerCount: 2
Fore
SplineSet
1030.5 372 m 0,0,1
 1030.5 192.862 1030.5 192.862 880.51 75.4883 c 0,2,3
 754.58 -21.2559 754.58 -21.2559 588.5 -22 c 0,4,5
 388.418 -22 388.418 -22 274.655 98.9062 c 0,6,7
 203.398 176.864 203.398 176.864 202.5 272 c 0,8,9
 202.5 339.648 202.5 339.648 262.323 350.812 c 0,10,11
 269.483 351.839 269.483 351.839 274.5 352 c 0,12,13
 323.479 352 323.479 352 341.331 307.638 c 0,14,15
 346.138 293.562 346.138 293.562 346.5 280 c 0,16,17
 344.824 249.379 344.824 249.379 314.5 216 c 1,18,19
 386.363 74.3877 386.363 74.3877 566.599 62.7266 c 0,20,21
 578.679 62.0576 578.679 62.0576 588.5 62 c 0,22,23
 754.01 62 754.01 62 856.189 180.162 c 0,24,25
 927.67 265.114 927.67 265.114 928.5 372 c 0,26,27
 928.5 513.885 928.5 513.885 830.14 606.137 c 0,28,29
 751.95 677.146 751.95 677.146 644.5 678 c 0,30,31
 461.423 676.273 461.423 676.273 360.5 556 c 1,32,33
 345.979 544.521 345.979 544.521 322.5 544 c 1,34,35
 277.277 552.05 277.277 552.05 276.5 608 c 2,36,-1
 276.5 1158 l 2,37,38
 276.5 1211.02 276.5 1211.02 307.719 1219.03 c 0,39,40
 321.003 1221.83 321.003 1221.83 338.5 1222 c 2,41,-1
 896.5 1222 l 1,42,43
 956.18 1217.88 956.18 1217.88 958.5 1178 c 1,44,45
 956.32 1138.11 956.32 1138.11 896.5 1138 c 2,46,-1
 378.5 1138 l 1,47,-1
 378.5 690 l 1,48,49
 513.765 761.648 513.765 761.648 646.5 762 c 0,50,51
 840.32 762 840.32 762 953.439 607.227 c 0,52,53
 1029.79 500.625 1029.79 500.625 1030.5 372 c 0,0,1
EndSplineSet
EndChar

StartChar: six
Encoding: 54 54 25
Width: 1233
VWidth: 2000
GlyphClass: 2
Flags: W
HStem: -22 84<548.502 700.498 548.502 727.498> 690 88<587.502 718.498> 1160 84<641.502 776.498>
VStem: 204.502 122<415 507 415 800> 850.498 142<1028 1060> 926.498 102<283 460>
LayerCount: 2
Fore
SplineSet
1028.5 378 m 0,0,1
 1028.5 182.177 1028.5 182.177 874.719 64.0059 c 0,2,3
 761.568 -21.2578 761.568 -21.2578 620.502 -22 c 0,4,5
 410.062 -22 410.062 -22 297.901 168.932 c 0,6,7
 204.976 329.817 204.976 329.817 204.502 598 c 0,8,9
 204.502 915.946 204.502 915.946 400.69 1103.06 c 0,10,11
 549.664 1243.09 549.664 1243.09 738.498 1244 c 0,12,13
 930.549 1244 930.549 1244 980.209 1117.94 c 0,14,15
 992.139 1085.63 992.139 1085.63 992.498 1052 c 0,16,17
 992.498 990.659 992.498 990.659 938.759 978.062 c 0,18,19
 928.858 976.203 928.858 976.203 920.498 976 c 0,20,21
 866.248 976 866.248 976 852.898 1027.12 c 0,22,23
 850.498 1036.3 850.498 1036.3 850.498 1046 c 0,24,25
 852.648 1079.79 852.648 1079.79 878.498 1106 c 1,26,27
 822.009 1159.15 822.009 1159.15 736.498 1160 c 0,28,29
 565.069 1160 565.069 1160 440.875 1001.14 c 0,30,31
 328.07 854.601 328.07 854.601 304.502 626 c 1,32,33
 473.057 777.337 473.057 777.337 638.502 778 c 0,34,35
 820.568 778 820.568 778 936.769 637.245 c 0,36,37
 1027.72 524.765 1027.72 524.765 1028.5 378 c 0,0,1
926.498 378 m 0,38,39
 926.498 533.824 926.498 533.824 812.559 626.281 c 0,40,41
 732.599 689.248 732.599 689.248 628.502 690 c 0,42,43
 469.127 690 469.127 690 379.6 581.297 c 0,44,45
 327.298 515.589 327.298 515.589 326.502 438 c 0,46,47
 326.947 361.769 326.947 361.769 344.502 304 c 0,48,49
 415.405 84.8398 415.405 84.8398 587.129 63.9824 c 0,50,51
 604.519 62.1123 604.519 62.1123 620.502 62 c 0,52,53
 768.459 62 768.459 62 859.698 177.92 c 0,54,55
 925.769 264.241 925.769 264.241 926.498 378 c 0,38,39
EndSplineSet
EndChar

StartChar: seven
Encoding: 55 55 26
Width: 1233
VWidth: 2000
GlyphClass: 2
Flags: W
HStem: -22 42G<472.502 510.502> 1138 84<288.502 902.498 288.502 984.498>
VStem: 186.502 102<1105 1138 1105 1190 1105 1205> 446.502 102<43 166>
LayerCount: 2
Fore
SplineSet
1046.5 1178 m 1,0,1
 1045.09 1163.49 1045.09 1163.49 1038.5 1154 c 1,2,3
 549.768 674.43 549.768 674.43 548.502 34 c 1,4,5
 543.241 -19.8477 543.241 -19.8477 498.502 -22 c 1,6,7
 446.614 -20.1982 446.614 -20.1982 446.502 54 c 0,8,9
 446.502 421.633 446.502 421.633 641.871 779.503 c 0,10,11
 748.158 972.782 748.158 972.782 902.498 1138 c 1,12,-1
 288.502 1138 l 1,13,14
 288.502 1061.06 288.502 1061.06 269.552 1047.88 c 0,15,16
 256.23 1040.43 256.23 1040.43 236.502 1040 c 1,17,18
 187.347 1048.05 187.347 1048.05 186.502 1104 c 2,19,-1
 186.502 1190 l 2,20,21
 186.502 1247.36 186.502 1247.36 220.435 1254.49 c 0,22,23
 228.947 1255.83 228.947 1255.83 236.502 1256 c 0,24,25
 274.051 1252.23 274.051 1252.23 288.502 1222 c 1,26,-1
 984.498 1222 l 1,27,28
 1044.18 1217.88 1044.18 1217.88 1046.5 1178 c 1,0,1
EndSplineSet
EndChar

StartChar: eight
Encoding: 56 56 27
Width: 1233
VWidth: 2000
GlyphClass: 2
Flags: W
HStem: -22 84<524.502 708.498 524.502 740.498> 610 102<534.502 698.498 534.502 718.498> 1160 84<528.502 703.498>
VStem: 186.502 102<265 409 265 413> 214.502 102<879 990 870 1013> 916.498 102<879 990> 944.498 102<265 409>
LayerCount: 2
Fore
SplineSet
1046.5 340 m 0,0,1
 1046.5 180.004 1046.5 180.004 905.778 71.6846 c 0,2,3
 782.658 -21.2744 782.658 -21.2744 616.502 -22 c 0,4,5
 406.796 -22 406.796 -22 278.017 117.206 c 0,6,7
 187.403 217.358 187.403 217.358 186.502 340 c 1,8,9
 190.486 573.249 190.486 573.249 484.502 658 c 1,10,11
 252.457 734.639 252.457 734.639 220.802 873.57 c 0,12,13
 214.689 902.425 214.689 902.425 214.502 934 c 0,14,15
 214.502 1066.94 214.502 1066.94 344.187 1160.84 c 0,16,17
 460.457 1243.31 460.457 1243.31 616.502 1244 c 0,18,19
 818.219 1244 818.219 1244 939.139 1117.24 c 0,20,21
 1017.56 1032.89 1017.56 1032.89 1018.5 934 c 0,22,23
 1018.5 794.954 1018.5 794.954 882.799 715.974 c 0,24,25
 827.349 684.284 827.349 684.284 750.498 658 c 1,26,27
 1044.75 570.374 1044.75 570.374 1046.5 340 c 0,0,1
916.498 932 m 0,28,29
 916.498 1037.24 916.498 1037.24 806.948 1107.22 c 0,30,31
 722.959 1159.39 722.959 1159.39 616.502 1160 c 0,32,33
 451.468 1160 451.468 1160 362.966 1052.66 c 0,34,35
 317.321 995.206 317.321 995.206 316.502 932 c 0,36,37
 316.502 820.648 316.502 820.648 437.576 755.056 c 0,38,39
 518.311 712.521 518.311 712.521 616.502 712 c 0,40,41
 781.599 712 781.599 712 868.669 810.369 c 0,42,43
 915.669 865.73 915.669 865.73 916.498 932 c 0,28,29
944.498 342 m 0,44,45
 944.498 466.904 944.498 466.904 830.578 547.183 c 0,46,47
 739.919 609.354 739.919 609.354 616.502 610 c 0,48,49
 434.403 610 434.403 610 339.823 486.735 c 0,50,51
 289.255 418.742 289.255 418.742 288.502 342 c 0,52,53
 288.502 205.458 288.502 205.458 413.244 121.613 c 0,54,55
 503.255 62.6426 503.255 62.6426 616.502 62 c 0,56,57
 785.498 62 785.498 62 883.118 178.187 c 0,58,59
 943.688 252.505 943.688 252.505 944.498 342 c 0,44,45
EndSplineSet
EndChar

StartChar: nine
Encoding: 57 57 28
Width: 1233
VWidth: 2000
GlyphClass: 2
Flags: W
HStem: -22 84<510.502 624.502 510.502 652.502> 444 88<514.502 645.502> 1160 84<542.502 671.499>
VStem: 204.502 102<762 940 762 963> 520.502 102 908.498 120<722 800> 926.498 102
LayerCount: 2
Fore
SplineSet
1028.5 624 m 0,0,1
 1028.5 309.996 1028.5 309.996 845.549 122.304 c 0,2,3
 703.639 -21.0273 703.639 -21.0273 520.502 -22 c 0,4,5
 286.647 -22 286.647 -22 246.664 124.478 c 0,6,7
 240.502 147.056 240.502 147.056 240.502 170 c 0,8,9
 240.502 231.341 240.502 231.341 294.246 243.938 c 0,10,11
 304.142 245.797 304.142 245.797 312.502 246 c 0,12,13
 366.752 246 366.752 246 380.104 194.883 c 0,14,15
 382.271 184.629 382.271 184.629 382.502 176 c 0,16,17
 382.502 148 382.502 148 357.729 115.636 c 2,18,-1
 356.502 114 l 1,19,20
 425.835 62 425.835 62 520.502 62 c 0,21,22
 698.998 62 698.998 62 816.818 243.278 c 0,23,24
 909.229 387.564 909.229 387.564 926.498 594 c 1,25,26
 759.879 444.667 759.879 444.667 594.502 444 c 0,27,28
 412.431 444 412.431 444 296.238 584.755 c 0,29,30
 205.284 697.235 205.284 697.235 204.502 844 c 0,31,32
 204.502 1041.12 204.502 1041.12 363.006 1158.96 c 0,33,34
 478.607 1243.28 478.607 1243.28 622.502 1244 c 0,35,36
 833.089 1244 833.089 1244 941.599 1047.27 c 0,37,38
 1028.06 887.845 1028.06 887.845 1028.5 624 c 0,0,1
908.498 784 m 1,39,-1
 902.498 862 l 1,40,41
 902.498 905.678 902.498 905.678 860.688 994.031 c 0,42,43
 840.599 1035.32 840.599 1035.32 818.498 1064 c 0,44,45
 738.009 1158.75 738.009 1158.75 622.502 1160 c 0,46,47
 474.272 1160 474.272 1160 379.065 1047.3 c 0,48,49
 307.288 959.943 307.288 959.943 306.502 844 c 0,50,51
 306.502 688.176 306.502 688.176 420.447 595.719 c 0,52,53
 500.404 532.752 500.404 532.752 604.502 532 c 0,54,55
 771.639 532 771.639 532 860.828 649.773 c 0,56,57
 907.748 713.782 907.748 713.782 908.498 784 c 1,39,-1
EndSplineSet
EndChar

StartChar: colon
Encoding: 58 58 29
Width: 1233
VWidth: 2000
GlyphClass: 2
Flags: W
HStem: 0 218<587.5 645.5 584.5 648.5> 632 218<587.5 645.5 584.5 648.5>
VStem: 507.5 218<81 137 713 769>
LayerCount: 2
Fore
SplineSet
725.5 740 m 0,0,1
 725.5 674.988 725.5 674.988 666.973 644.38 c 0,2,3
 642.051 632.492 642.051 632.492 615.5 632 c 0,4,5
 549.936 632 549.936 632 519.521 691.404 c 0,6,7
 507.5 714.882 507.5 714.882 507.5 742 c 0,8,9
 507.5 807.012 507.5 807.012 566.027 837.62 c 0,10,11
 590.949 849.508 590.949 849.508 617.5 850 c 0,12,13
 683.064 850 683.064 850 713.479 790.596 c 0,14,15
 725.016 765.904 725.016 765.904 725.5 740 c 0,0,1
725.5 108 m 0,16,17
 725.5 42.9883 725.5 42.9883 666.973 12.3799 c 0,18,19
 642.051 0.492188 642.051 0.492188 615.5 0 c 0,20,21
 549.936 0 549.936 0 519.521 59.4043 c 0,22,23
 507.5 82.8818 507.5 82.8818 507.5 110 c 0,24,25
 507.5 175.012 507.5 175.012 566.027 205.62 c 0,26,27
 590.949 217.508 590.949 217.508 617.5 218 c 0,28,29
 683.064 218 683.064 218 713.479 158.596 c 0,30,31
 725.016 133.904 725.016 133.904 725.5 108 c 0,16,17
EndSplineSet
EndChar

StartChar: semicolon
Encoding: 59 59 30
Width: 1233
VWidth: 2000
GlyphClass: 2
Flags: W
HStem: -288 42G<514.499 547.499> 0 218<608.499 664.499> 632 218<602.499 660.499 599.499 663.499>
VStem: 522.499 218<713 769>
LayerCount: 2
Fore
SplineSet
740.498 740 m 0,0,1
 740.498 674.988 740.498 674.988 681.972 644.38 c 0,2,3
 657.05 632.492 657.05 632.492 630.498 632 c 0,4,5
 564.935 632 564.935 632 534.52 691.404 c 0,6,7
 522.498 714.882 522.498 714.882 522.498 742 c 0,8,9
 522.498 807.012 522.498 807.012 581.025 837.62 c 0,10,11
 605.947 849.508 605.947 849.508 632.498 850 c 0,12,13
 698.062 850 698.062 850 728.478 790.596 c 0,14,15
 740.015 765.904 740.015 765.904 740.498 740 c 0,0,1
750.502 36 m 0,16,17
 750.502 -139.375 750.502 -139.375 610.668 -246.469 c 0,18,19
 556.442 -288 556.442 -288 526.498 -288 c 0,20,21
 494.414 -288 494.414 -288 484.229 -253.523 c 0,22,23
 482.754 -246.713 482.754 -246.713 482.498 -242 c 0,24,25
 484.394 -222.833 484.394 -222.833 504.498 -210 c 0,26,27
 597.854 -158.654 597.854 -158.654 637.181 -78.0615 c 0,28,29
 654.399 -42.7725 654.399 -42.7725 664.498 0 c 1,30,31
 534.39 15.0137 534.39 15.0137 522.498 110 c 1,32,33
 522.498 178.015 522.498 178.015 583.179 207.326 c 0,34,35
 606.467 217.544 606.467 217.544 630.498 218 c 0,36,37
 719.34 218 719.34 218 743.571 106.674 c 0,38,39
 750.302 73.542 750.302 73.542 750.502 36 c 0,16,17
EndSplineSet
EndChar

StartChar: less
Encoding: 60 60 31
Width: 1233
VWidth: 2000
GlyphClass: 2
Flags: W
HStem: 116 42G<962.498 982.498> 1068 40G<962.498 982.498>
LayerCount: 2
Fore
SplineSet
1022.5 168 m 0,0,1
 1022.5 126.415 1022.5 126.415 981.748 117.271 c 0,2,3
 975.118 116.188 975.118 116.188 970.498 116 c 0,4,5
 950.488 118.096 950.488 118.096 926.498 134 c 2,6,-1
 238.502 566 l 1,7,8
 211.988 587.468 211.988 587.468 210.502 612 c 1,9,10
 212.219 641.693 212.219 641.693 246.502 662 c 2,11,-1
 926.498 1090 l 2,12,13
 955.278 1107.79 955.278 1107.79 970.498 1108 c 0,14,15
 1010.49 1108 1010.49 1108 1020.63 1070.55 c 0,16,17
 1022.28 1062.48 1022.28 1062.48 1022.5 1056 c 0,18,19
 1020.62 1028.08 1020.62 1028.08 982.498 1004 c 2,20,-1
 360.502 612 l 1,21,-1
 982.498 220 l 1,22,23
 1020.7 193.233 1020.7 193.233 1022.5 168 c 0,0,1
EndSplineSet
EndChar

StartChar: equal
Encoding: 61 61 32
Width: 1233
VWidth: 2000
GlyphClass: 2
Flags: W
HStem: 404 102<247.502 258.502 258.502 974.498> 718 102<237.502 974.498 258.502 974.498 974.498 985.498 258.502 986.498>
LayerCount: 2
Fore
SplineSet
1058.5 770 m 1,0,1
 1056.92 718.142 1056.92 718.142 986.498 718 c 2,2,-1
 246.502 718 l 1,3,4
 177.352 722.214 177.352 722.214 174.502 770 c 1,5,6
 176.14 819.902 176.14 819.902 258.502 820 c 2,7,-1
 974.498 820 l 1,8,9
 1055.68 816.513 1055.68 816.513 1058.5 770 c 1,0,1
1058.5 454 m 1,10,11
 1056.87 404.098 1056.87 404.098 974.498 404 c 2,12,-1
 258.502 404 l 1,13,14
 177.326 407.487 177.326 407.487 174.502 454 c 1,15,16
 176.082 505.858 176.082 505.858 246.502 506 c 2,17,-1
 986.498 506 l 1,18,19
 1055.65 501.786 1055.65 501.786 1058.5 454 c 1,10,11
EndSplineSet
EndChar

StartChar: greater
Encoding: 62 62 33
Width: 1233
VWidth: 2000
GlyphClass: 2
Flags: W
HStem: 116 42G<250.502 270.502> 1068 40G<250.502 270.502>
LayerCount: 2
Fore
SplineSet
1022.5 612 m 1,0,1
 1020.79 582.307 1020.79 582.307 986.498 562 c 2,2,-1
 304.502 134 l 2,3,4
 277.872 116.225 277.872 116.225 262.502 116 c 0,5,6
 222.511 116 222.511 116 212.373 153.451 c 0,7,8
 210.502 160.365 210.502 160.365 210.502 168 c 0,9,10
 212.382 195.916 212.382 195.916 250.502 220 c 2,11,-1
 872.498 612 l 1,12,-1
 250.502 1004 l 1,13,14
 212.301 1030.77 212.301 1030.77 210.502 1056 c 0,15,16
 210.502 1097.58 210.502 1097.58 251.258 1106.73 c 0,17,18
 257.883 1107.81 257.883 1107.81 262.502 1108 c 0,19,20
 282.517 1105.9 282.517 1105.9 306.502 1090 c 2,21,-1
 994.498 658 l 1,22,23
 1021.02 636.532 1021.02 636.532 1022.5 612 c 1,0,1
EndSplineSet
EndChar

StartChar: question
Encoding: 63 63 34
Width: 1233
VWidth: 2000
GlyphClass: 2
Flags: W
HStem: 0 166<561.498 608.498> 82 84 1150 84<553.498 710.502>
VStem: 224.498 142<977 1008 976 1057> 522.498 124<436 442 442 478 416 507> 884.502 124 908.502 100<967 1033>
LayerCount: 2
Fore
SplineSet
1008.5 998 m 0,0,1
 1006.71 884.662 1006.71 884.662 884.502 816 c 0,2,3
 647.327 686.303 647.327 686.303 646.498 478 c 2,4,-1
 646.498 442 l 2,5,6
 646.498 389.727 646.498 389.727 615.211 382.548 c 0,7,8
 602.324 380.131 602.324 380.131 584.498 380 c 0,9,10
 532.85 380 532.85 380 525.479 413.28 c 0,11,12
 522.506 429.243 522.506 429.243 522.498 468 c 0,13,14
 522.498 635.733 522.498 635.733 640.454 755.54 c 0,15,16
 709.342 824.309 709.342 824.309 812.502 882 c 1,17,18
 895.791 925.455 895.791 925.455 906.411 976.904 c 0,19,20
 908.502 987.028 908.502 987.028 908.502 998 c 0,21,22
 908.502 1078.38 908.502 1078.38 794.172 1120.83 c 0,23,24
 713.901 1149.68 713.901 1149.68 596.498 1150 c 0,25,26
 423.135 1148.29 423.135 1148.29 338.498 1058 c 1,27,28
 365.811 1023.27 365.811 1023.27 366.498 998 c 0,29,30
 366.498 944.806 366.498 944.806 316.279 929.088 c 0,31,32
 305.429 926.287 305.429 926.287 296.498 926 c 0,33,34
 246.076 926 246.076 926 229.159 973.631 c 0,35,36
 224.815 987.998 224.815 987.998 224.498 1002 c 0,37,38
 224.498 1125.67 224.498 1125.67 357.77 1189.3 c 0,39,40
 453.113 1233.6 453.113 1233.6 596.498 1234 c 0,41,42
 924.422 1234 924.422 1234 994.441 1065.99 c 0,43,44
 1008.14 1031.53 1008.14 1031.53 1008.5 998 c 0,0,1
668.502 82 m 0,45,46
 668.502 23.4639 668.502 23.4639 613.467 4.70312 c 0,47,48
 598.531 0.3125 598.531 0.3125 584.498 0 c 0,49,50
 526.692 0 526.692 0 507.428 53.4277 c 0,51,52
 502.83 68.2197 502.83 68.2197 502.498 82 c 0,53,54
 502.498 142.163 502.498 142.163 556.561 161.277 c 0,55,56
 569.918 166 569.918 166 584.498 166 c 0,57,58
 644.894 166 644.894 166 663.775 110.968 c 0,59,60
 668.182 96.0605 668.182 96.0605 668.502 82 c 0,45,46
EndSplineSet
EndChar

StartChar: at
Encoding: 64 64 35
Width: 1233
VWidth: 2000
GlyphClass: 2
Flags: W
HStem: -12 84<588.502 742.498 588.502 793.498> 220 84<716.498 814.498> 918 84<719.498 800.498 690.498 817.498> 1150 84<591.502 734.498>
VStem: 186.502 74<457 771 457 792> 490.502 74<523 704 523 722> 972.498 74<519 701>
LayerCount: 2
Fore
SplineSet
1046.5 144 m 1,0,1
 1046.5 101.416 1046.5 101.416 952.679 50.7158 c 0,2,3
 835.578 -11.3633 835.578 -11.3633 706.498 -12 c 0,4,5
 495.933 -12 495.933 -12 344.088 163.616 c 0,6,7
 187.306 347.349 187.306 347.349 186.502 612 c 0,8,9
 186.502 893.22 186.502 893.22 361.08 1077.74 c 0,10,11
 510.166 1232.97 510.166 1232.97 702.498 1234 c 0,12,13
 981.748 1234 981.748 1234 1035.01 844.99 c 0,14,15
 1046.5 759.86 1046.5 759.86 1046.5 644 c 0,16,17
 1046.5 347.267 1046.5 347.267 875.299 250.599 c 0,18,19
 820.408 220.546 820.408 220.546 766.498 220 c 0,20,21
 642.085 220 642.085 220 559.468 351.017 c 0,22,23
 491.09 461.836 491.09 461.836 490.502 612 c 0,24,25
 490.502 817.18 490.502 817.18 606.806 931.635 c 0,26,27
 679.599 1001.07 679.599 1001.07 768.498 1002 c 0,28,29
 830.839 1002 830.839 1002 935.948 935.421 c 2,30,-1
 937.948 934.155 l 1,31,-1
 939.998 932.851 l 1,32,-1
 941.998 931.586 l 1,33,-1
 944.498 930 l 1,34,35
 858.809 1149.09 858.809 1149.09 702.498 1150 c 0,36,37
 527.129 1150 527.129 1150 396.418 998.638 c 0,38,39
 261.304 839.718 261.304 839.718 260.502 610 c 0,40,41
 260.502 364.087 260.502 364.087 417.155 202.412 c 0,42,43
 544.741 73.0166 544.741 73.0166 704.498 72 c 1,44,45
 839.479 73.9072 839.479 73.9072 948.498 174 c 1,46,47
 961.669 181.974 961.669 181.974 988.498 182 c 0,48,49
 1043.66 178.203 1043.66 178.203 1046.5 144 c 1,0,1
972.498 610 m 0,50,51
 972.498 782.102 972.498 782.102 871.729 872.975 c 0,52,53
 820.738 917.092 820.738 917.092 766.498 918 c 0,54,55
 681.129 918 681.129 918 618.57 817.071 c 0,56,57
 565.091 728.36 565.091 728.36 564.502 610 c 0,58,59
 564.502 444.789 564.502 444.789 660.618 352.638 c 0,60,61
 712.448 304.964 712.448 304.964 768.498 304 c 0,62,63
 856.488 304 856.488 304 919.698 407.498 c 0,64,65
 971.919 495.387 971.919 495.387 972.498 610 c 0,50,51
EndSplineSet
EndChar

StartChar: A
Encoding: 65 65 36
Width: 1233
VWidth: 2000
GlyphClass: 2
Flags: W
HStem: 0 84<206.502 270.502 249.502 270.502 376.502 418.502 814.498 856.498 962.498 983.498> 342 84<454.502 778.498 454.502 800.498 432.502 778.498> 1162 84<610.502 624.502 610.502 610.502>
LayerCount: 2
Fore
SplineSet
1082.5 42 m 1,0,1
 1080.23 0.0859375 1080.23 0.0859375 1012.5 0 c 2,2,-1
 802.498 0 l 1,3,4
 740.658 7.18262 740.658 7.18262 736.498 42 c 1,5,6
 736.498 76.7363 736.498 76.7363 782.868 81.9297 c 0,7,8
 803.828 83.9971 803.828 83.9971 856.498 84 c 1,9,-1
 800.498 342 l 1,10,-1
 432.502 342 l 1,11,-1
 376.502 84 l 1,12,13
 475.502 84 475.502 84 489.564 66.2812 c 0,14,15
 495.995 55.6934 495.995 55.6934 496.502 42 c 1,16,17
 491.312 0.323242 491.312 0.323242 430.502 0 c 2,18,-1
 218.502 0 l 1,19,20
 152.96 3.59766 152.96 3.59766 150.502 42 c 1,21,22
 152.842 69.752 152.842 69.752 174.502 82 c 1,23,24
 189.115 83.998 189.115 83.998 270.502 84 c 1,25,-1
 524.502 1184 l 2,26,27
 538.713 1239.07 538.713 1239.07 580.418 1244.6 c 0,28,29
 593.15 1245.99 593.15 1245.99 616.502 1246 c 0,30,31
 675.299 1246 675.299 1246 691.108 1224.45 c 0,32,33
 701.618 1208.35 701.618 1208.35 708.498 1182 c 2,34,-1
 962.498 84 l 1,35,36
 1043.6 83.875 1043.6 83.875 1056.5 82 c 1,37,38
 1081.54 69.334 1081.54 69.334 1082.5 42 c 1,0,1
778.498 426 m 1,39,-1
 624.502 1162 l 1,40,-1
 610.502 1162 l 1,41,-1
 454.502 426 l 1,42,-1
 778.498 426 l 1,39,-1
EndSplineSet
EndChar

StartChar: B
Encoding: 66 66 37
Width: 1233
VWidth: 2000
GlyphClass: 2
Flags: W
HStem: 0 84<214.502 304.502 226.502 304.502 404.502 688.498 688.498 734.498> 594 84<404.502 638.502 638.502 650.499 404.502 638.502> 1138 84<224.502 226.502 226.502 304.502 404.502 404.502 404.502 684.498>
VStem: 304.502 100<84 594 678 1138> 926.498 100<874 958> 968.498 102<273 391 248 393>
LayerCount: 2
Fore
SplineSet
1070.5 324 m 0,0,1
 1070.5 178.678 1070.5 178.678 961.398 81.6738 c 0,2,3
 867.908 0.799805 867.908 0.799805 734.498 0 c 2,4,-1
 224.502 0 l 1,5,6
 165.06 3.93457 165.06 3.93457 162.502 42 c 1,7,8
 164.797 83.8984 164.797 83.8984 226.502 84 c 2,9,-1
 304.502 84 l 1,10,-1
 304.502 1138 l 1,11,-1
 226.502 1138 l 1,12,13
 164.87 1141.82 164.87 1141.82 162.502 1180 c 1,14,15
 164.504 1221.88 164.504 1221.88 224.502 1222 c 2,16,-1
 692.498 1222 l 2,17,18
 882.688 1222 882.688 1222 977.198 1080.2 c 0,19,20
 1026.5 1006.22 1026.5 1006.22 1026.5 922 c 0,21,22
 1022.51 724.35 1022.51 724.35 770.498 638 c 1,23,24
 1068.81 564.167 1068.81 564.167 1070.5 324 c 0,0,1
926.498 920 m 0,25,26
 926.498 1024.2 926.498 1024.2 846.959 1087.86 c 0,27,28
 782.498 1137.32 782.498 1137.32 684.498 1138 c 2,29,-1
 404.502 1138 l 1,30,-1
 404.502 678 l 1,31,-1
 638.502 678 l 2,32,33
 834.559 678 834.559 678 903.608 823.105 c 0,34,35
 926.028 871.983 926.028 871.983 926.498 920 c 0,25,26
968.498 328 m 0,36,37
 968.498 445.634 968.498 445.634 860.589 527.038 c 0,38,39
 770.368 593.288 770.368 593.288 650.498 594 c 2,40,-1
 404.502 594 l 1,41,-1
 404.502 84 l 1,42,-1
 688.498 84 l 2,43,44
 867.608 84 867.608 84 939.868 217.403 c 0,45,46
 967.979 271.237 967.979 271.237 968.498 328 c 0,36,37
EndSplineSet
EndChar

StartChar: C
Encoding: 67 67 38
Width: 1233
VWidth: 2000
GlyphClass: 2
Flags: W
HStem: -22 84<568.5 711.5 568.5 771.5> 1160 84<568.5 706.5 527.5 730.5>
VStem: 178.5 100<450 773 450 794>
LayerCount: 2
Fore
SplineSet
1054.5 326 m 1,0,1
 1054.5 179.015 1054.5 179.015 925.82 72.5498 c 0,2,3
 810.17 -21.1973 810.17 -21.1973 658.5 -22 c 0,4,5
 459.812 -22 459.812 -22 320.173 158.818 c 0,6,7
 179.21 343.763 179.21 343.763 178.5 612 c 0,8,9
 178.5 904.725 178.5 904.725 342.929 1091.33 c 0,10,11
 478.756 1242.92 478.756 1242.92 656.5 1244 c 1,12,13
 802.99 1242.43 802.99 1242.43 930.5 1134 c 1,14,15
 968.6 1204.49 968.6 1204.49 972.5 1220 c 1,16,17
 993.49 1242.66 993.49 1242.66 1012.5 1244 c 1,18,19
 1054.4 1241.71 1054.4 1241.71 1054.5 1180 c 2,20,-1
 1054.5 894 l 2,21,22
 1054.5 842 1054.5 842 1026.61 833.164 c 0,23,24
 1016.62 830 1016.62 830 1002.5 830 c 0,25,26
 974.5 830 974.5 830 965.5 842 c 128,-1,27
 956.5 854 956.5 854 951.11 877.336 c 2,28,-1
 950.5 880 l 1,29,30
 920.04 1062.74 920.04 1062.74 781.57 1132.18 c 0,31,32
 724.99 1159.52 724.99 1159.52 664.5 1160 c 0,33,34
 515.589 1160 515.589 1160 401.092 1008.86 c 0,35,36
 279.215 845.538 279.215 845.538 278.5 612 c 0,37,38
 278.5 345.18 278.5 345.18 427.824 180.465 c 0,39,40
 536.367 63.0967 536.367 63.0967 666.5 62 c 0,41,42
 788.14 62 788.14 62 872.15 144.519 c 0,43,44
 944.24 217.898 944.24 217.898 952.5 334 c 1,45,46
 958.02 373.792 958.02 373.792 1002.5 374 c 1,47,48
 1051.92 368.672 1051.92 368.672 1054.5 326 c 1,0,1
EndSplineSet
EndChar

StartChar: D
Encoding: 68 68 39
Width: 1233
VWidth: 2000
GlyphClass: 2
Flags: W
HStem: 0 84<208.498 285.498 219.498 285.498 387.498 605.498 605.498 645.501> 1138 84<208.498 645.501 219.498 285.498 387.498 387.498 387.498 605.498>
VStem: 285.498 102<84 1138 84 1138> 977.502 100<475 727>
LayerCount: 2
Fore
SplineSet
1077.5 602 m 0,0,1
 1077.5 327.465 1077.5 327.465 936.281 150.202 c 0,2,3
 815.121 1.14453 815.121 1.14453 645.502 0 c 2,4,-1
 219.498 0 l 1,5,6
 157.982 3.81543 157.982 3.81543 155.498 42 c 1,7,8
 157.793 83.8984 157.793 83.8984 219.498 84 c 2,9,-1
 285.498 84 l 1,10,-1
 285.498 1138 l 1,11,-1
 219.498 1138 l 1,12,13
 157.982 1141.63 157.982 1141.63 155.498 1178 c 1,14,15
 157.793 1221.89 157.793 1221.89 219.498 1222 c 2,16,-1
 645.502 1222 l 2,17,18
 848.941 1222 848.941 1222 973.932 1010.78 c 0,19,20
 1076.94 834.516 1076.94 834.516 1077.5 602 c 0,0,1
977.502 602 m 0,21,22
 977.502 835.5 977.502 835.5 863.231 994.886 c 1,23,24
 758.972 1136.76 758.972 1136.76 605.498 1138 c 2,25,-1
 387.498 1138 l 1,26,-1
 387.498 84 l 1,27,-1
 605.498 84 l 2,28,29
 798.911 84 798.911 84 904.752 286.589 c 0,30,31
 977.002 426.979 977.002 426.979 977.502 602 c 0,21,22
EndSplineSet
EndChar

StartChar: E
Encoding: 69 69 40
Width: 1233
VWidth: 2000
GlyphClass: 2
Flags: W
HStem: 0 84<197.502 292.502 208.502 292.502 392.502 986.498> 592 84<392.502 706.498 392.502 706.498> 1138 84<197.502 980.498 208.502 292.502 392.502 392.502 392.502 940.498>
VStem: 292.502 100<84 592 676 1138> 706.498 100<548 592 676 720> 940.498 102<1006 1138 1138 1138> 986.498 102<84 248>
LayerCount: 2
Fore
SplineSet
1088.5 64 m 2,0,1
 1088.5 10.9824 1088.5 10.9824 1057.28 2.96875 c 0,2,3
 1044 0.165039 1044 0.165039 1026.5 0 c 2,4,-1
 208.502 0 l 1,5,6
 146.985 3.81543 146.985 3.81543 144.502 42 c 1,7,8
 146.797 83.8984 146.797 83.8984 208.502 84 c 2,9,-1
 292.502 84 l 1,10,-1
 292.502 1138 l 1,11,-1
 208.502 1138 l 1,12,13
 146.985 1141.82 146.985 1141.82 144.502 1180 c 1,14,15
 146.62 1221.89 146.62 1221.89 208.502 1222 c 2,16,-1
 980.498 1222 l 2,17,18
 1032.97 1222 1032.97 1222 1040.13 1188.25 c 0,19,20
 1042.38 1175.33 1042.38 1175.33 1042.5 1158 c 2,21,-1
 1042.5 1006 l 2,22,23
 1042.5 952.527 1042.5 952.527 1011.27 944.346 c 0,24,25
 1000.89 942.209 1000.89 942.209 990.498 942 c 0,26,27
 941.349 950.05 941.349 950.05 940.498 1006 c 2,28,-1
 940.498 1138 l 1,29,-1
 392.502 1138 l 1,30,-1
 392.502 676 l 1,31,-1
 706.498 676 l 1,32,33
 706.498 770.297 706.498 770.297 723.278 784.828 c 0,34,35
 735.998 793.527 735.998 793.527 756.498 794 c 1,36,37
 805.658 785.95 805.658 785.95 806.498 730 c 2,38,-1
 806.498 538 l 2,39,40
 806.498 484.527 806.498 484.527 776.469 476.346 c 0,41,42
 767.858 474 767.858 474 756.498 474 c 0,43,44
 715.908 474 715.908 474 709.459 513.868 c 0,45,46
 706.509 534.801 706.509 534.801 706.498 592 c 1,47,-1
 392.502 592 l 1,48,-1
 392.502 84 l 1,49,-1
 986.498 84 l 1,50,-1
 986.498 248 l 2,51,52
 986.498 301.473 986.498 301.473 1017.74 309.654 c 0,53,54
 1028.12 311.791 1028.12 311.791 1038.5 312 c 1,55,56
 1087.15 300.637 1087.15 300.637 1088.5 248 c 2,57,-1
 1088.5 64 l 2,0,1
EndSplineSet
EndChar

StartChar: F
Encoding: 70 70 41
Width: 1233
VWidth: 2000
GlyphClass: 2
Flags: W
HStem: 0 84<212.502 313.502 223.502 313.502 415.502 543.502> 568 86<415.502 737.498 415.502 737.498> 1138 84<212.502 1011.5 223.502 313.502 415.502 973.498 415.502 415.502>
VStem: 313.502 102<84 568 654 1138> 737.498 102<524 568 654 698> 973.498 100<1006 1138 1138 1138>
LayerCount: 2
Fore
SplineSet
1073.5 1006 m 2,0,1
 1073.5 952.527 1073.5 952.527 1043.47 944.346 c 0,2,3
 1034.86 942 1034.86 942 1023.5 942 c 0,4,5
 974.349 950.05 974.349 950.05 973.498 1006 c 2,6,-1
 973.498 1138 l 1,7,-1
 415.502 1138 l 1,8,-1
 415.502 654 l 1,9,-1
 737.498 654 l 1,10,11
 737.498 748.297 737.498 748.297 754.948 762.828 c 0,12,13
 768.089 771.544 768.089 771.544 789.498 772 c 1,14,15
 838.658 763.95 838.658 763.95 839.498 708 c 2,16,-1
 839.498 514 l 2,17,18
 839.498 458.875 839.498 458.875 806.009 451.602 c 0,19,20
 797.309 450.174 797.309 450.174 789.498 450 c 0,21,22
 747.278 450 747.278 450 740.578 489.868 c 0,23,24
 737.509 510.801 737.509 510.801 737.498 568 c 1,25,-1
 415.502 568 l 1,26,-1
 415.502 84 l 1,27,-1
 543.502 84 l 1,28,29
 603.182 80.0654 603.182 80.0654 605.502 42 c 1,30,31
 603.317 0.113281 603.317 0.113281 543.502 0 c 2,32,-1
 223.502 0 l 1,33,34
 161.985 3.81543 161.985 3.81543 159.502 42 c 1,35,36
 161.797 83.8984 161.797 83.8984 223.502 84 c 2,37,-1
 313.502 84 l 1,38,-1
 313.502 1138 l 1,39,-1
 223.502 1138 l 1,40,41
 161.985 1141.63 161.985 1141.63 159.502 1178 c 1,42,43
 161.797 1221.89 161.797 1221.89 223.502 1222 c 2,44,-1
 1011.5 1222 l 2,45,46
 1064.89 1222 1064.89 1222 1071.41 1188.25 c 0,47,48
 1073.4 1175.63 1073.4 1175.63 1073.5 1158 c 2,49,-1
 1073.5 1006 l 2,0,1
EndSplineSet
EndChar

StartChar: G
Encoding: 71 71 42
Width: 1233
VWidth: 2000
GlyphClass: 2
Flags: W
HStem: -22 84<521.5 658.5> 432 84<746.5 1005.5 757.5 867.5 971.5 1000.5> 1160 84<527.5 644.5 483.5 650.5>
VStem: 163.5 100<451 775 451 792> 869.5 102<77 122> 871.5 100
LayerCount: 2
Fore
SplineSet
1069.5 476 m 1,0,1
 1069.5 435.896 1069.5 435.896 1010.55 432.646 c 0,2,3
 996.71 432.003 996.71 432.003 971.5 432 c 1,4,-1
 971.5 64 l 2,5,6
 971.5 8.875 971.5 8.875 938 1.60156 c 0,7,8
 929.3 0.173828 929.3 0.173828 921.5 0 c 0,9,10
 879.51 0 879.51 0 872.67 41.1221 c 0,11,12
 869.5 62.749 869.5 62.749 869.5 122 c 1,13,14
 744.09 -20.8828 744.09 -20.8828 603.5 -22 c 0,15,16
 421.561 -22 421.561 -22 293.491 158.818 c 0,17,18
 164.151 343.842 164.151 343.842 163.5 612 c 0,19,20
 163.5 908.58 163.5 908.58 318.706 1095.92 c 0,21,22
 442.696 1242.85 442.696 1242.85 603.5 1244 c 1,23,24
 732.36 1242.14 732.36 1242.14 853.5 1138 c 1,25,26
 893.2 1230.63 893.2 1230.63 911.67 1240.15 c 0,27,28
 920.61 1243.65 920.61 1243.65 929.5 1244 c 0,29,30
 971.4 1241.71 971.4 1241.71 971.5 1180 c 2,31,-1
 971.5 894 l 2,32,33
 971.5 842 971.5 842 943.61 833.164 c 0,34,35
 933.62 830 933.62 830 919.5 830 c 0,36,37
 878.67 832.458 878.67 832.458 871.5 862 c 1,38,39
 832.82 1103.77 832.82 1103.77 670.939 1151.26 c 0,40,41
 640.34 1159.74 640.34 1159.74 611.5 1160 c 0,42,43
 481.019 1160 481.019 1160 378.121 1013.96 c 0,44,45
 264.159 849.727 264.159 849.727 263.5 610 c 0,46,47
 263.5 341.986 263.5 341.986 400.091 176.756 c 0,48,49
 496.101 63.208 496.101 63.208 609.5 62 c 0,50,51
 761.47 62 761.47 62 830.1 254.948 c 0,52,53
 856.91 331.966 856.91 331.966 867.5 432 c 1,54,-1
 757.5 432 l 1,55,56
 697.939 436.122 697.939 436.122 695.5 476 c 1,57,58
 697.68 515.893 697.68 515.893 757.5 516 c 2,59,-1
 1005.5 516 l 1,60,61
 1067.02 512.366 1067.02 512.366 1069.5 476 c 1,0,1
EndSplineSet
EndChar

StartChar: H
Encoding: 72 72 43
Width: 1233
VWidth: 2000
GlyphClass: 2
Flags: W
HStem: 0 84<191.498 274.498 202.498 274.498 376.498 448.498 784.502 856.502 958.502 1030.5> 594 84<376.498 856.502 376.498 856.502> 1138 84<191.498 448.498 202.498 274.498 376.498 376.498 376.498 448.498 784.502 856.502 958.502 958.502 958.502 1030.5>
VStem: 274.498 102<84 594 84 678 678 1138> 856.502 102<84 594 594 594 678 1138 84 1138>
LayerCount: 2
Fore
SplineSet
1092.5 42 m 1,0,1
 1090.31 0.113281 1090.31 0.113281 1030.5 0 c 2,2,-1
 784.502 0 l 1,3,4
 724.821 4.12207 724.821 4.12207 722.502 44 c 1,5,6
 724.682 83.8926 724.682 83.8926 784.502 84 c 2,7,-1
 856.502 84 l 1,8,-1
 856.502 594 l 1,9,-1
 376.498 594 l 1,10,-1
 376.498 84 l 1,11,-1
 448.498 84 l 1,12,13
 508.179 80.0654 508.179 80.0654 510.498 42 c 1,14,15
 508.314 0.113281 508.314 0.113281 448.498 0 c 2,16,-1
 202.498 0 l 1,17,18
 142.938 3.93457 142.938 3.93457 140.498 42 c 1,19,20
 142.862 83.8955 142.862 83.8955 202.498 84 c 2,21,-1
 274.498 84 l 1,22,-1
 274.498 1138 l 1,23,-1
 202.498 1138 l 1,24,25
 142.938 1141.75 142.938 1141.75 140.498 1178 c 1,26,27
 142.862 1221.89 142.862 1221.89 202.498 1222 c 2,28,-1
 448.498 1222 l 1,29,30
 508.179 1217.88 508.179 1217.88 510.498 1178 c 1,31,32
 508.314 1138.11 508.314 1138.11 448.498 1138 c 2,33,-1
 376.498 1138 l 1,34,-1
 376.498 678 l 1,35,-1
 856.502 678 l 1,36,-1
 856.502 1138 l 1,37,-1
 784.502 1138 l 1,38,39
 724.821 1141.93 724.821 1141.93 722.502 1180 c 1,40,41
 724.682 1221.89 724.682 1221.89 784.502 1222 c 2,42,-1
 1030.5 1222 l 1,43,44
 1090.18 1217.88 1090.18 1217.88 1092.5 1178 c 1,45,46
 1090.31 1138.11 1090.31 1138.11 1030.5 1138 c 2,47,-1
 958.502 1138 l 1,48,-1
 958.502 84 l 1,49,-1
 1030.5 84 l 1,50,51
 1090.18 80.0654 1090.18 80.0654 1092.5 42 c 1,0,1
EndSplineSet
EndChar

StartChar: I
Encoding: 73 73 44
Width: 1233
VWidth: 2000
GlyphClass: 2
Flags: W
HStem: 0 84<310.498 565.498 321.498 565.498 667.498 911.502> 1138 84<310.498 911.502 321.498 565.498 667.498 667.498 667.498 911.502>
VStem: 565.498 102<84 1138 84 1138>
LayerCount: 2
Fore
SplineSet
975.502 42 m 1,0,1
 973.382 0.109375 973.382 0.109375 911.502 0 c 2,2,-1
 321.498 0 l 1,3,4
 259.982 3.99707 259.982 3.99707 257.498 44 c 1,5,6
 259.617 83.8955 259.617 83.8955 321.498 84 c 2,7,-1
 565.498 84 l 1,8,-1
 565.498 1138 l 1,9,-1
 321.498 1138 l 1,10,11
 259.982 1141.82 259.982 1141.82 257.498 1180 c 1,12,13
 259.617 1221.89 259.617 1221.89 321.498 1222 c 2,14,-1
 911.502 1222 l 1,15,16
 973.012 1218 973.012 1218 975.502 1178 c 1,17,18
 973.382 1138.1 973.382 1138.1 911.502 1138 c 2,19,-1
 667.498 1138 l 1,20,-1
 667.498 84 l 1,21,-1
 911.502 84 l 1,22,23
 973.012 80.1846 973.012 80.1846 975.502 42 c 1,0,1
EndSplineSet
EndChar

StartChar: J
Encoding: 74 74 45
Width: 1233
VWidth: 2000
GlyphClass: 2
Flags: W
HStem: -22 84<529.502 560.502 529.502 624.502> 184 84 1138 84<566.502 952.498 578.502 768.498 870.498 952.498 870.498 870.498>
VStem: 216.502 142<178 209 178 210> 768.498 102<268 1138>
LayerCount: 2
Fore
SplineSet
1016.5 1180 m 1,0,1
 1014.21 1138.1 1014.21 1138.1 952.498 1138 c 2,2,-1
 870.498 1138 l 1,3,-1
 870.498 256 l 2,4,5
 870.498 99.6211 870.498 99.6211 723.608 21.8799 c 0,6,7
 639.5 -21.501 639.5 -21.501 538.502 -22 c 0,8,9
 332.669 -22 332.669 -22 250.71 84.4648 c 0,10,11
 217.204 130.203 217.204 130.203 216.502 184 c 1,12,13
 228.334 251.672 228.334 251.672 288.502 260 c 1,14,15
 339.465 260 339.465 260 355.062 211.872 c 0,16,17
 358.502 201.257 358.502 201.257 358.502 190 c 0,18,19
 356.618 163.529 356.618 163.529 334.502 134 c 1,20,21
 415.009 62.043 415.009 62.043 538.502 62 c 0,22,23
 676.688 62 676.688 62 736.349 150.312 c 0,24,25
 767.919 199.595 767.919 199.595 768.498 268 c 2,26,-1
 768.498 1138 l 1,27,-1
 578.502 1138 l 1,28,29
 516.87 1141.82 516.87 1141.82 514.502 1180 c 1,30,31
 516.62 1221.89 516.62 1221.89 578.502 1222 c 2,32,-1
 952.498 1222 l 1,33,34
 1014.02 1218.18 1014.02 1218.18 1016.5 1180 c 1,0,1
EndSplineSet
EndChar

StartChar: K
Encoding: 75 75 46
Width: 1233
VWidth: 2000
GlyphClass: 2
Flags: W
HStem: 0 84<203.5 277.5 215.5 277.5 357.5 423.5 866.5 895.5 981.5 1010.5> 1138 84<203.5 423.5 215.5 277.5 357.5 357.5 357.5 423.5 825.5 857.5 953.5 987.5>
VStem: 277.5 80<84 388 508 1138>
LayerCount: 2
Fore
SplineSet
1081.5 42 m 0,0,1
 1079.27 0.0986328 1079.27 0.0986328 1015.5 0 c 2,2,-1
 861.5 0 l 1,3,4
 799.87 3.99707 799.87 3.99707 797.5 44 c 1,5,6
 797.5 80.9902 797.5 80.9902 859.41 83.5479 c 0,7,8
 872.46 83.9971 872.46 83.9971 895.5 84 c 1,9,-1
 573.5 660 l 1,10,-1
 357.5 388 l 1,11,-1
 357.5 84 l 1,12,-1
 423.5 84 l 1,13,14
 485.131 80.1846 485.131 80.1846 487.5 42 c 1,15,16
 485.381 0.109375 485.381 0.109375 423.5 0 c 2,17,-1
 215.5 0 l 1,18,19
 153.869 3.99707 153.869 3.99707 151.5 44 c 1,20,21
 153.619 83.8955 153.619 83.8955 215.5 84 c 2,22,-1
 277.5 84 l 1,23,-1
 277.5 1138 l 1,24,-1
 215.5 1138 l 1,25,26
 153.869 1141.82 153.869 1141.82 151.5 1180 c 1,27,28
 153.619 1221.89 153.619 1221.89 215.5 1222 c 2,29,-1
 423.5 1222 l 1,30,31
 485.131 1218 485.131 1218 487.5 1178 c 1,32,33
 485.381 1138.1 485.381 1138.1 423.5 1138 c 2,34,-1
 357.5 1138 l 1,35,-1
 357.5 508 l 1,36,-1
 857.5 1138 l 1,37,38
 766.48 1138 766.48 1138 753.87 1159.64 c 0,39,40
 749.93 1168.69 749.93 1168.69 749.5 1178 c 0,41,42
 751.62 1221.89 751.62 1221.89 813.5 1222 c 2,43,-1
 995.5 1222 l 1,44,45
 1057.02 1218.18 1057.02 1218.18 1059.5 1180 c 1,46,47
 1059.5 1143.27 1059.5 1143.27 1006.66 1139.16 c 0,48,49
 989.561 1138 989.561 1138 953.5 1138 c 1,50,-1
 623.5 722 l 1,51,-1
 981.5 84 l 1,52,53
 1064.06 84 1064.06 84 1076.67 62.4961 c 0,54,55
 1081.07 52.6582 1081.07 52.6582 1081.5 42 c 0,0,1
EndSplineSet
EndChar

StartChar: L
Encoding: 76 76 47
Width: 1233
VWidth: 2000
GlyphClass: 2
Flags: W
HStem: 0 84<216.5 324.5 228.5 324.5 426.5 966.5> 1138 84<216.5 562.5 228.5 324.5 426.5 426.5 426.5 562.5>
VStem: 324.5 102<84 1138 84 1138> 966.5 100<84 248>
LayerCount: 2
Fore
SplineSet
1066.5 64 m 2,0,1
 1066.5 10.6777 1066.5 10.6777 1036.12 2.96875 c 0,2,3
 1022.67 0.161133 1022.67 0.161133 1004.5 0 c 2,4,-1
 228.5 0 l 1,5,6
 168.82 3.93457 168.82 3.93457 166.5 42 c 1,7,8
 168.864 83.8955 168.864 83.8955 228.5 84 c 2,9,-1
 324.5 84 l 1,10,-1
 324.5 1138 l 1,11,-1
 228.5 1138 l 1,12,13
 168.82 1141.75 168.82 1141.75 166.5 1178 c 1,14,15
 168.864 1221.89 168.864 1221.89 228.5 1222 c 2,16,-1
 562.5 1222 l 1,17,18
 624.016 1218 624.016 1218 626.5 1178 c 1,19,20
 624.381 1138.1 624.381 1138.1 562.5 1138 c 2,21,-1
 426.5 1138 l 1,22,-1
 426.5 84 l 1,23,-1
 966.5 84 l 1,24,-1
 966.5 248 l 2,25,26
 966.5 300 966.5 300 993.32 308.836 c 0,27,28
 1004.46 311.744 1004.46 311.744 1016.5 312 c 1,29,30
 1065.15 300.637 1065.15 300.637 1066.5 248 c 2,31,-1
 1066.5 64 l 2,0,1
EndSplineSet
EndChar

StartChar: M
Encoding: 77 77 48
Width: 1233
VWidth: 2000
GlyphClass: 2
Flags: W
HStem: 0 84<181.5 240.5 204.5 240.5 316.5 351.5 882.5 918.5 992.5 1028.5> 422 84<614.5 618.5 614.5 626.5> 1138 84<204.5 240.5 316.5 319.5 192.5 330.5 316.5 316.5 992.5 1028.5>
VStem: 240.5 76<84 1138 84 1138> 918.5 74<84 1138 84 1138>
LayerCount: 2
Fore
SplineSet
1102.5 42 m 0,0,1
 1100.32 0.113281 1100.32 0.113281 1040.5 0 c 2,2,-1
 870.5 0 l 1,3,4
 810.939 3.93457 810.939 3.93457 808.5 42 c 1,5,6
 808.5 78.5488 808.5 78.5488 861.6 82.7598 c 0,7,8
 879.54 83.9971 879.54 83.9971 918.5 84 c 1,9,-1
 918.5 1138 l 1,10,-1
 904.5 1138 l 1,11,-1
 682.5 456 l 2,12,13
 670.57 423.27 670.57 423.27 616.5 422 c 1,14,15
 567.604 424.141 567.604 424.141 556.5 448 c 1,16,-1
 330.5 1138 l 1,17,-1
 316.5 1138 l 1,18,-1
 316.5 84 l 1,19,20
 406.031 84 406.031 84 418.938 64.2383 c 0,21,22
 424.5 55.7188 424.5 55.7188 424.5 42 c 0,23,24
 422.316 0.113281 422.316 0.113281 362.5 0 c 2,25,-1
 192.5 0 l 1,26,27
 132.939 3.93457 132.939 3.93457 130.5 42 c 1,28,29
 130.5 78.5488 130.5 78.5488 183.6 82.7598 c 0,30,31
 201.539 83.9971 201.539 83.9971 240.5 84 c 1,32,-1
 240.5 1138 l 1,33,34
 150.363 1138 150.363 1138 136.816 1156.7 c 0,35,36
 130.989 1167.19 130.989 1167.19 130.5 1180 c 0,37,38
 132.684 1221.89 132.684 1221.89 192.5 1222 c 2,39,-1
 308.5 1222 l 1,40,41
 383.676 1219.47 383.676 1219.47 396.5 1186 c 2,42,-1
 614.5 506 l 1,43,-1
 618.5 506 l 1,44,-1
 826.5 1154 l 2,45,46
 843.6 1207.73 843.6 1207.73 883.16 1217.74 c 0,47,48
 901.59 1221.8 901.59 1221.8 924.5 1222 c 2,49,-1
 1040.5 1222 l 1,50,51
 1100.06 1218.07 1100.06 1218.07 1102.5 1180 c 1,52,53
 1102.5 1143.45 1102.5 1143.45 1049.4 1139.24 c 0,54,55
 1031.46 1138 1031.46 1138 992.5 1138 c 1,56,-1
 992.5 84 l 1,57,58
 1082.64 84 1082.64 84 1096.18 65.2969 c 0,59,60
 1102.01 54.8125 1102.01 54.8125 1102.5 42 c 0,0,1
EndSplineSet
EndChar

StartChar: N
Encoding: 78 78 49
Width: 1233
VWidth: 2000
GlyphClass: 2
Flags: W
HStem: 0 84<202.498 288.498 214.498 288.498 362.498 434.498 856.502 870.502> 1138 84<202.498 356.498 214.498 288.498 362.498 379.498 214.498 380.498 362.498 362.498 798.502 870.502 944.502 1018.5 944.502 944.502>
VStem: 214.498 74<84 1138 84 1138> 288.498 74<84 1138 84 1138> 870.502 74<84 1138> 944.502 74<64 1138>
LayerCount: 2
Fore
SplineSet
1080.5 1178 m 1,0,1
 1078.31 1138.11 1078.31 1138.11 1018.5 1138 c 2,2,-1
 944.502 1138 l 1,3,-1
 944.502 64 l 2,4,5
 944.502 9.60254 944.502 9.60254 914.201 2.54883 c 0,6,7
 901.172 0.0722656 901.172 0.0722656 878.502 0 c 0,8,9
 816.941 0 816.941 0 795.231 31.0283 c 0,10,11
 786.691 44.3193 786.691 44.3193 780.502 60 c 2,12,-1
 380.498 1138 l 1,13,-1
 362.498 1138 l 1,14,-1
 362.498 84 l 1,15,-1
 434.498 84 l 1,16,17
 494.179 80.0654 494.179 80.0654 496.498 42 c 1,18,19
 494.314 0.113281 494.314 0.113281 434.498 0 c 2,20,-1
 214.498 0 l 1,21,22
 154.818 4.12207 154.818 4.12207 152.498 44 c 1,23,24
 154.683 83.8926 154.683 83.8926 214.498 84 c 2,25,-1
 288.498 84 l 1,26,-1
 288.498 1138 l 1,27,-1
 214.498 1138 l 1,28,29
 154.818 1141.93 154.818 1141.93 152.498 1180 c 1,30,31
 154.683 1221.89 154.683 1221.89 214.498 1222 c 2,32,-1
 356.498 1222 l 2,33,34
 416.328 1222 416.328 1222 437.858 1190.66 c 0,35,36
 446.162 1177.57 446.162 1177.57 452.498 1162 c 2,37,-1
 852.502 84 l 1,38,-1
 870.502 84 l 1,39,-1
 870.502 1138 l 1,40,-1
 798.502 1138 l 1,41,42
 738.941 1141.75 738.941 1141.75 736.502 1178 c 1,43,44
 738.861 1221.89 738.861 1221.89 798.502 1222 c 2,45,-1
 1018.5 1222 l 1,46,47
 1078.18 1217.88 1078.18 1217.88 1080.5 1178 c 1,0,1
EndSplineSet
EndChar

StartChar: O
Encoding: 79 79 50
Width: 1233
VWidth: 2000
GlyphClass: 2
Flags: W
HStem: -22 84<517.502 716.498 517.502 799.498> 1160 84<524.502 700.498>
VStem: 210.502 102<571 693 571 899> 920.498 102<563 692>
LayerCount: 2
Fore
SplineSet
1022.5 610 m 0,0,1
 1022.5 233.406 1022.5 233.406 979.118 122.377 c 0,2,3
 938.259 17.8105 938.259 17.8105 819.898 -7.66016 c 0,4,5
 751.229 -21.9062 751.229 -21.9062 616.502 -22 c 0,6,7
 399.575 -22 399.575 -22 327.091 25.5859 c 0,8,9
 242.158 81.3438 242.158 81.3438 222.049 269.556 c 0,10,11
 210.547 379.729 210.547 379.729 210.502 610 c 0,12,13
 210.502 985.292 210.502 985.292 252.135 1096.27 c 0,14,15
 291.842 1202.11 291.842 1202.11 407.419 1228.55 c 0,16,17
 476.982 1243.9 476.982 1243.9 616.502 1244 c 0,18,19
 834.118 1244 834.118 1244 906.868 1195.15 c 0,20,21
 991.488 1138.32 991.488 1138.32 1011.31 947.381 c 0,22,23
 1022.46 837.45 1022.46 837.45 1022.5 610 c 0,0,1
920.498 628 m 0,24,25
 920.099 913.891 920.099 913.891 894.498 1012 c 0,26,27
 865.408 1118.1 865.408 1118.1 773.578 1144.68 c 0,28,29
 718.658 1159.85 718.658 1159.85 616.502 1160 c 0,30,31
 439.894 1160 439.894 1160 385.271 1103.68 c 0,32,33
 351.543 1066.83 351.543 1066.83 336.502 998 c 0,34,35
 312.503 897.896 312.503 897.896 312.502 628 c 0,36,37
 312.886 332.191 312.886 332.191 338.502 224 c 0,38,39
 363.062 118.206 363.062 118.206 441.916 86.2285 c 0,40,41
 503.694 62.2598 503.694 62.2598 616.502 62 c 0,42,43
 803.828 62 803.828 62 858.509 137.492 c 0,44,45
 884.129 174.674 884.129 174.674 896.498 238 c 0,46,47
 920.498 351.995 920.498 351.995 920.498 628 c 0,24,25
EndSplineSet
EndChar

StartChar: P
Encoding: 80 80 51
Width: 1233
VWidth: 2000
GlyphClass: 2
Flags: W
HStem: 0 84<220.498 315.498 231.498 315.498 415.498 499.498> 506 86<415.498 655.501 655.501 695.502 415.498 655.501> 1138 84<220.498 695.502 231.498 315.498 415.498 415.498 415.498 655.501>
VStem: 315.498 100<84 506 84 592 592 1138> 963.502 102<805 923>
LayerCount: 2
Fore
SplineSet
1065.5 864 m 0,0,1
 1065.5 701.984 1065.5 701.984 942.291 594.93 c 0,2,3
 838.432 506.801 838.432 506.801 695.502 506 c 2,4,-1
 415.498 506 l 1,5,-1
 415.498 84 l 1,6,-1
 499.498 84 l 1,7,8
 561.015 80.1846 561.015 80.1846 563.498 42 c 1,9,10
 561.38 0.109375 561.38 0.109375 499.498 0 c 2,11,-1
 231.498 0 l 1,12,13
 169.982 3.81543 169.982 3.81543 167.498 42 c 1,14,15
 169.793 83.8984 169.793 83.8984 231.498 84 c 2,16,-1
 315.498 84 l 1,17,-1
 315.498 1138 l 1,18,-1
 231.498 1138 l 1,19,20
 169.982 1141.82 169.982 1141.82 167.498 1180 c 1,21,22
 169.617 1221.89 169.617 1221.89 231.498 1222 c 2,23,-1
 695.502 1222 l 2,24,25
 885.831 1222 885.831 1222 994.521 1075.88 c 0,26,27
 1064.77 979.301 1064.77 979.301 1065.5 864 c 0,0,1
963.502 864 m 0,28,29
 963.502 985.294 963.502 985.294 866.562 1067.31 c 0,30,31
 781.312 1137.25 781.312 1137.25 655.502 1138 c 2,32,-1
 415.498 1138 l 1,33,-1
 415.498 592 l 1,34,-1
 655.502 592 l 2,35,36
 845.382 592 845.382 592 927.701 734.782 c 0,37,38
 962.932 797.786 962.932 797.786 963.502 864 c 0,28,29
EndSplineSet
EndChar

StartChar: Q
Encoding: 81 81 52
Width: 1233
VWidth: 2000
GlyphClass: 2
Flags: W
HStem: -288 42G<918.498 930.498 930.498 948.498> -22 84<600.502 629.502> 1160 84<513.502 716.498>
VStem: 210.502 102<554 669 554 899> 920.498 102<563 668>
LayerCount: 2
Fore
SplineSet
1022.5 610 m 0,0,1
 1022.26 377.647 1022.26 377.647 1008.5 266 c 1,2,3
 991.538 100.592 991.538 100.592 928.148 42.6826 c 0,4,5
 898.129 16.4629 898.129 16.4629 854.498 -2 c 1,6,-1
 932.498 -146 l 2,7,8
 994.498 -264.363 994.498 -264.363 994.498 -268 c 0,9,10
 991.858 -287.92 991.858 -287.92 948.498 -288 c 2,11,-1
 930.498 -288 l 2,12,13
 886.839 -286.287 886.839 -286.287 876.498 -272 c 1,14,-1
 744.498 -20 l 1,15,16
 707.278 -21.998 707.278 -21.998 616.502 -22 c 0,17,18
 399.575 -22 399.575 -22 327.091 25.5859 c 0,19,20
 242.158 81.3438 242.158 81.3438 222.049 269.556 c 0,21,22
 210.547 379.729 210.547 379.729 210.502 610 c 0,23,24
 210.502 985.292 210.502 985.292 252.135 1096.27 c 0,25,26
 291.842 1202.11 291.842 1202.11 407.419 1228.55 c 0,27,28
 476.982 1243.9 476.982 1243.9 616.502 1244 c 0,29,30
 834.118 1244 834.118 1244 906.868 1195.15 c 0,31,32
 991.488 1138.32 991.488 1138.32 1011.31 947.381 c 0,33,34
 1022.46 837.45 1022.46 837.45 1022.5 610 c 0,0,1
920.498 612 m 0,35,36
 920.209 866.225 920.209 866.225 902.498 974 c 0,37,38
 880.328 1096.79 880.328 1096.79 804.248 1132.42 c 0,39,40
 743.139 1159.76 743.139 1159.76 616.502 1160 c 0,41,42
 432.582 1160 432.582 1160 377.986 1092.49 c 0,43,44
 350.22 1056.35 350.22 1056.35 334.502 988 c 0,45,46
 312.503 886.13 312.503 886.13 312.502 610 c 0,47,48
 312.799 355.775 312.799 355.775 330.502 248 c 1,49,50
 353.849 131.269 353.849 131.269 422.955 94.0527 c 0,51,52
 484.591 62.3496 484.591 62.3496 600.502 62 c 2,53,-1
 700.498 62 l 1,54,-1
 584.502 286 l 1,55,-1
 582.502 294 l 1,56,57
 584.902 311.921 584.902 311.921 628.502 312 c 2,58,-1
 652.502 312 l 2,59,60
 680.919 312 680.919 312 689.828 299.95 c 0,61,62
 693.408 294.803 693.408 294.803 696.498 290 c 2,63,-1
 806.498 90 l 1,64,65
 859.629 125.419 859.629 125.419 879.148 174.308 c 0,66,67
 920.318 280.848 920.318 280.848 920.498 612 c 0,35,36
EndSplineSet
EndChar

StartChar: R
Encoding: 82 82 53
Width: 1233
VWidth: 2000
GlyphClass: 2
Flags: W
HStem: 0 84<171.502 254.502 182.502 254.502 356.502 428.502> 568 86<356.502 526.502 526.502 538.502 356.502 526.502> 1138 84<171.502 548.502 182.502 254.502 356.502 356.502 356.502 526.502>
VStem: 254.502 102<84 568 84 654 654 1138> 772.498 102<250 350 226 361> 828.498 100<856 949> 1012.5 100<165 176>
LayerCount: 2
Fore
SplineSet
1112.5 172 m 1,0,1
 1112.5 75.2305 1112.5 75.2305 1050.59 16.0391 c 0,2,3
 1009.18 -21.1436 1009.18 -21.1436 954.498 -22 c 1,4,5
 861.209 -19.9014 861.209 -19.9014 812.498 54 c 1,6,7
 774.108 121.185 774.108 121.185 772.698 254.327 c 0,8,9
 772.498 274.701 772.498 274.701 772.498 314 c 0,10,11
 772.498 433.272 772.498 433.272 745.919 475.359 c 0,12,13
 734.538 492.149 734.538 492.149 720.498 506 c 0,14,15
 647.129 567.98 647.129 567.98 538.502 568 c 2,16,-1
 356.502 568 l 1,17,-1
 356.502 84 l 1,18,-1
 428.502 84 l 1,19,20
 488.182 80.0654 488.182 80.0654 490.502 42 c 1,21,22
 488.317 0.113281 488.317 0.113281 428.502 0 c 2,23,-1
 182.502 0 l 1,24,25
 122.94 3.93457 122.94 3.93457 120.502 42 c 1,26,27
 122.865 83.8955 122.865 83.8955 182.502 84 c 2,28,-1
 254.502 84 l 1,29,-1
 254.502 1138 l 1,30,-1
 182.502 1138 l 1,31,32
 122.94 1141.75 122.94 1141.75 120.502 1178 c 1,33,34
 122.865 1221.89 122.865 1221.89 182.502 1222 c 2,35,-1
 548.502 1222 l 2,36,37
 750.309 1222 750.309 1222 860.979 1083.33 c 0,38,39
 927.729 997.558 927.729 997.558 928.498 896 c 1,40,41
 925.248 718.136 925.248 718.136 736.498 610 c 1,42,43
 828.269 537.775 828.269 537.775 856.498 474 c 0,44,45
 874.158 430.835 874.158 430.835 874.459 330.989 c 0,46,47
 874.498 316.062 874.498 316.062 874.498 288 c 0,48,49
 882.948 72.0635 882.948 72.0635 952.498 62 c 1,50,51
 996.049 62 996.049 62 1010.63 156.606 c 0,52,53
 1012.32 168.834 1012.32 168.834 1012.5 176 c 0,54,55
 1016.49 217.82 1016.49 217.82 1062.5 218 c 1,56,57
 1109.97 212.698 1109.97 212.698 1112.5 172 c 1,0,1
828.498 896 m 0,58,59
 828.498 1002.87 828.498 1002.87 732.498 1075.64 c 0,60,61
 648.549 1137.33 648.549 1137.33 526.502 1138 c 2,62,-1
 356.502 1138 l 1,63,-1
 356.502 654 l 1,64,-1
 526.502 654 l 2,65,66
 713.998 654 713.998 654 794.658 782.947 c 0,67,68
 827.889 838.031 827.889 838.031 828.498 896 c 0,58,59
EndSplineSet
EndChar

StartChar: S
Encoding: 83 83 54
Width: 1233
VWidth: 2000
GlyphClass: 2
Flags: W
HStem: -22 84<633.5 752.5 633.5 775.5> 1160 84<484.5 611.5 458.5 691.5>
VStem: 202.5 94<881 992 881 1009> 936.5 94<254 384 235 409>
LayerCount: 2
Fore
SplineSet
1030.5 322 m 0,0,1
 1030.5 165.583 1030.5 165.583 907.18 62.6719 c 0,2,3
 804.21 -21.2324 804.21 -21.2324 662.5 -22 c 0,4,5
 452.018 -20.6826 452.018 -20.6826 308.5 86 c 1,6,7
 283.47 -7.29297 283.47 -7.29297 263.754 -17.8193 c 0,8,9
 254.373 -21.6338 254.373 -21.6338 244.5 -22 c 0,10,11
 202.602 -19.7051 202.602 -19.7051 202.5 42 c 2,12,-1
 202.5 314 l 2,13,14
 202.5 367.473 202.5 367.473 233.735 375.654 c 0,15,16
 244.116 377.791 244.116 377.791 254.5 378 c 0,17,18
 276.5 378 276.5 378 287.5 369 c 128,-1,19
 298.5 360 298.5 360 300.5 351 c 128,-1,20
 302.5 342 302.5 342 304.457 326.515 c 0,21,22
 313.562 193.739 313.562 193.739 410.5 130 c 0,23,24
 512.222 62.3887 512.222 62.3887 664.5 62 c 0,25,26
 823.26 62 823.26 62 899.86 186.717 c 0,27,28
 935.89 247.352 935.89 247.352 936.5 312 c 0,29,30
 934.97 512.119 934.97 512.119 690.5 566 c 1,31,-1
 454.5 622 l 1,32,33
 286.606 669.674 286.606 669.674 225.697 813.142 c 0,34,35
 202.915 868.832 202.915 868.832 202.5 926 c 0,36,37
 202.5 1072.34 202.5 1072.34 327.875 1167.62 c 0,38,39
 429.841 1243.29 429.841 1243.29 566.5 1244 c 1,40,41
 737.38 1242.22 737.38 1242.22 868.5 1132 c 1,42,43
 894.61 1226.93 894.61 1226.93 912.52 1238.63 c 0,44,45
 922.29 1243.53 922.29 1243.53 932.5 1244 c 0,46,47
 974.4 1241.71 974.4 1241.71 974.5 1180 c 2,48,-1
 974.5 908 l 2,49,50
 974.5 854.527 974.5 854.527 943.26 846.346 c 0,51,52
 932.88 844.209 932.88 844.209 922.5 844 c 0,53,54
 882.72 846.907 882.72 846.907 874.5 874 c 1,55,56
 837.689 1058.03 837.689 1058.03 727.62 1121.23 c 0,57,58
 658.47 1159.49 658.47 1159.49 564.5 1160 c 0,59,60
 412.878 1160 412.878 1160 335.5 1051.57 c 0,61,62
 297.2 995.794 297.2 995.794 296.5 934 c 0,63,64
 296.5 815.833 296.5 815.833 412.094 747.811 c 0,65,66
 443.631 729.863 443.631 729.863 476.5 720 c 1,67,-1
 644.5 682 l 2,68,69
 812.11 643.321 812.11 643.321 864.85 611.286 c 0,70,71
 900.35 588.959 900.35 588.959 936.5 554 c 1,72,73
 1029.25 450.338 1029.25 450.338 1030.5 322 c 0,0,1
EndSplineSet
EndChar

StartChar: T
Encoding: 84 84 55
Width: 1233
VWidth: 2000
GlyphClass: 2
Flags: W
HStem: 0 84<426.5 566.5 438.5 566.5 668.5 796.5> 1138 84<250.5 566.5 250.5 250.5 668.5 982.5 668.5 668.5>
VStem: 148.5 102<1006 1138> 566.5 102<84 1138 84 1138> 982.5 102<1006 1138 1138 1138>
LayerCount: 2
Fore
SplineSet
1084.5 1006 m 2,0,1
 1084.5 952.527 1084.5 952.527 1053.26 944.346 c 0,2,3
 1042.88 942.209 1042.88 942.209 1032.5 942 c 0,4,5
 983.34 950.05 983.34 950.05 982.5 1006 c 2,6,-1
 982.5 1138 l 1,7,-1
 668.5 1138 l 1,8,-1
 668.5 84 l 1,9,-1
 796.5 84 l 1,10,11
 856.18 80.0654 856.18 80.0654 858.5 42 c 1,12,13
 856.32 0.113281 856.32 0.113281 796.5 0 c 2,14,-1
 438.5 0 l 1,15,16
 378.82 4.12207 378.82 4.12207 376.5 44 c 1,17,18
 378.684 83.8926 378.684 83.8926 438.5 84 c 2,19,-1
 566.5 84 l 1,20,-1
 566.5 1138 l 1,21,-1
 250.5 1138 l 1,22,-1
 250.5 1006 l 2,23,24
 250.5 952.527 250.5 952.527 219.265 944.346 c 0,25,26
 208.884 942.209 208.884 942.209 198.5 942 c 0,27,28
 149.345 950.05 149.345 950.05 148.5 1006 c 2,29,-1
 148.5 1158 l 2,30,31
 148.5 1211.67 148.5 1211.67 181.406 1219.31 c 0,32,33
 194.707 1221.86 194.707 1221.86 212.5 1222 c 2,34,-1
 1022.5 1222 l 2,35,36
 1074.97 1222 1074.97 1222 1082.12 1188.25 c 0,37,38
 1084.38 1175.33 1084.38 1175.33 1084.5 1158 c 2,39,-1
 1084.5 1006 l 2,0,1
EndSplineSet
EndChar

StartChar: U
Encoding: 85 85 56
Width: 1233
VWidth: 2000
GlyphClass: 2
Flags: W
HStem: -22 84<557.498 674.502 557.498 714.502> 1138 84<156.498 434.498 168.498 250.498 352.498 352.498 352.498 434.498 798.502 880.502 982.502 1064.5 982.502 982.502>
VStem: 250.498 102<402 412 412 1138> 880.502 102<412 1138>
LayerCount: 2
Fore
SplineSet
1128.5 1180 m 1,0,1
 1126.2 1138.1 1126.2 1138.1 1064.5 1138 c 2,2,-1
 982.502 1138 l 1,3,-1
 982.502 402 l 2,4,5
 982.502 195.644 982.502 195.644 843.132 68.9521 c 0,6,7
 741.831 -21.1182 741.831 -21.1182 616.498 -22 c 0,8,9
 453.084 -22 453.084 -22 343.474 119.189 c 0,10,11
 251.233 240.345 251.233 240.345 250.498 402 c 2,12,-1
 250.498 1138 l 1,13,-1
 168.498 1138 l 1,14,15
 106.867 1141.82 106.867 1141.82 104.498 1180 c 1,16,17
 106.794 1221.9 106.794 1221.9 168.498 1222 c 2,18,-1
 434.498 1222 l 1,19,20
 496.015 1218.18 496.015 1218.18 498.498 1180 c 1,21,22
 496.38 1138.11 496.38 1138.11 434.498 1138 c 2,23,-1
 352.498 1138 l 1,24,-1
 352.498 412 l 2,25,26
 352.498 197.862 352.498 197.862 490.268 103.418 c 0,27,28
 551.638 62.6787 551.638 62.6787 616.498 62 c 0,29,30
 727.691 62 727.691 62 806.571 165.424 c 0,31,32
 879.821 264.056 879.821 264.056 880.502 412 c 2,33,-1
 880.502 1138 l 1,34,-1
 798.502 1138 l 1,35,36
 736.981 1141.82 736.981 1141.82 734.502 1180 c 1,37,38
 736.621 1221.89 736.621 1221.89 798.502 1222 c 2,39,-1
 1064.5 1222 l 1,40,41
 1126.13 1218.18 1126.13 1218.18 1128.5 1180 c 1,0,1
EndSplineSet
EndChar

StartChar: V
Encoding: 86 86 57
Width: 1233
VWidth: 2000
GlyphClass: 2
Flags: W
HStem: -16 84<624.502 624.502 624.502 639.499> 1138 84<208.502 246.502 350.502 392.502 840.498 882.498 986.498 1024.5>
LayerCount: 2
Fore
SplineSet
1100.5 1180 m 1,0,1
 1100.5 1143.62 1100.5 1143.62 1047.13 1139.32 c 0,2,3
 1028.38 1138 1028.38 1138 986.498 1138 c 1,4,-1
 710.498 44 l 2,5,6
 695.809 -11.1094 695.809 -11.1094 646.469 -15.2305 c 0,7,8
 635.198 -15.9941 635.198 -15.9941 616.502 -16 c 0,9,10
 555.675 -16 555.675 -16 538.743 7.4707 c 0,11,12
 528.742 23.0029 528.742 23.0029 522.502 46 c 2,13,-1
 246.502 1138 l 1,14,15
 153.461 1138 153.461 1138 139.379 1156.03 c 0,16,17
 133.019 1166.64 133.019 1166.64 132.502 1180 c 0,18,19
 134.62 1221.89 134.62 1221.89 196.502 1222 c 2,20,-1
 408.502 1222 l 1,21,22
 470.018 1218.18 470.018 1218.18 472.502 1180 c 1,23,24
 472.502 1144.5 472.502 1144.5 421.228 1139.71 c 0,25,26
 400.472 1138 400.472 1138 350.502 1138 c 1,27,-1
 610.502 66 l 1,28,-1
 624.502 68 l 1,29,-1
 882.498 1138 l 1,30,31
 781.969 1138 781.969 1138 767.519 1156.01 c 0,32,33
 761.019 1166.57 761.019 1166.57 760.498 1180 c 0,34,35
 762.618 1221.89 762.618 1221.89 824.498 1222 c 2,36,-1
 1036.5 1222 l 1,37,38
 1098.02 1218.18 1098.02 1218.18 1100.5 1180 c 1,0,1
EndSplineSet
EndChar

StartChar: W
Encoding: 87 87 58
Width: 1233
VWidth: 2000
GlyphClass: 2
Flags: W
HStem: -16 84<412.5 420.5 412.5 425.5 810.5 818.5> 1138 84<167.5 346.5 182.5 194.5 278.5 278.5 278.5 346.5 886.5 954.5 1038.5 1050.5 1050.5 1055.5>
LayerCount: 2
Fore
SplineSet
1114.5 1178 m 1,0,1
 1109.07 1138.23 1109.07 1138.23 1038.5 1138 c 1,2,-1
 888.5 38 l 1,3,4
 878.84 -15.8809 878.84 -15.8809 814.5 -16 c 1,5,6
 758.54 -12.8252 758.54 -12.8252 748.5 20 c 1,7,-1
 618.5 624 l 1,8,-1
 482.5 12 l 1,9,10
 465.179 -15.916 465.179 -15.916 418.5 -16 c 0,11,12
 354.968 -16 354.968 -16 345.23 33.7393 c 0,13,14
 344.691 36.8721 344.691 36.8721 344.5 38 c 2,15,-1
 194.5 1138 l 1,16,-1
 174.5 1138 l 1,17,18
 121.307 1142.13 121.307 1142.13 118.5 1178 c 1,19,20
 120.619 1221.89 120.619 1221.89 182.5 1222 c 2,21,-1
 346.5 1222 l 1,22,23
 406.18 1217.88 406.18 1217.88 408.5 1178 c 1,24,25
 406.316 1138.11 406.316 1138.11 346.5 1138 c 2,26,-1
 278.5 1138 l 1,27,-1
 412.5 68 l 1,28,-1
 420.5 68 l 1,29,-1
 550.5 686 l 2,30,31
 558.5 718 558.5 718 613.958 718.01 c 2,32,-1
 616.5 718 l 1,33,34
 675.189 714.921 675.189 714.921 684.5 684 c 1,35,-1
 810.5 68 l 1,36,-1
 818.5 68 l 1,37,-1
 954.5 1138 l 1,38,-1
 886.5 1138 l 1,39,40
 826.939 1141.75 826.939 1141.75 824.5 1178 c 1,41,42
 826.86 1221.89 826.86 1221.89 886.5 1222 c 2,43,-1
 1050.5 1222 l 1,44,45
 1112.02 1218 1112.02 1218 1114.5 1178 c 1,0,1
EndSplineSet
EndChar

StartChar: X
Encoding: 88 88 59
Width: 1233
VWidth: 2000
GlyphClass: 2
Flags: W
HStem: 0 84<202.5 271.5 213.5 271.5 383.5 418.5 810.5 845.5 957.5 1017.5> 1138 84<227.5 453.5 239.5 299.5 413.5 445.5 752.5 787.5 897.5 897.5 897.5 957.5>
LayerCount: 2
Fore
SplineSet
1081.5 42 m 1,0,1
 1079.38 0.109375 1079.38 0.109375 1017.5 0 c 2,2,-1
 801.5 0 l 1,3,4
 741.939 3.93457 741.939 3.93457 739.5 42 c 1,5,6
 739.5 78.1836 739.5 78.1836 788.7 82.6143 c 0,7,8
 806.42 83.9971 806.42 83.9971 845.5 84 c 1,9,-1
 605.5 554 l 1,10,-1
 383.5 84 l 1,11,12
 474.617 84 474.617 84 487.892 63.9287 c 0,13,14
 493.037 53.7627 493.037 53.7627 493.5 42 c 0,15,16
 491.381 0.109375 491.381 0.109375 429.5 0 c 2,17,-1
 213.5 0 l 1,18,19
 153.939 3.93457 153.939 3.93457 151.5 42 c 1,20,21
 153.864 83.8955 153.864 83.8955 213.5 84 c 2,22,-1
 271.5 84 l 1,23,-1
 557.5 652 l 1,24,-1
 299.5 1138 l 1,25,-1
 239.5 1138 l 1,26,27
 177.869 1141.82 177.869 1141.82 175.5 1180 c 1,28,29
 177.619 1221.89 177.619 1221.89 239.5 1222 c 2,30,-1
 453.5 1222 l 1,31,32
 513.061 1218.07 513.061 1218.07 515.5 1180 c 1,33,34
 515.5 1142.46 515.5 1142.46 460.08 1138.87 c 0,35,36
 444.471 1138 444.471 1138 413.5 1138 c 1,37,-1
 607.5 768 l 1,38,-1
 787.5 1138 l 1,39,40
 697.97 1138 697.97 1138 685.061 1157.76 c 0,41,42
 679.5 1166.28 679.5 1166.28 679.5 1180 c 0,43,44
 681.68 1221.89 681.68 1221.89 741.5 1222 c 2,45,-1
 957.5 1222 l 1,46,47
 1019.02 1218 1019.02 1218 1021.5 1178 c 1,48,49
 1019.38 1138.1 1019.38 1138.1 957.5 1138 c 2,50,-1
 897.5 1138 l 1,51,-1
 653.5 654 l 1,52,-1
 957.5 84 l 1,53,-1
 1017.5 84 l 1,54,55
 1079.02 80.1846 1079.02 80.1846 1081.5 42 c 1,0,1
EndSplineSet
EndChar

StartChar: Y
Encoding: 89 89 60
Width: 1233
VWidth: 2000
GlyphClass: 2
Flags: W
HStem: 0 84<482.498 566.498 494.498 566.498 668.502 740.502> 1138 84<184.498 412.498 196.498 252.498 366.498 401.498 830.502 864.502 980.502 1036.5 980.502 980.502>
VStem: 566.498 102<84 488 84 488>
LayerCount: 2
Fore
SplineSet
1098.5 1178 m 1,0,1
 1096.31 1138.11 1096.31 1138.11 1036.5 1138 c 2,2,-1
 980.502 1138 l 1,3,-1
 668.502 488 l 1,4,-1
 668.502 84 l 1,5,-1
 740.502 84 l 1,6,7
 800.182 80.0654 800.182 80.0654 802.502 42 c 1,8,9
 800.312 0.113281 800.312 0.113281 740.502 0 c 2,10,-1
 494.498 0 l 1,11,12
 434.818 4.12207 434.818 4.12207 432.498 44 c 1,13,14
 434.683 83.8926 434.683 83.8926 494.498 84 c 2,15,-1
 566.498 84 l 1,16,-1
 566.498 488 l 1,17,-1
 252.498 1138 l 1,18,-1
 196.498 1138 l 1,19,20
 136.818 1141.93 136.818 1141.93 134.498 1180 c 1,21,22
 136.683 1221.89 136.683 1221.89 196.498 1222 c 2,23,-1
 412.498 1222 l 1,24,25
 472.06 1218.07 472.06 1218.07 474.498 1180 c 1,26,27
 474.498 1143.06 474.498 1143.06 420.137 1139.09 c 0,28,29
 402.899 1138 402.899 1138 366.498 1138 c 1,30,-1
 618.498 578 l 1,31,-1
 864.502 1138 l 1,32,33
 777.241 1138 777.241 1138 764.252 1157.44 c 0,34,35
 758.502 1166.05 758.502 1166.05 758.502 1180 c 0,36,37
 760.682 1221.89 760.682 1221.89 820.502 1222 c 2,38,-1
 1036.5 1222 l 1,39,40
 1096.18 1217.88 1096.18 1217.88 1098.5 1178 c 1,0,1
EndSplineSet
EndChar

StartChar: Z
Encoding: 90 90 61
Width: 1233
VWidth: 2000
GlyphClass: 2
Flags: W
HStem: 0 84<239.502 941.498 313.502 941.498 313.502 981.498> 1138 84<315.502 909.498 315.502 315.502>
VStem: 213.502 102<1006 1138> 941.498 102<84 254>
LayerCount: 2
Fore
SplineSet
1043.5 64 m 2,0,1
 1043.5 10.6777 1043.5 10.6777 1013.13 2.96875 c 0,2,3
 999.669 0.161133 999.669 0.161133 981.498 0 c 2,4,-1
 253.502 0 l 2,5,6
 198.377 0 198.377 0 191.104 33.4961 c 0,7,8
 189.676 42.1953 189.676 42.1953 189.502 50 c 0,9,10
 191.5 78.1523 191.5 78.1523 207.502 102 c 2,11,-1
 909.498 1138 l 1,12,-1
 315.502 1138 l 1,13,-1
 315.502 1006 l 2,14,15
 315.502 952.527 315.502 952.527 284.267 944.346 c 0,16,17
 273.886 942.209 273.886 942.209 263.502 942 c 0,18,19
 214.347 950.05 214.347 950.05 213.502 1006 c 2,20,-1
 213.502 1158 l 2,21,22
 213.502 1210.55 213.502 1210.55 244.948 1218.75 c 0,23,24
 259.192 1221.85 259.192 1221.85 279.502 1222 c 2,25,-1
 969.498 1222 l 2,26,27
 1024.63 1222 1024.63 1222 1031.9 1188.5 c 0,28,29
 1033.33 1179.8 1033.33 1179.8 1033.5 1172 c 0,30,31
 1031.5 1143.85 1031.5 1143.85 1015.5 1120 c 2,32,-1
 313.502 84 l 1,33,-1
 941.498 84 l 1,34,-1
 941.498 254 l 2,35,36
 941.498 307.473 941.498 307.473 972.738 315.654 c 0,37,38
 983.118 317.791 983.118 317.791 993.498 318 c 1,39,40
 1042.15 306.637 1042.15 306.637 1043.5 254 c 2,41,-1
 1043.5 64 l 2,0,1
EndSplineSet
EndChar

StartChar: bracketleft
Encoding: 91 91 62
Width: 1233
VWidth: 2000
GlyphClass: 2
Flags: W
HStem: -172 86<403.5 803.5 469.5 803.5 469.5 803.5> 1308 86<469.5 803.5 469.5 469.5>
VStem: 367.5 102<-86 1308 -86 1330 -86 1355>
LayerCount: 2
Fore
SplineSet
865.5 -130 m 1,0,1
 863.32 -171.887 863.32 -171.887 803.5 -172 c 2,2,-1
 429.5 -172 l 2,3,4
 377.034 -172 377.034 -172 369.875 -138.25 c 0,5,6
 367.625 -125.329 367.625 -125.329 367.5 -108 c 2,7,-1
 367.5 1330 l 2,8,9
 367.5 1383.32 367.5 1383.32 397.875 1391.03 c 0,10,11
 411.333 1393.84 411.333 1393.84 429.5 1394 c 2,12,-1
 803.5 1394 l 1,13,14
 863.18 1389.88 863.18 1389.88 865.5 1350 c 1,15,16
 863.32 1308.11 863.32 1308.11 803.5 1308 c 2,17,-1
 469.5 1308 l 1,18,-1
 469.5 -86 l 1,19,-1
 803.5 -86 l 1,20,21
 863.18 -90.1221 863.18 -90.1221 865.5 -130 c 1,0,1
EndSplineSet
EndChar

StartChar: backslash
Encoding: 92 92 63
Width: 1233
VWidth: 2000
GlyphClass: 2
Flags: W
HStem: -172 42G<950.5 980.5> 1354 40G<251.5 282.5>
LayerCount: 2
Fore
SplineSet
1018.5 -120 m 0,0,1
 1018.5 -156.498 1018.5 -156.498 982.07 -169.301 c 0,2,3
 973.34 -171.688 973.34 -171.688 966.5 -172 c 0,4,5
 933.7 -170.175 933.7 -170.175 912.5 -128 c 2,6,-1
 228.5 1302 l 2,7,8
 215.381 1325.88 215.381 1325.88 214.5 1342 c 0,9,10
 214.5 1379.09 214.5 1379.09 250.18 1391.3 c 0,11,12
 259.173 1393.7 259.173 1393.7 266.5 1394 c 0,13,14
 299.303 1392.17 299.303 1392.17 320.5 1350 c 2,15,-1
 1004.5 -80 l 1,16,17
 1018.5 -103.333 1018.5 -103.333 1018.5 -120 c 0,0,1
EndSplineSet
EndChar

StartChar: bracketright
Encoding: 93 93 64
Width: 1233
VWidth: 2000
GlyphClass: 2
Flags: W
HStem: -172 86<417.5 763.5 429.5 763.5 429.5 803.5> 1308 86<417.5 803.5 429.5 763.5>
VStem: 763.5 102<-86 1308 1308 1308>
LayerCount: 2
Fore
SplineSet
865.5 -108 m 2,0,1
 865.5 -161.322 865.5 -161.322 835.12 -169.031 c 0,2,3
 821.67 -171.839 821.67 -171.839 803.5 -172 c 2,4,-1
 429.5 -172 l 1,5,6
 369.82 -167.878 369.82 -167.878 367.5 -128 c 1,7,8
 369.684 -86.1133 369.684 -86.1133 429.5 -86 c 2,9,-1
 763.5 -86 l 1,10,-1
 763.5 1308 l 1,11,-1
 429.5 1308 l 1,12,13
 369.82 1312.12 369.82 1312.12 367.5 1352 c 1,14,15
 369.684 1393.89 369.684 1393.89 429.5 1394 c 2,16,-1
 803.5 1394 l 2,17,18
 855.97 1394 855.97 1394 863.12 1360.25 c 0,19,20
 865.38 1347.33 865.38 1347.33 865.5 1330 c 2,21,-1
 865.5 -108 l 2,0,1
EndSplineSet
EndChar

StartChar: asciicircum
Encoding: 94 94 65
Width: 1233
VWidth: 2000
GlyphClass: 2
Flags: W
HStem: 1008 42G<265.502 288.502 944.498 967.498>
LayerCount: 2
Fore
SplineSet
998.498 1050 m 1,0,1
 994.358 1010.01 994.358 1010.01 950.498 1008 c 0,2,3
 932.818 1009 932.818 1009 890.498 1028 c 2,4,-1
 616.502 1148 l 1,5,-1
 342.502 1028 l 2,6,7
 299.191 1008.85 299.191 1008.85 282.502 1008 c 0,8,9
 236.459 1010.97 236.459 1010.97 234.502 1050 c 1,10,11
 237.25 1072.25 237.25 1072.25 278.502 1094 c 2,12,-1
 572.502 1234 l 1,13,14
 617.607 1253.16 617.607 1253.16 660.502 1234 c 2,15,-1
 954.498 1094 l 1,16,17
 995.709 1071.28 995.709 1071.28 998.498 1050 c 1,0,1
EndSplineSet
EndChar

StartChar: underscore
Encoding: 95 95 66
Width: 1233
VWidth: 2000
GlyphClass: 2
Flags: W
HStem: -358 104<278.502 944.498 288.502 944.498>
LayerCount: 2
Fore
SplineSet
1232.5 -306 m 5,0,1
 1230.89 -358 1230.89 -358 1154.5 -358 c 2,2,-1
 78.502 -358 l 1,3,4
 3.33887 -354.102 3.33887 -354.102 0.501953 -306 c 1,5,6
 2.11523 -254 2.11523 -254 78.502 -254 c 2,7,-1
 1154.5 -254 l 1,8,9
 1229.67 -257.898 1229.67 -257.898 1232.5 -306 c 5,0,1
EndSplineSet
EndChar

StartChar: grave
Encoding: 96 96 67
Width: 1233
VWidth: 2000
GlyphClass: 2
Flags: W
HStem: 1010 42G<766.5 786.5> 1204 40G<455.5 470.5>
LayerCount: 2
Fore
SplineSet
814.5 1072 m 0,0,1
 814.5 1023.9 814.5 1023.9 780.439 1012.22 c 0,2,3
 772.73 1010.28 772.73 1010.28 766.5 1010 c 0,4,5
 764.46 1010.74 764.46 1010.74 752.5 1012 c 1,6,-1
 464.5 1140 l 2,7,8
 419.637 1160.88 419.637 1160.88 418.5 1194 c 0,9,10
 418.5 1233.39 418.5 1233.39 457.271 1242.5 c 0,11,12
 464.769 1243.8 464.769 1243.8 470.5 1244 c 0,13,14
 474.019 1242.5 474.019 1242.5 500.5 1236 c 1,15,-1
 776.5 1112 l 2,16,17
 812.77 1094.06 812.77 1094.06 814.5 1072 c 0,0,1
EndSplineSet
EndChar

StartChar: a
Encoding: 97 97 68
Width: 1233
VWidth: 1000
GlyphClass: 2
Flags: W
HStem: -6 42<185.5 225 185.5 232> 0 42<465.5 487> 392 42<205.5 263.5>
VStem: 53 51<99.5 148.5 99.5 169.5> 80 72<369 378.5 369 401.5> 363 51<128 226 226 226 266 284 54 311>
LayerCount: 2
Fore
SplineSet
1031 44 m 1,0,1
 1031 2.03711 1031 2.03711 968.5 0.204102 c 0,2,3
 959.621 0.00292969 959.621 0.00292969 947 0 c 0,4,5
 808.122 0 808.122 0 754.411 45.9619 c 0,6,7
 739.494 59.6182 739.494 59.6182 729 74 c 1,8,9
 596.871 -11.5576 596.871 -11.5576 423 -12 c 0,10,11
 237.189 -12 237.189 -12 146.94 108.995 c 0,12,13
 101.714 171.76 101.714 171.76 101 244 c 0,14,15
 101 441.322 101 441.322 437.887 505.825 c 0,16,17
 562.398 529.276 562.398 529.276 721 532 c 1,18,19
 717.417 782.316 717.417 782.316 437 784 c 1,20,21
 301.609 782.366 301.609 782.366 299 738 c 1,22,23
 286.089 672.98 286.089 672.98 227 664 c 1,24,25
 170.717 664 170.717 664 157.555 716.401 c 0,26,27
 155 726.57 155 726.57 155 738 c 0,28,29
 158.584 867.914 158.584 867.914 435 868 c 0,30,31
 694.753 868 694.753 868 787.818 702.479 c 0,32,33
 822.48 638.849 822.48 638.849 823 568 c 2,34,-1
 823 108 l 1,35,36
 889.52 84.3184 889.52 84.3184 967 84 c 1,37,38
 1028.63 80.3662 1028.63 80.3662 1031 44 c 1,0,1
721 256 m 2,39,-1
 721 452 l 1,40,41
 361.652 441.305 361.652 441.305 242.33 325.535 c 0,42,43
 203.963 286.227 203.963 286.227 203 244 c 0,44,45
 203 153.436 203 153.436 300.243 102.855 c 0,46,47
 360.958 72.4834 360.958 72.4834 437 72 c 0,48,49
 551.411 73.1748 551.411 73.1748 629 110 c 0,50,51
 714.684 149.116 714.684 149.116 720.202 223.254 c 0,52,53
 720.994 235.934 720.994 235.934 721 256 c 2,39,-1
EndSplineSet
EndChar

StartChar: b
Encoding: 98 98 69
Width: 1233
VWidth: 2000
GlyphClass: 2
Flags: W
HStem: -12 84<652.5 754.5 589.5 790.5> 778 84<658.5 775.5> 1138 84<196.5 359.5 209.5 321.5>
VStem: 321.5 100<79 124 321 374 374 526 734 1138 1138 1138> 987.5 100<320 522>
LayerCount: 2
Fore
SplineSet
1087.5 426 m 0,0,1
 1087.5 218.909 1087.5 218.909 939.311 87.6973 c 0,2,3
 825.47 -11.1367 825.47 -11.1367 683.5 -12 c 1,4,5
 553.71 -9.31543 553.71 -9.31543 421.5 124 c 1,6,7
 421.5 24.4619 421.5 24.4619 404.344 9.13574 c 0,8,9
 392.077 0.517578 392.077 0.517578 373.5 0 c 1,10,11
 324.346 17.0469 324.346 17.0469 321.5 64 c 1,12,-1
 321.5 1138 l 1,13,-1
 207.5 1138 l 1,14,15
 147.939 1141.75 147.939 1141.75 145.5 1178 c 1,16,17
 147.795 1221.89 147.795 1221.89 209.5 1222 c 2,18,-1
 359.5 1222 l 2,19,20
 412.887 1222 412.887 1222 419.406 1188.25 c 0,21,22
 421.396 1175.63 421.396 1175.63 421.5 1158 c 2,23,-1
 421.5 734 l 1,24,25
 564.547 861.237 564.547 861.237 705.5 862 c 0,26,27
 874.86 862 874.86 862 989.38 716.929 c 0,28,29
 1086.74 591.274 1086.74 591.274 1087.5 426 c 0,0,1
987.5 426 m 0,30,31
 987.5 600.359 987.5 600.359 871.13 706.433 c 0,32,33
 791.33 777.121 791.33 777.121 693.5 778 c 0,34,35
 565.414 778 565.414 778 479.387 675.415 c 0,36,37
 422.359 605.244 422.359 605.244 421.5 526 c 2,38,-1
 421.5 374 l 2,39,40
 421.5 263.085 421.5 263.085 494.838 167.489 c 1,41,42
 569.796 73.2021 569.796 73.2021 677.5 72 c 0,43,44
 812.29 72 812.29 72 906.48 188.09 c 0,45,46
 986.74 289.4 986.74 289.4 987.5 426 c 0,30,31
EndSplineSet
EndChar

StartChar: c
Encoding: 99 99 70
Width: 1233
VWidth: 2000
GlyphClass: 2
Flags: W
HStem: -12 84<583.498 757.502 583.498 798.502> 784 84<540.498 714.502>
VStem: 230.498 102<326 479 326 513> 834.502 142<716 755>
LayerCount: 2
Fore
SplineSet
1002.5 204 m 1,0,1
 1002.5 161.562 1002.5 161.562 949.951 100.956 c 0,2,3
 849.762 -11.0068 849.762 -11.0068 664.498 -12 c 0,4,5
 462.011 -12 462.011 -12 333.072 142.309 c 0,6,7
 231.301 266.356 231.301 266.356 230.498 426 c 0,8,9
 230.498 595.448 230.498 595.448 340.686 722.61 c 0,10,11
 468.644 867.041 468.644 867.041 688.502 868 c 0,12,13
 943.411 868 943.411 868 973.102 763.229 c 0,14,15
 976.252 750.086 976.252 750.086 976.502 738 c 0,16,17
 976.502 681.7 976.502 681.7 925.432 666.938 c 0,18,19
 914.201 664.259 914.201 664.259 904.502 664 c 0,20,21
 836.571 668.14 836.571 668.14 834.502 744 c 0,22,23
 834.502 769.441 834.502 769.441 727.312 781.554 c 0,24,25
 705.062 783.873 705.062 783.873 688.502 784 c 0,26,27
 444.714 784 444.714 784 361.406 572.154 c 0,28,29
 332.884 498.112 332.884 498.112 332.498 426 c 0,30,31
 332.498 252.733 332.498 252.733 465.029 146.733 c 0,32,33
 559.727 72.7744 559.727 72.7744 676.502 72 c 0,34,35
 732.502 72 732.502 72 774.502 86 c 128,-1,36
 816.502 100 816.502 100 845.502 132 c 128,-1,37
 874.502 164 874.502 164 882.502 176 c 128,-1,38
 890.502 188 890.502 188 907.081 223.02 c 2,39,-1
 908.502 226 l 1,40,41
 922.502 241.69 922.502 241.69 950.502 242 c 1,42,43
 999.361 237.782 999.361 237.782 1002.5 204 c 1,0,1
EndSplineSet
EndChar

StartChar: d
Encoding: 100 100 71
Width: 1233
VWidth: 2000
GlyphClass: 2
Flags: W
HStem: -12 84<459.5 584.5> 0 84<842.5 1025.5 911.5 1023.5> 778 84<478.5 589.5 440.5 627.5> 1138 84<686.5 849.5 699.5 811.5>
VStem: 145.5 100<326 530 326 549> 811.5 100<84 134 380 528 528 590 744 1138 1138 1138>
LayerCount: 2
Fore
SplineSet
1087.5 44 m 1,0,1
 1085.21 0.106445 1085.21 0.106445 1023.5 0 c 2,2,-1
 873.5 0 l 2,3,4
 825.02 0 825.02 0 816.53 34.4717 c 0,5,6
 811.5 57.7256 811.5 57.7256 811.5 134 c 1,7,8
 681.62 1.29785 681.62 1.29785 561.42 -10.4717 c 0,9,10
 544.743 -11.9102 544.743 -11.9102 529.5 -12 c 0,11,12
 359.548 -12 359.548 -12 244.515 132.271 c 0,13,14
 146.262 257.812 146.262 257.812 145.5 424 c 0,15,16
 145.5 631.32 145.5 631.32 292.521 762.303 c 0,17,18
 405.679 861.135 405.679 861.135 547.5 862 c 1,19,20
 675.67 860.055 675.67 860.055 811.5 744 c 1,21,-1
 811.5 1138 l 1,22,-1
 697.5 1138 l 1,23,24
 637.94 1141.75 637.94 1141.75 635.5 1178 c 1,25,26
 637.79 1221.89 637.79 1221.89 699.5 1222 c 2,27,-1
 849.5 1222 l 2,28,29
 902.89 1222 902.89 1222 909.41 1188.25 c 0,30,31
 911.4 1175.63 911.4 1175.63 911.5 1158 c 2,32,-1
 911.5 84 l 1,33,-1
 1025.5 84 l 1,34,35
 1085.06 80.2529 1085.06 80.2529 1087.5 44 c 1,0,1
811.5 380 m 2,36,-1
 811.5 528 l 2,37,38
 811.5 641.615 811.5 641.615 714.66 720.335 c 0,39,40
 643.72 778 643.72 778 555.5 778 c 0,41,42
 420.712 778 420.712 778 326.517 661.91 c 0,43,44
 246.265 560.6 246.265 560.6 245.5 424 c 0,45,46
 245.5 249.078 245.5 249.078 364.028 142.381 c 0,47,48
 443.422 72.8867 443.422 72.8867 537.5 72 c 0,49,50
 678.39 72 678.39 72 762.48 214.399 c 0,51,52
 810.84 298.12 810.84 298.12 811.5 380 c 2,36,-1
EndSplineSet
EndChar

StartChar: e
Encoding: 101 101 72
Width: 1233
VWidth: 2000
GlyphClass: 2
Flags: W
HStem: -12 84<602.5 716.5 602.5 797.5> 394 84<318.5 916.5 318.5 956.5 316.5 916.5> 784 84<561.5 696.5>
LayerCount: 2
Fore
SplineSet
1018.5 204 m 1,0,1
 1018.5 154.787 1018.5 154.787 954.189 91.3652 c 0,2,3
 847.38 -11.0977 847.38 -11.0977 670.5 -12 c 0,4,5
 459.349 -12 459.349 -12 323.673 141.163 c 0,6,7
 215.345 265.732 215.345 265.732 214.5 428 c 0,8,9
 214.5 627.781 214.5 627.781 360.394 759.735 c 0,10,11
 481.42 867.131 481.42 867.131 638.5 868 c 0,12,13
 871.15 868 871.15 868 968.92 674.577 c 0,14,15
 1018.05 575.227 1018.05 575.227 1018.5 450 c 0,16,17
 1018.5 398.443 1018.5 398.443 978.36 394.645 c 0,18,19
 969.55 394.009 969.55 394.009 956.5 394 c 2,20,-1
 316.5 394 l 1,21,22
 354.366 193.31 354.366 193.31 521.021 110.365 c 0,23,24
 599.192 72.4795 599.192 72.4795 684.5 72 c 0,25,26
 837.75 72 837.75 72 909.24 190.619 c 0,27,28
 918.01 205.727 918.01 205.727 924.5 220 c 0,29,30
 936.37 241.699 936.37 241.699 968.5 242 c 1,31,32
 1015.39 237.62 1015.39 237.62 1018.5 204 c 1,0,1
916.5 478 m 1,33,34
 891.15 768.4 891.15 768.4 661.51 783.268 c 0,35,36
 649.183 783.943 649.183 783.943 638.5 784 c 0,37,38
 478.916 784 478.916 784 382.674 639.148 c 0,39,40
 336.29 567.724 336.29 567.724 318.5 478 c 1,41,-1
 916.5 478 l 1,33,34
EndSplineSet
EndChar

StartChar: f
Encoding: 102 102 73
Width: 1233
VWidth: 2000
GlyphClass: 2
Flags: W
HStem: 0 84<281.502 522.502 292.502 522.502 622.502 852.498> 766 84<281.502 522.502 294.502 522.502 294.502 522.502 622.502 896.498> 1150 84<819.498 840.498 749.498 864.498>
VStem: 522.502 100<84 766 84 766 850 968> 864.498 140<1136 1150>
LayerCount: 2
Fore
SplineSet
1004.5 1132 m 0,0,1
 1004.5 1078.33 1004.5 1078.33 953.528 1062.91 c 0,2,3
 942.988 1060.28 942.988 1060.28 934.498 1060 c 0,4,5
 880.068 1060 880.068 1060 866.599 1129.89 c 0,6,7
 864.688 1141.39 864.688 1141.39 864.498 1150 c 1,8,9
 710.469 1150 710.469 1150 659.021 1088.22 c 0,10,11
 623.146 1042.43 623.146 1042.43 622.502 968 c 2,12,-1
 622.502 850 l 1,13,-1
 896.498 850 l 1,14,15
 956.179 845.878 956.179 845.878 958.498 806 c 1,16,17
 956.318 766.107 956.318 766.107 896.498 766 c 2,18,-1
 622.502 766 l 1,19,-1
 622.502 84 l 1,20,-1
 852.498 84 l 1,21,22
 914.019 80.1846 914.019 80.1846 916.498 42 c 1,23,24
 914.379 0.109375 914.379 0.109375 852.498 0 c 2,25,-1
 292.502 0 l 1,26,27
 230.985 3.99707 230.985 3.99707 228.502 44 c 1,28,29
 230.62 83.8955 230.62 83.8955 292.502 84 c 2,30,-1
 522.502 84 l 1,31,-1
 522.502 766 l 1,32,-1
 292.502 766 l 1,33,34
 232.94 769.747 232.94 769.747 230.502 806 c 1,35,36
 232.797 849.894 232.797 849.894 294.502 850 c 2,37,-1
 522.502 850 l 1,38,-1
 522.502 980 l 2,39,40
 522.502 1134.08 522.502 1134.08 670.429 1201.62 c 0,41,42
 741.358 1234 741.358 1234 826.498 1234 c 0,43,44
 1001.2 1230.6 1001.2 1230.6 1004.5 1132 c 0,0,1
EndSplineSet
EndChar

StartChar: g
Encoding: 103 103 74
Width: 1233
VWidth: 2000
GlyphClass: 2
Flags: W
HStem: -474 84<491.498 712.502 491.498 728.502> 8 76<496.498 642.501 642.501 644.501> 240 82<494.498 601.498 480.498 631.498> 780 82<483.498 587.498 451.498 604.498> 790 82 796 76
VStem: 222.498 100<510 615> 542.498 100 862.502 100
LayerCount: 2
Fore
SplineSet
1092.5 782 m 0,0,1
 1092.5 729.681 1092.5 729.681 1043.24 719.356 c 0,2,3
 1035.85 718.18 1035.85 718.18 1030.5 718 c 0,4,5
 987.392 718 987.392 718 969.972 775.979 c 0,6,7
 967.821 783.807 967.821 783.807 966.502 790 c 1,8,9
 877.512 781.493 877.512 781.493 800.502 740 c 1,10,11
 862.502 635.729 862.502 635.729 862.502 552 c 0,12,13
 862.502 399.349 862.502 399.349 739.392 305.718 c 0,14,15
 651.682 240.73 651.682 240.73 542.498 240 c 0,16,17
 442.345 240.559 442.345 240.559 346.498 302 c 1,18,19
 323.227 241.847 323.227 241.847 322.498 212 c 1,20,21
 322.498 212 322.498 212 335.479 157.149 c 1,22,23
 343.495 138.36 343.495 138.36 352.498 126 c 1,24,25
 395.39 89.1914 395.39 89.1914 434.498 88 c 1,26,27
 470.236 84.1992 470.236 84.1992 496.498 84 c 2,28,-1
 642.502 84 l 2,29,30
 828.691 83.7061 828.691 83.7061 932.502 28 c 0,31,32
 1045.06 -32.9697 1045.06 -32.9697 1062.39 -159.807 c 0,33,34
 1064.37 -176.138 1064.37 -176.138 1064.5 -190 c 0,35,36
 1064.5 -329.075 1064.5 -329.075 897.291 -411.659 c 0,37,38
 769.741 -473.539 769.741 -473.539 602.498 -474 c 0,39,40
 360.418 -474 360.418 -474 226.194 -359.77 c 0,41,42
 141.581 -285.434 141.581 -285.434 140.498 -190 c 0,43,44
 140.498 -63.582 140.498 -63.582 262.127 30.9648 c 0,45,46
 283.094 46.8936 283.094 46.8936 304.498 60 c 1,47,48
 247.27 137.702 247.27 137.702 246.498 216 c 0,49,50
 247.692 288.089 247.692 288.089 292.498 356 c 1,51,52
 223.296 449.608 223.296 449.608 222.498 552 c 0,53,54
 222.498 699.745 222.498 699.745 341.508 793.335 c 0,55,56
 430.16 861.248 430.16 861.248 542.498 862 c 0,57,58
 648.342 861.107 648.342 861.107 744.502 796 c 1,59,60
 847.541 871.79 847.541 871.79 962.502 872 c 0,61,62
 1068.04 872 1068.04 872 1089.3 802.876 c 0,63,64
 1092.5 792.473 1092.5 792.473 1092.5 782 c 0,0,1
762.502 552 m 0,65,66
 762.502 667.746 762.502 667.746 669.651 737.254 c 0,67,68
 611.288 779.271 611.288 779.271 542.498 780 c 0,69,70
 428.672 780 428.672 780 362.478 682.122 c 0,71,72
 323.15 621.731 323.15 621.731 322.498 550 c 0,73,74
 322.498 434.254 322.498 434.254 415.343 364.746 c 0,75,76
 473.709 322.728 473.709 322.728 542.498 322 c 0,77,78
 656.321 322 656.321 322 722.521 419.878 c 0,79,80
 761.842 480.269 761.842 480.269 762.502 552 c 0,65,66
984.502 -190 m 0,81,82
 984.502 -20.9424 984.502 -20.9424 706.552 2.77539 c 0,83,84
 643.771 7.96582 643.771 7.96582 546.498 8 c 0,85,86
 387.982 8 387.982 8 348.849 -9.08105 c 0,87,88
 333.228 -16.3135 333.228 -16.3135 314.498 -28 c 0,89,90
 225.073 -89.9443 225.073 -89.9443 220.498 -190 c 1,91,92
 220.498 -272.812 220.498 -272.812 342.465 -334.283 c 0,93,94
 454.422 -389.513 454.422 -389.513 602.498 -390 c 0,95,96
 810.422 -390 810.422 -390 925.972 -292.778 c 0,97,98
 983.281 -242.518 983.281 -242.518 984.502 -190 c 0,81,82
EndSplineSet
EndChar

StartChar: h
Encoding: 104 104 75
Width: 1233
VWidth: 2000
GlyphClass: 2
Flags: W
HStem: 0 84<171.502 296.502 184.502 296.502 396.502 508.502 508.502 510.502 734.498 836.498 936.498 1048.5 1048.5 1050.5> 778 84<623.502 738.498> 1138 84<171.502 334.502 184.502 296.502>
VStem: 296.502 100<84 472 724 1138 1138 1138> 836.498 100<84 574 574 586 84 644>
LayerCount: 2
Fore
SplineSet
1112.5 42 m 1,0,1
 1110.32 0.113281 1110.32 0.113281 1050.5 0 c 2,2,-1
 734.498 0 l 1,3,4
 672.988 3.81543 672.988 3.81543 670.498 42 c 1,5,6
 672.799 83.8984 672.799 83.8984 734.498 84 c 2,7,-1
 836.498 84 l 1,8,-1
 836.498 574 l 2,9,10
 836.498 728.557 836.498 728.557 759.799 763.283 c 0,11,12
 725.618 777.662 725.618 777.662 676.498 778 c 0,13,14
 552.846 778 552.846 778 469.668 684.36 c 0,15,16
 397.271 600.208 397.271 600.208 396.502 472 c 2,17,-1
 396.502 84 l 1,18,-1
 508.502 84 l 1,19,20
 570.133 80.1846 570.133 80.1846 572.502 42 c 1,21,22
 570.317 0.113281 570.317 0.113281 510.502 0 c 2,23,-1
 182.502 0 l 1,24,25
 122.94 3.93457 122.94 3.93457 120.502 42 c 1,26,27
 122.797 83.8984 122.797 83.8984 184.502 84 c 2,28,-1
 296.502 84 l 1,29,-1
 296.502 1138 l 1,30,-1
 182.502 1138 l 1,31,32
 122.94 1141.75 122.94 1141.75 120.502 1178 c 1,33,34
 122.797 1221.89 122.797 1221.89 184.502 1222 c 2,35,-1
 334.502 1222 l 2,36,37
 387.889 1222 387.889 1222 394.407 1188.25 c 0,38,39
 396.397 1175.63 396.397 1175.63 396.502 1158 c 2,40,-1
 396.502 724 l 1,41,42
 539.928 860.966 539.928 860.966 688.498 862 c 0,43,44
 918.648 862 918.648 862 935.288 622.193 c 0,45,46
 936.438 603.599 936.438 603.599 936.498 586 c 2,47,-1
 936.498 84 l 1,48,-1
 1048.5 84 l 1,49,50
 1110.13 80.1846 1110.13 80.1846 1112.5 42 c 1,0,1
EndSplineSet
EndChar

StartChar: i
Encoding: 105 105 76
Width: 1233
VWidth: 2000
GlyphClass: 2
Flags: W
HStem: 0 84<300.5 583.5 311.5 583.5 683.5 921.5> 766 84<316.5 621.5 327.5 583.5> 1044 166<586.5 632.5>
VStem: 527.5 164<1103 1150> 583.5 100<84 766 766 766>
LayerCount: 2
Fore
SplineSet
985.5 42 m 1,0,1
 983.38 0.109375 983.38 0.109375 921.5 0 c 2,2,-1
 311.5 0 l 1,3,4
 249.984 3.81543 249.984 3.81543 247.5 42 c 1,5,6
 249.795 83.8984 249.795 83.8984 311.5 84 c 2,7,-1
 583.5 84 l 1,8,-1
 583.5 766 l 1,9,-1
 327.5 766 l 1,10,11
 265.984 769.815 265.984 769.815 263.5 808 c 1,12,13
 265.619 849.891 265.619 849.891 327.5 850 c 2,14,-1
 621.5 850 l 2,15,16
 674.89 850 674.89 850 681.41 816.25 c 0,17,18
 683.4 803.627 683.4 803.627 683.5 786 c 2,19,-1
 683.5 84 l 1,20,-1
 921.5 84 l 1,21,22
 983.02 80.1846 983.02 80.1846 985.5 42 c 1,0,1
691.5 1126 m 0,23,24
 691.5 1068.19 691.5 1068.19 638.072 1048.93 c 0,25,26
 623.28 1044.33 623.28 1044.33 609.5 1044 c 0,27,28
 551.694 1044 551.694 1044 532.429 1097.43 c 0,29,30
 527.832 1112.22 527.832 1112.22 527.5 1126 c 0,31,32
 527.5 1186.16 527.5 1186.16 581.562 1205.28 c 0,33,34
 596.043 1209.68 596.043 1209.68 609.5 1210 c 0,35,36
 668.036 1210 668.036 1210 686.8 1154.97 c 0,37,38
 691.19 1140.03 691.19 1140.03 691.5 1126 c 0,23,24
EndSplineSet
Substitution2: "sous-table Substitution simple lookups4" dotlessi
EndChar

StartChar: j
Encoding: 106 106 77
Width: 1233
VWidth: 2000
GlyphClass: 2
Flags: W
HStem: -472 86<535.502 610.502 535.502 714.499> -386 86 766 84<525.502 864.498 538.502 826.498> 1044 166<819.498 865.498>
VStem: 306.502 142<-332 -311> 438.502 100 760.498 164<1103 1150> 826.498 100<-102 766 766 766>
LayerCount: 2
Fore
SplineSet
926.498 -112 m 2,0,1
 926.498 -263.583 926.498 -263.583 832.868 -367.37 c 1,2,3
 736.469 -471.091 736.469 -471.091 572.502 -472 c 1,4,5
 314.729 -462.871 314.729 -462.871 306.502 -334 c 1,6,7
 306.502 -278.219 306.502 -278.219 358.313 -262.938 c 0,8,9
 369.295 -260.268 369.295 -260.268 378.502 -260 c 0,10,11
 426.01 -260 426.01 -260 443.586 -305.169 c 0,12,13
 448.147 -318.991 448.147 -318.991 448.502 -332 c 1,14,-1
 438.502 -366 l 1,15,16
 438.502 -366 438.502 -366 506.698 -381.295 c 1,17,18
 543.051 -386 543.051 -386 584.502 -386 c 0,19,20
 684.153 -386 684.153 -386 737.648 -335.579 c 0,21,22
 754.639 -318.831 754.639 -318.831 768.498 -300 c 0,23,24
 826.358 -218.31 826.358 -218.31 826.498 -102 c 2,25,-1
 826.498 766 l 1,26,-1
 536.502 766 l 1,27,28
 476.94 769.747 476.94 769.747 474.502 806 c 1,29,30
 476.797 849.894 476.797 849.894 538.502 850 c 2,31,-1
 864.498 850 l 2,32,33
 917.889 850 917.889 850 924.408 816.25 c 0,34,35
 926.398 803.627 926.398 803.627 926.498 786 c 2,36,-1
 926.498 -112 l 2,0,1
924.498 1126 m 0,37,38
 924.498 1068.19 924.498 1068.19 871.078 1048.93 c 0,39,40
 856.278 1044.33 856.278 1044.33 842.498 1044 c 0,41,42
 784.698 1044 784.698 1044 765.429 1097.43 c 0,43,44
 760.839 1112.22 760.839 1112.22 760.498 1126 c 0,45,46
 760.498 1186.16 760.498 1186.16 814.559 1205.28 c 0,47,48
 829.049 1209.68 829.049 1209.68 842.498 1210 c 0,49,50
 901.038 1210 901.038 1210 919.799 1154.97 c 0,51,52
 924.188 1140.03 924.188 1140.03 924.498 1126 c 0,37,38
EndSplineSet
Substitution2: "sous-table Substitution simple lookups4" dotlessj
EndChar

StartChar: k
Encoding: 107 107 78
Width: 1233
VWidth: 2000
GlyphClass: 2
Flags: W
HStem: 0 84<183.5 303.5 195.5 303.5 391.5 513.5 965.5 1035.5> 766 84<660.5 989.5 671.5 799.5 915.5 915.5 915.5 989.5> 1138 84<183.5 329.5 195.5 303.5>
VStem: 303.5 88<84 276 382 1138 1138 1138> 641.5 88 965.5 88
LayerCount: 2
Fore
SplineSet
1099.5 42 m 1,0,1
 1097.38 0.109375 1097.38 0.109375 1035.5 0 c 2,2,-1
 791.5 0 l 1,3,4
 731.939 3.93457 731.939 3.93457 729.5 42 c 0,5,6
 729.5 72.7354 729.5 72.7354 763.9 77.7832 c 0,7,8
 782.18 80.0566 782.18 80.0566 861.5 80 c 1,9,-1
 581.5 446 l 1,10,-1
 391.5 276 l 1,11,-1
 391.5 84 l 1,12,-1
 513.5 84 l 1,13,14
 573.18 80.0654 573.18 80.0654 575.5 42 c 1,15,16
 573.136 0.104492 573.136 0.104492 513.5 0 c 2,17,-1
 195.5 0 l 1,18,19
 135.82 4.12207 135.82 4.12207 133.5 44 c 1,20,21
 135.684 83.8926 135.684 83.8926 195.5 84 c 2,22,-1
 303.5 84 l 1,23,-1
 303.5 1138 l 1,24,-1
 195.5 1138 l 1,25,26
 135.82 1141.93 135.82 1141.93 133.5 1180 c 1,27,28
 135.684 1221.89 135.684 1221.89 195.5 1222 c 2,29,-1
 329.5 1222 l 2,30,31
 382.887 1222 382.887 1222 389.406 1188.25 c 0,32,33
 391.396 1175.63 391.396 1175.63 391.5 1158 c 2,34,-1
 391.5 382 l 1,35,-1
 799.5 766 l 1,36,-1
 671.5 766 l 1,37,38
 611.939 769.747 611.939 769.747 609.5 806 c 1,39,40
 611.864 849.89 611.864 849.89 671.5 850 c 2,41,-1
 989.5 850 l 1,42,43
 1051.02 846.003 1051.02 846.003 1053.5 806 c 1,44,45
 1051.38 766.104 1051.38 766.104 989.5 766 c 2,46,-1
 915.5 766 l 1,47,-1
 641.5 506 l 1,48,-1
 965.5 84 l 1,49,-1
 1035.5 84 l 1,50,51
 1097.02 80.1846 1097.02 80.1846 1099.5 42 c 1,0,1
EndSplineSet
EndChar

StartChar: l
Encoding: 108 108 79
Width: 1233
VWidth: 2000
GlyphClass: 2
Flags: W
HStem: 0 84<265.502 565.502 277.502 565.502 667.499 957.498> 1138 84<265.502 605.502 277.502 565.502>
VStem: 565.502 102<84 1138 1138 1138>
LayerCount: 2
Fore
SplineSet
1019.5 42 m 1,0,1
 1017.32 0.113281 1017.32 0.113281 957.498 0 c 2,2,-1
 275.502 0 l 1,3,4
 216.06 3.93457 216.06 3.93457 213.502 42 c 1,5,6
 215.797 83.8984 215.797 83.8984 277.502 84 c 2,7,-1
 565.502 84 l 1,8,-1
 565.502 1138 l 1,9,-1
 275.502 1138 l 1,10,11
 216.06 1141.75 216.06 1141.75 213.502 1178 c 1,12,13
 215.797 1221.89 215.797 1221.89 277.502 1222 c 2,14,-1
 605.502 1222 l 2,15,16
 657.968 1222 657.968 1222 665.129 1188.25 c 0,17,18
 667.379 1175.33 667.379 1175.33 667.498 1158 c 2,19,-1
 667.498 84 l 1,20,-1
 957.498 84 l 1,21,22
 1017.18 80.0654 1017.18 80.0654 1019.5 42 c 1,0,1
EndSplineSet
EndChar

StartChar: m
Encoding: 109 109 80
Width: 1233
VWidth: 2000
GlyphClass: 2
Flags: W
HStem: 0 84<155.498 215.498 175.498 215.498 297.498 337.498 548.498 551.498 551.498 573.498 655.502 695.502 910.502 913.502 913.502 935.502 1017.5 1057.5> 766 84<175.498 215.498> 778 84<458.498 508.498 822.502 870.502>
VStem: 215.498 82<84 476 84 766> 573.498 82<84 476 84 588> 769.502 82 935.502 82<84 588 588 606 84 665>
LayerCount: 2
Fore
SplineSet
1131.5 42 m 0,0,1
 1129.38 0.109375 1129.38 0.109375 1067.5 0 c 2,2,-1
 913.502 0 l 1,3,4
 851.981 3.81543 851.981 3.81543 849.502 42 c 1,5,6
 849.502 80.5898 849.502 80.5898 903.161 83.4717 c 0,7,8
 915.081 83.9961 915.081 83.9961 935.502 84 c 1,9,-1
 935.502 588 l 1,10,11
 922.212 767.774 922.212 767.774 843.502 778 c 1,12,13
 748.451 778 748.451 778 694.121 667.74 c 0,14,15
 655.932 587.76 655.932 587.76 655.502 476 c 2,16,-1
 655.502 84 l 1,17,18
 750.021 84 750.021 84 763.172 65.9688 c 0,19,20
 769.031 55.4541 769.031 55.4541 769.502 42 c 0,21,22
 767.201 0.101562 767.201 0.101562 705.502 0 c 2,23,-1
 551.498 0 l 1,24,25
 489.982 3.81543 489.982 3.81543 487.498 42 c 1,26,27
 487.498 80.5898 487.498 80.5898 541.162 83.4717 c 0,28,29
 553.079 83.9961 553.079 83.9961 573.498 84 c 1,30,-1
 573.498 588 l 1,31,32
 560.209 767.774 560.209 767.774 481.498 778 c 1,33,34
 388.477 778 388.477 778 335.305 667.74 c 0,35,36
 297.926 587.76 297.926 587.76 297.498 476 c 2,37,-1
 297.498 84 l 1,38,39
 392.021 84 392.021 84 405.168 65.9688 c 0,40,41
 411.031 55.4541 411.031 55.4541 411.498 42 c 0,42,43
 409.203 0.101562 409.203 0.101562 347.498 0 c 2,44,-1
 165.498 0 l 1,45,46
 104.099 3.81543 104.099 3.81543 101.498 42 c 1,47,48
 101.498 76.6797 101.498 76.6797 145.209 81.8994 c 0,49,50
 165.271 83.9971 165.271 83.9971 215.498 84 c 1,51,-1
 215.498 766 l 1,52,53
 120.976 766 120.976 766 107.829 784.031 c 0,54,55
 101.966 794.546 101.966 794.546 101.498 808 c 0,56,57
 103.617 849.891 103.617 849.891 165.498 850 c 2,58,-1
 231.498 850 l 2,59,60
 275.389 850 275.389 850 288.291 814.556 c 0,61,62
 295.218 793.47 295.218 793.47 297.498 764 c 1,63,64
 404.782 861.255 404.782 861.255 489.498 862 c 1,65,66
 584.722 858.32 584.722 858.32 641.502 734 c 1,67,68
 733.571 861.066 733.571 861.066 851.502 862 c 0,69,70
 989.752 862 989.752 862 1013.76 666.923 c 0,71,72
 1017.44 636.052 1017.44 636.052 1017.5 606 c 2,73,-1
 1017.5 84 l 1,74,75
 1112.02 84 1112.02 84 1125.17 65.9688 c 0,76,77
 1131.03 55.4541 1131.03 55.4541 1131.5 42 c 0,0,1
EndSplineSet
EndChar

StartChar: n
Encoding: 110 110 81
Width: 1233
VWidth: 2000
GlyphClass: 2
Flags: W
HStem: 0 84<171.502 296.502 184.502 296.502 396.502 508.502 508.502 510.502 734.498 836.498 936.498 1048.5 1048.5 1050.5> 766 84<171.502 334.502 184.502 296.502> 778 84<623.502 738.498>
VStem: 296.502 100<84 472 724 766 766 766> 836.498 100<84 574 574 586 84 644>
LayerCount: 2
Fore
SplineSet
1112.5 42 m 1,0,1
 1110.32 0.113281 1110.32 0.113281 1050.5 0 c 2,2,-1
 734.498 0 l 1,3,4
 672.988 3.81543 672.988 3.81543 670.498 42 c 1,5,6
 672.799 83.8984 672.799 83.8984 734.498 84 c 2,7,-1
 836.498 84 l 1,8,-1
 836.498 574 l 2,9,10
 836.498 728.557 836.498 728.557 759.799 763.283 c 0,11,12
 725.618 777.662 725.618 777.662 676.498 778 c 0,13,14
 552.846 778 552.846 778 469.668 684.36 c 0,15,16
 397.271 600.208 397.271 600.208 396.502 472 c 2,17,-1
 396.502 84 l 1,18,-1
 508.502 84 l 1,19,20
 570.133 80.1846 570.133 80.1846 572.502 42 c 1,21,22
 570.317 0.113281 570.317 0.113281 510.502 0 c 2,23,-1
 182.502 0 l 1,24,25
 122.94 3.93457 122.94 3.93457 120.502 42 c 1,26,27
 122.797 83.8984 122.797 83.8984 184.502 84 c 2,28,-1
 296.502 84 l 1,29,-1
 296.502 766 l 1,30,-1
 182.502 766 l 1,31,32
 122.94 769.747 122.94 769.747 120.502 806 c 1,33,34
 122.797 849.894 122.797 849.894 184.502 850 c 2,35,-1
 334.502 850 l 2,36,37
 382.983 850 382.983 850 391.62 815.574 c 0,38,39
 396.497 793.35 396.497 793.35 396.502 724 c 1,40,41
 539.928 860.966 539.928 860.966 688.498 862 c 0,42,43
 918.648 862 918.648 862 935.288 622.193 c 0,44,45
 936.438 603.599 936.438 603.599 936.498 586 c 2,46,-1
 936.498 84 l 1,47,-1
 1048.5 84 l 1,48,49
 1110.13 80.1846 1110.13 80.1846 1112.5 42 c 1,0,1
EndSplineSet
EndChar

StartChar: o
Encoding: 111 111 82
Width: 1233
VWidth: 2000
GlyphClass: 2
Flags: W
HStem: -12 84<534.498 697.502 534.498 724.502> 784 84<538.498 695.502>
VStem: 212.498 102<338 541 338 549> 918.502 102<338 541>
LayerCount: 2
Fore
SplineSet
1020.5 426 m 0,0,1
 1020.5 221.529 1020.5 221.529 875.312 90.3115 c 0,2,3
 760.852 -11.1221 760.852 -11.1221 616.498 -12 c 0,4,5
 437.684 -12 437.684 -12 316.764 132.03 c 0,6,7
 213.293 257.62 213.293 257.62 212.498 426 c 0,8,9
 212.498 630.458 212.498 630.458 355.818 763.13 c 0,10,11
 470.4 867.105 470.4 867.105 616.498 868 c 0,12,13
 796.401 868 796.401 868 917.462 720.309 c 0,14,15
 1019.71 593.26 1019.71 593.26 1020.5 426 c 0,0,1
918.502 440 m 0,16,17
 918.502 619.079 918.502 619.079 791.502 720.737 c 0,18,19
 711.281 783.22 711.281 783.22 616.498 784 c 0,20,21
 477.901 784 477.901 784 386.503 663.221 c 0,22,23
 315.215 566.661 315.215 566.661 314.498 440 c 0,24,25
 314.498 258.344 314.498 258.344 434.48 147.199 c 0,26,27
 516.904 72.9033 516.904 72.9033 616.498 72 c 0,28,29
 753.812 72 753.812 72 845.531 202.068 c 0,30,31
 917.812 306.86 917.812 306.86 918.502 440 c 0,16,17
EndSplineSet
EndChar

StartChar: p
Encoding: 112 112 83
Width: 1233
VWidth: 2000
GlyphClass: 2
Flags: W
HStem: -460 86<196.5 321.5 209.5 321.5 421.5 533.5 533.5 535.5> -12 84<652.5 754.5 589.5 790.5> 766 84<196.5 359.5 209.5 321.5> 778 84<658.5 775.5>
VStem: 321.5 100<-374 124 321 374 374 526 734 766 766 766> 987.5 100<320 522>
LayerCount: 2
Fore
SplineSet
1087.5 426 m 0,0,1
 1087.5 218.909 1087.5 218.909 939.311 87.6973 c 0,2,3
 825.47 -11.1367 825.47 -11.1367 683.5 -12 c 1,4,5
 553.71 -9.31543 553.71 -9.31543 421.5 124 c 1,6,-1
 421.5 -374 l 1,7,-1
 533.5 -374 l 1,8,9
 595.131 -377.997 595.131 -377.997 597.5 -418 c 1,10,11
 595.316 -459.887 595.316 -459.887 535.5 -460 c 2,12,-1
 207.5 -460 l 1,13,14
 147.939 -456.065 147.939 -456.065 145.5 -418 c 1,15,16
 147.795 -374.106 147.795 -374.106 209.5 -374 c 2,17,-1
 321.5 -374 l 1,18,-1
 321.5 766 l 1,19,-1
 207.5 766 l 1,20,21
 147.939 769.747 147.939 769.747 145.5 806 c 1,22,23
 147.795 849.894 147.795 849.894 209.5 850 c 2,24,-1
 359.5 850 l 2,25,26
 407.936 850 407.936 850 416.505 817.248 c 0,27,28
 421.47 795.491 421.47 795.491 421.5 734 c 1,29,30
 564.547 861.237 564.547 861.237 705.5 862 c 0,31,32
 874.86 862 874.86 862 989.38 716.929 c 0,33,34
 1086.74 591.274 1086.74 591.274 1087.5 426 c 0,0,1
987.5 426 m 0,35,36
 987.5 600.359 987.5 600.359 871.13 706.433 c 0,37,38
 791.33 777.121 791.33 777.121 693.5 778 c 0,39,40
 565.414 778 565.414 778 479.387 675.415 c 0,41,42
 422.359 605.244 422.359 605.244 421.5 526 c 2,43,-1
 421.5 374 l 2,44,45
 421.5 263.085 421.5 263.085 494.838 167.489 c 1,46,47
 569.796 73.2021 569.796 73.2021 677.5 72 c 0,48,49
 812.29 72 812.29 72 906.48 188.09 c 0,50,51
 986.74 289.4 986.74 289.4 987.5 426 c 0,35,36
EndSplineSet
EndChar

StartChar: q
Encoding: 113 113 84
Width: 1233
VWidth: 2000
GlyphClass: 2
Flags: W
HStem: -460 86<689.498 823.498 701.498 823.498 925.498 1047.5> -12 84<451.502 590.502> 778 84<467.502 600.502 434.502 638.499>
VStem: 123.502 100<325 525 325 549> 823.498 102<-374 144 144 144 380 462 462 535 716 774>
LayerCount: 2
Fore
SplineSet
1109.5 -418 m 1,0,1
 1107.32 -459.887 1107.32 -459.887 1047.5 -460 c 2,2,-1
 701.498 -460 l 1,3,4
 641.818 -455.878 641.818 -455.878 639.498 -416 c 1,5,6
 641.688 -374.113 641.688 -374.113 701.498 -374 c 2,7,-1
 823.498 -374 l 1,8,-1
 823.498 144 l 1,9,10
 679.078 -9.76367 679.078 -9.76367 523.502 -12 c 1,11,12
 346.862 -12 346.862 -12 226.871 132.271 c 0,13,14
 124.298 257.917 124.298 257.917 123.502 424 c 0,15,16
 123.502 627.104 123.502 627.104 274.363 758.385 c 0,17,18
 394.668 861.148 394.668 861.148 545.502 862 c 0,19,20
 683.488 862 683.488 862 808.379 732.117 c 0,21,22
 816.788 723.277 816.788 723.277 823.498 716 c 1,23,24
 823.498 832.979 823.498 832.979 839.229 850.282 c 1,25,26
 852.158 861.485 852.158 861.485 875.498 862 c 1,27,28
 924.148 850.637 924.148 850.637 925.498 798 c 2,29,-1
 925.498 -374 l 1,30,-1
 1047.5 -374 l 1,31,32
 1107.18 -378.122 1107.18 -378.122 1109.5 -418 c 1,0,1
823.498 380 m 2,33,-1
 823.498 462 l 2,34,35
 823.498 602.883 823.498 602.883 729.259 701.085 c 0,36,37
 653.969 777.015 653.969 777.015 555.502 778 c 0,38,39
 403.118 778 403.118 778 302.746 653.192 c 0,40,41
 224.271 553.289 224.271 553.289 223.502 424 c 0,42,43
 223.502 250.151 223.502 250.151 347.856 143.632 c 0,44,45
 432.683 72.8457 432.683 72.8457 533.502 72 c 0,46,47
 682.948 72 682.948 72 771.608 213.542 c 0,48,49
 822.809 297.133 822.809 297.133 823.498 380 c 2,33,-1
EndSplineSet
EndChar

StartChar: r
Encoding: 114 114 85
Width: 1233
VWidth: 2000
GlyphClass: 2
Flags: W
HStem: 0 84<217.498 417.498 229.498 417.498 517.498 767.502> 766 84<217.498 455.498 229.498 417.498> 778 84<839.502 931.502>
VStem: 417.498 100<84 364 660 766 766 766> 831.502 100 931.502 134<749 773 733 778>
LayerCount: 2
Fore
SplineSet
1065.5 754 m 1,0,1
 1065.5 698.803 1065.5 698.803 1014.91 687.655 c 0,2,3
 1006.34 686.189 1006.34 686.189 999.502 686 c 0,4,5
 945.951 686 945.951 686 933.951 749.97 c 0,6,7
 931.661 764.264 931.661 764.264 931.502 778 c 1,8,9
 685.722 778 685.722 778 575.637 588.181 c 0,10,11
 518.031 486.778 518.031 486.778 517.498 364 c 2,12,-1
 517.498 84 l 1,13,-1
 767.502 84 l 1,14,15
 829.132 80.1846 829.132 80.1846 831.502 42 c 1,16,17
 829.201 0.101562 829.201 0.101562 767.502 0 c 2,18,-1
 229.498 0 l 1,19,20
 169.818 4.12207 169.818 4.12207 167.498 44 c 1,21,22
 169.862 83.9004 169.862 83.9004 229.498 84 c 2,23,-1
 417.498 84 l 1,24,-1
 417.498 766 l 1,25,-1
 229.498 766 l 1,26,27
 169.818 769.935 169.818 769.935 167.498 808 c 1,28,29
 169.862 849.896 169.862 849.896 229.498 850 c 2,30,-1
 455.498 850 l 2,31,32
 508.886 850 508.886 850 515.404 816.25 c 0,33,34
 517.395 803.627 517.395 803.627 517.498 786 c 2,35,-1
 517.498 660 l 1,36,37
 696.111 861.248 696.111 861.248 889.502 862 c 1,38,39
 1052.33 849.446 1052.33 849.446 1065.5 754 c 1,0,1
EndSplineSet
EndChar

StartChar: s
Encoding: 115 115 86
Width: 1233
VWidth: 2000
GlyphClass: 2
Flags: W
HStem: -12 84<596.502 728.498 573.502 777.498> 784 84<497.502 628.502 447.502 700.498>
VStem: 237.502 84<601 675 601 680> 539.502 84 911.498 84<196 297>
LayerCount: 2
Fore
SplineSet
995.498 238 m 1,0,1
 995.498 106.504 995.498 106.504 869.769 38.5361 c 0,2,3
 774.429 -11.5518 774.429 -11.5518 623.502 -12 c 1,4,5
 467.886 -10.127 467.886 -10.127 343.502 80 c 1,6,7
 313.467 -11.499 313.467 -11.499 279.502 -12 c 1,8,9
 237.604 -9.70508 237.604 -9.70508 237.502 52 c 2,10,-1
 237.502 252 l 2,11,12
 237.502 305.473 237.502 305.473 268.736 313.654 c 0,13,14
 279.117 315.791 279.117 315.791 289.502 316 c 0,15,16
 322.15 314.197 322.15 314.197 335.502 292 c 1,17,18
 402.196 83.3076 402.196 83.3076 597.106 72.7295 c 0,19,20
 611.64 72.0439 611.64 72.0439 625.502 72 c 0,21,22
 851.479 72 851.479 72 901.248 187.81 c 0,23,24
 911.108 212.761 911.108 212.761 911.498 238 c 0,25,26
 909.169 365.556 909.169 365.556 627.502 412 c 1,27,28
 397.827 445.175 397.827 445.175 318.989 497.666 c 1,29,30
 238.662 553.9 238.662 553.9 237.502 646 c 0,31,32
 237.502 755.333 237.502 755.333 351.229 816.673 c 0,33,34
 448.35 867.559 448.35 867.559 609.502 868 c 0,35,36
 736.769 866.678 736.769 866.678 843.498 816 c 1,37,38
 856.549 860.345 856.549 860.345 876.769 866.018 c 0,39,40
 885.288 867.793 885.288 867.793 893.498 868 c 0,41,42
 933.408 865.705 933.408 865.705 933.498 804 c 2,43,-1
 933.498 662 l 2,44,45
 933.498 608.527 933.498 608.527 902.269 600.346 c 0,46,47
 891.889 598.209 891.889 598.209 881.498 598 c 0,48,49
 842.719 600.312 842.719 600.312 835.498 628 c 1,50,51
 823.059 730.071 823.059 730.071 746.488 762.142 c 0,52,53
 692.419 783.681 692.419 783.681 605.502 784 c 0,54,55
 382.463 784 382.463 784 331.36 684.744 c 0,56,57
 321.979 664.661 321.979 664.661 321.502 646 c 0,58,59
 321.502 554.407 321.502 554.407 507.987 515.679 c 0,60,61
 524.884 512.265 524.884 512.265 539.502 510 c 2,62,-1
 681.498 486 l 2,63,64
 992.339 432.105 992.339 432.105 995.498 238 c 1,0,1
EndSplineSet
EndChar

StartChar: t
Encoding: 116 116 87
Width: 1233
VWidth: 2000
GlyphClass: 2
Flags: W
HStem: -12 84<664.499 771.498 654.502 805.498> 766 84<249.502 464.502 262.502 464.502 262.502 464.502 564.502 924.498> 1064 40G<489.502 539.502>
VStem: 464.502 100<240 252 252 766 850 1040> 932.498 102<242 254 154 255>
LayerCount: 2
Fore
SplineSet
1034.5 240 m 1,0,1
 1034.5 85.1582 1034.5 85.1582 883.339 18.4922 c 0,2,3
 813.139 -11.5791 813.139 -11.5791 734.498 -12 c 0,4,5
 547.742 -12 547.742 -12 487.321 122.284 c 0,6,7
 464.898 174.459 464.898 174.459 464.502 240 c 2,8,-1
 464.502 766 l 1,9,-1
 260.502 766 l 1,10,11
 200.94 769.747 200.94 769.747 198.502 806 c 1,12,13
 200.797 849.894 200.797 849.894 262.502 850 c 2,14,-1
 464.502 850 l 1,15,-1
 464.502 1040 l 2,16,17
 464.502 1093.47 464.502 1093.47 494.535 1101.65 c 0,18,19
 503.145 1104 503.145 1104 514.502 1104 c 0,20,21
 563.656 1095.95 563.656 1095.95 564.502 1040 c 2,22,-1
 564.502 850 l 1,23,-1
 924.498 850 l 1,24,25
 984.179 845.878 984.179 845.878 986.498 806 c 1,26,27
 984.318 766.107 984.318 766.107 924.498 766 c 2,28,-1
 564.502 766 l 1,29,-1
 564.502 252 l 2,30,31
 564.502 130.176 564.502 130.176 638.765 92.7988 c 0,32,33
 681.849 72.4131 681.849 72.4131 744.498 72 c 0,34,35
 854.979 72 854.979 72 905.408 146.778 c 0,36,37
 931.179 187.458 931.179 187.458 932.498 242 c 0,38,39
 932.498 291.286 932.498 291.286 964.538 298.273 c 0,40,41
 973.818 299.825 973.818 299.825 982.498 300 c 1,42,43
 1032.17 285.833 1032.17 285.833 1034.5 240 c 1,0,1
EndSplineSet
EndChar

StartChar: u
Encoding: 117 117 88
Width: 1233
VWidth: 2000
GlyphClass: 2
Flags: W
HStem: -12 84<498.502 608.502> 0 84<884.498 1050.5 936.498 1048.5> 766 84<171.502 334.502 184.502 296.502 724.498 836.498>
VStem: 296.502 100<216 228 228 766 766 766> 836.498 100<304 766 766 766>
LayerCount: 2
Fore
SplineSet
1112.5 44 m 1,0,1
 1110.21 0.106445 1110.21 0.106445 1048.5 0 c 2,2,-1
 898.498 0 l 2,3,4
 853.509 0 853.509 0 841.679 35.4443 c 0,5,6
 835.429 56.5801 835.429 56.5801 834.498 86 c 1,7,8
 703.839 -12 703.839 -12 568.502 -12 c 1,9,10
 298.883 -7.96387 298.883 -7.96387 296.502 216 c 1,11,-1
 296.502 766 l 1,12,-1
 182.502 766 l 1,13,14
 122.94 769.747 122.94 769.747 120.502 806 c 1,15,16
 122.797 849.894 122.797 849.894 184.502 850 c 2,17,-1
 334.502 850 l 2,18,19
 387.889 850 387.889 850 394.407 816.25 c 0,20,21
 396.397 803.627 396.397 803.627 396.502 786 c 2,22,-1
 396.502 228 l 2,23,24
 396.502 139.107 396.502 139.107 431.681 108.729 c 0,25,26
 476.732 72.5186 476.732 72.5186 580.502 72 c 0,27,28
 727.809 72 727.809 72 795.969 164.976 c 0,29,30
 835.879 222.003 835.879 222.003 836.498 304 c 2,31,-1
 836.498 766 l 1,32,-1
 722.498 766 l 1,33,34
 662.938 769.747 662.938 769.747 660.498 806 c 1,35,36
 662.799 849.894 662.799 849.894 724.498 850 c 2,37,-1
 874.498 850 l 2,38,39
 927.889 850 927.889 850 934.408 816.25 c 0,40,41
 936.398 803.627 936.398 803.627 936.498 786 c 2,42,-1
 936.498 84 l 1,43,-1
 1050.5 84 l 1,44,45
 1110.06 80.2529 1110.06 80.2529 1112.5 44 c 1,0,1
EndSplineSet
EndChar

StartChar: v
Encoding: 118 118 89
Width: 1233
VWidth: 2000
GlyphClass: 2
Flags: W
HStem: -8 84<598.502 632.502> 766 84<195.502 448.502 206.502 280.502 362.502 362.502 362.502 448.502 784.498 870.498 952.498 1026.5 952.498 952.498>
LayerCount: 2
Fore
SplineSet
1088.5 806 m 1,0,1
 1086.32 766.107 1086.32 766.107 1026.5 766 c 2,2,-1
 952.498 766 l 1,3,-1
 710.498 46 l 1,4,5
 688.429 -7.78613 688.429 -7.78613 616.502 -8 c 0,6,7
 553.775 -8 553.775 -8 532.569 26.5205 c 0,8,9
 526.549 37.248 526.549 37.248 522.502 48 c 2,10,-1
 280.502 766 l 1,11,-1
 206.502 766 l 1,12,13
 146.94 769.747 146.94 769.747 144.502 806 c 1,14,15
 146.865 849.89 146.865 849.89 206.502 850 c 2,16,-1
 448.502 850 l 1,17,18
 508.182 845.878 508.182 845.878 510.502 806 c 1,19,20
 508.317 766.107 508.317 766.107 448.502 766 c 2,21,-1
 362.502 766 l 1,22,-1
 596.502 76 l 1,23,-1
 636.502 76 l 1,24,-1
 870.498 766 l 1,25,-1
 784.498 766 l 1,26,27
 724.818 769.935 724.818 769.935 722.498 808 c 1,28,29
 724.688 849.887 724.688 849.887 784.498 850 c 2,30,-1
 1026.5 850 l 1,31,32
 1086.18 845.878 1086.18 845.878 1088.5 806 c 1,0,1
EndSplineSet
EndChar

StartChar: w
Encoding: 119 119 90
Width: 1233
VWidth: 2000
GlyphClass: 2
Flags: W
HStem: -8 84<434.498 446.498 434.498 459.498 795.502 800.502> 410 84<616.498 628.498 616.498 616.498> 766 84<194.498 226.498 314.498 314.498 314.498 432.498 800.502 918.502 1006.5 1038.5 1038.5 1039.5>
LayerCount: 2
Fore
SplineSet
1104.5 808 m 1,0,1
 1104.5 771.955 1104.5 771.955 1060.34 767.462 c 0,2,3
 1043.62 766.004 1043.62 766.004 1006.5 766 c 1,4,-1
 878.502 54 l 2,5,6
 870.222 4.33105 870.222 4.33105 836.632 -4.51562 c 0,7,8
 821.842 -7.79395 821.842 -7.79395 804.502 -8 c 0,9,10
 750.771 -6.10645 750.771 -6.10645 730.502 16 c 1,11,-1
 628.498 410 l 1,12,-1
 616.498 410 l 1,13,-1
 520.498 48 l 2,14,15
 508.197 -1.20312 508.197 -1.20312 462.604 -6.65527 c 0,16,17
 449.826 -7.92383 449.826 -7.92383 434.498 -8 c 0,18,19
 370.357 -8 370.357 -8 358.786 32.96 c 0,20,21
 356.391 42.373 356.391 42.373 354.498 54 c 2,22,-1
 226.498 766 l 1,23,24
 146.212 766 146.212 766 134.285 784.083 c 0,25,26
 128.933 794.666 128.933 794.666 128.498 808 c 1,27,28
 133.688 849.677 133.688 849.677 194.498 850 c 2,29,-1
 432.498 850 l 1,30,31
 494.338 842.475 494.338 842.475 498.498 806 c 1,32,33
 495.928 766.082 495.928 766.082 432.498 766 c 2,34,-1
 314.498 766 l 1,35,-1
 434.498 76 l 1,36,-1
 446.498 76 l 1,37,-1
 556.498 460 l 2,38,39
 568.031 493.899 568.031 493.899 620.498 494 c 0,40,41
 681.151 492.619 681.151 492.619 690.502 458 c 2,42,-1
 788.502 76 l 1,43,-1
 800.502 76 l 1,44,-1
 918.502 766 l 1,45,-1
 800.502 766 l 1,46,47
 738.661 773.183 738.661 773.183 734.502 808 c 1,48,49
 739.691 849.677 739.691 849.677 800.502 850 c 2,50,-1
 1038.5 850 l 1,51,52
 1102.19 846.296 1102.19 846.296 1104.5 808 c 1,0,1
EndSplineSet
EndChar

StartChar: x
Encoding: 120 120 91
Width: 1233
VWidth: 2000
GlyphClass: 2
Flags: W
HStem: 0 84<205.5 309.5 215.5 309.5 393.5 438.5 793.5 835.5 923.5 1017.5> 766 84<218.5 471.5 229.5 321.5 413.5 454.5 763.5 805.5 895.5 895.5 895.5 987.5>
LayerCount: 2
Fore
SplineSet
1081.5 42 m 1,0,1
 1079.56 0.119141 1079.56 0.119141 1017.5 0 c 2,2,-1
 775.5 0 l 1,3,4
 715.82 3.93457 715.82 3.93457 713.5 42 c 1,5,6
 713.5 77.4961 713.5 77.4961 764.77 82.2861 c 0,7,8
 785.53 83.998 785.53 83.998 835.5 84 c 1,9,-1
 611.5 388 l 1,10,-1
 393.5 84 l 1,11,12
 497.731 84 497.731 84 512.239 66.5605 c 0,13,14
 518.981 55.96 518.981 55.96 519.5 42 c 0,15,16
 517.136 0.104492 517.136 0.104492 457.5 0 c 2,17,-1
 215.5 0 l 1,18,19
 154.1 3.81543 154.1 3.81543 151.5 42 c 1,20,21
 153.619 83.8906 153.619 83.8906 215.5 84 c 2,22,-1
 309.5 84 l 1,23,-1
 571.5 438 l 1,24,-1
 321.5 766 l 1,25,-1
 229.5 766 l 1,26,27
 167.984 769.634 167.984 769.634 165.5 806 c 1,28,29
 167.795 849.894 167.795 849.894 229.5 850 c 2,30,-1
 471.5 850 l 1,31,32
 531.061 846.065 531.061 846.065 533.5 808 c 1,33,34
 533.5 772.735 533.5 772.735 483.688 767.801 c 0,35,36
 463.096 766.003 463.096 766.003 413.5 766 c 1,37,-1
 611.5 498 l 1,38,-1
 805.5 766 l 1,39,40
 704.97 766 704.97 766 690.51 784.011 c 0,41,42
 684.02 794.568 684.02 794.568 683.5 808 c 0,43,44
 685.68 849.887 685.68 849.887 745.5 850 c 2,45,-1
 987.5 850 l 1,46,47
 1049.02 846.003 1049.02 846.003 1051.5 806 c 1,48,49
 1049.38 766.104 1049.38 766.104 987.5 766 c 2,50,-1
 895.5 766 l 1,51,-1
 653.5 438 l 1,52,-1
 923.5 84 l 1,53,-1
 1017.5 84 l 1,54,55
 1079.02 80.1846 1079.02 80.1846 1081.5 42 c 1,0,1
EndSplineSet
EndChar

StartChar: y
Encoding: 121 121 92
Width: 1233
VWidth: 2000
GlyphClass: 2
Flags: W
HStem: -472 86<326.498 362.498 326.498 425.498> 766 84<197.498 450.498 208.498 278.498 368.498 368.498 368.498 450.498 782.502 862.502 948.502 1024.5 948.502 948.502>
VStem: 182.498 126<-360 -302> 182.498 138<-331 -302>
LayerCount: 2
Fore
SplineSet
1086.5 806 m 1,0,1
 1084.31 766.107 1084.31 766.107 1024.5 766 c 2,2,-1
 948.502 766 l 1,3,-1
 624.498 -190 l 1,4,5
 569.907 -340.123 569.907 -340.123 471.125 -419.307 c 0,6,7
 404.13 -471.169 404.13 -471.169 332.498 -472 c 0,8,9
 243.129 -472 243.129 -472 200.365 -391.986 c 0,10,11
 183.026 -357.489 183.026 -357.489 182.498 -322 c 0,12,13
 182.498 -264.806 182.498 -264.806 234.768 -253.778 c 0,14,15
 244.344 -252.181 244.344 -252.181 252.498 -252 c 0,16,17
 307.556 -252 307.556 -252 318.732 -303.183 c 0,18,19
 320.311 -312.379 320.311 -312.379 320.498 -320 c 1,20,-1
 308.498 -360 l 1,21,22
 308.498 -360 308.498 -360 324.339 -382.485 c 0,23,24
 328.664 -386 328.664 -386 332.498 -386 c 0,25,26
 406.85 -386 406.85 -386 450.065 -338.321 c 0,27,28
 477.514 -306.922 477.514 -306.922 504.498 -256 c 0,29,30
 532.389 -204.188 532.389 -204.188 588.498 -26 c 1,31,32
 278.498 766 278.498 766 278.498 766 c 1,33,-1
 208.498 766 l 1,34,35
 148.938 769.747 148.938 769.747 146.498 806 c 1,36,37
 148.862 849.89 148.862 849.89 208.498 850 c 2,38,-1
 450.498 850 l 1,39,40
 510.179 845.878 510.179 845.878 512.498 806 c 1,41,42
 510.314 766.107 510.314 766.107 450.498 766 c 2,43,-1
 368.498 766 l 1,44,-1
 632.498 70 l 1,45,-1
 862.502 766 l 1,46,-1
 782.502 766 l 1,47,48
 722.821 769.935 722.821 769.935 720.502 808 c 1,49,50
 722.682 849.887 722.682 849.887 782.502 850 c 2,51,-1
 1024.5 850 l 1,52,53
 1084.18 845.878 1084.18 845.878 1086.5 806 c 1,0,1
EndSplineSet
EndChar

StartChar: z
Encoding: 122 122 93
Width: 1233
VWidth: 2000
GlyphClass: 2
Flags: W
HStem: 0 84<229.502 950.498 322.502 950.498 322.502 1024.5> 766 84<314.502 900.498 314.502 314.502>
VStem: 212.502 102<690 766 675 786 675 812> 900.498 102 950.498 102<84 184>
LayerCount: 2
Fore
SplineSet
1052.5 64 m 1,0,1
 1049.96 10.9893 1049.96 10.9893 1024.5 0 c 1,2,-1
 244.502 0 l 2,3,4
 191.028 0 191.028 0 182.848 30.0342 c 0,5,6
 180.502 38.6426 180.502 38.6426 180.502 50 c 0,7,8
 180.502 79.8037 180.502 79.8037 202.442 102.341 c 0,9,10
 210.093 110.012 210.093 110.012 218.502 118 c 2,11,-1
 900.498 766 l 1,12,-1
 314.502 766 l 1,13,-1
 314.502 690 l 2,14,15
 314.502 636.527 314.502 636.527 283.267 628.346 c 0,16,17
 272.886 626.209 272.886 626.209 262.502 626 c 0,18,19
 213.347 634.05 213.347 634.05 212.502 690 c 2,20,-1
 212.502 786 l 2,21,22
 212.502 838.334 212.502 838.334 241.495 846.529 c 0,23,24
 255.646 849.839 255.646 849.839 276.502 850 c 2,25,-1
 980.498 850 l 2,26,27
 1035.63 850 1035.63 850 1042.9 816.504 c 0,28,29
 1044.33 807.805 1044.33 807.805 1044.5 800 c 0,30,31
 1044.5 771.113 1044.5 771.113 1018.4 745.343 c 0,32,33
 1011.61 738.732 1011.61 738.732 1004.5 732 c 2,34,-1
 322.502 84 l 1,35,-1
 950.498 84 l 1,36,-1
 950.498 184 l 2,37,38
 950.498 237.473 950.498 237.473 981.738 245.654 c 0,39,40
 992.118 247.791 992.118 247.791 1002.5 248 c 0,41,42
 1051.66 239.95 1051.66 239.95 1052.5 184 c 2,43,-1
 1052.5 64 l 1,0,1
EndSplineSet
EndChar

StartChar: braceleft
Encoding: 123 123 94
Width: 1233
VWidth: 2000
GlyphClass: 2
Flags: W
HStem: -172 84<905.502 986.502> 570 84<243.498 252.498> 1308 86<947.502 966.502 884.502 990.502>
VStem: 566.498 102<84 412>
LayerCount: 2
Fore
SplineSet
1020.5 -128 m 1,0,1
 1018 -171.913 1018 -171.913 952.502 -172 c 0,2,3
 773.842 -171.046 773.842 -171.046 664.502 -112 c 1,4,5
 567.887 -44.5137 567.887 -44.5137 566.498 84 c 2,6,-1
 566.498 428 l 1,7,8
 561.069 552.223 561.069 552.223 252.498 570 c 1,9,10
 214.905 574.683 214.905 574.683 212.498 612 c 1,11,12
 216.9 646.502 216.9 646.502 246.498 654 c 1,13,14
 397.798 654.812 397.798 654.812 480.498 688 c 1,15,16
 550.722 719.768 550.722 719.768 561.732 769.543 c 0,17,18
 566.471 793.419 566.471 793.419 566.498 846 c 0,19,20
 566.531 846.233 566.531 846.233 568.498 1202 c 1,21,22
 608.478 1393.47 608.478 1393.47 952.502 1394 c 1,23,24
 1016.24 1386.68 1016.24 1386.68 1020.5 1350 c 1,25,26
 1016.09 1315.5 1016.09 1315.5 986.502 1308 c 1,27,28
 737.252 1308 737.252 1308 681.812 1223.43 c 0,29,30
 678.422 1217.76 678.422 1217.76 676.502 1214 c 0,31,32
 672.502 1206 672.502 1206 670.502 1098 c 128,-1,33
 668.502 990 668.502 990 668.502 886 c 2,34,-1
 668.502 782 l 1,35,36
 660.762 689.396 660.762 689.396 526.498 610 c 1,37,38
 668.151 531.52 668.151 531.52 668.502 412 c 2,39,-1
 668.502 78 l 2,40,41
 668.502 1.96973 668.502 1.96973 709.541 -30.085 c 0,42,43
 779.871 -82.4609 779.871 -82.4609 978.502 -88 c 1,44,45
 1017.8 -92.6689 1017.8 -92.6689 1020.5 -128 c 1,0,1
EndSplineSet
EndChar

StartChar: bar
Encoding: 124 124 95
Width: 1233
VWidth: 2000
GlyphClass: 2
Flags: W
HStem: -172 42G<590.5 642.5> 1354 40G<590.5 642.5>
VStem: 564.5 104<-96 1318>
LayerCount: 2
Fore
SplineSet
668.5 -96 m 1,0,1
 664.502 -169.094 664.502 -169.094 616.5 -172 c 1,2,3
 564.634 -170.498 564.634 -170.498 564.5 -96 c 2,4,-1
 564.5 1318 l 1,5,6
 568.498 1391.09 568.498 1391.09 616.5 1394 c 1,7,8
 668.366 1392.5 668.366 1392.5 668.5 1318 c 2,9,-1
 668.5 -96 l 1,0,1
EndSplineSet
EndChar

StartChar: braceright
Encoding: 125 125 96
Width: 1233
VWidth: 2000
GlyphClass: 2
Flags: W
HStem: -172 86<242.498 363.498> 568 84<982.502 990.502 982.502 990.502> 1308 86<250.498 313.498>
VStem: 566.498 102<376 419 376 440 376 444 808 1142>
LayerCount: 2
Fore
SplineSet
1020.5 610 m 1,0,1
 1016.09 575.498 1016.09 575.498 986.502 568 c 1,2,3
 837.121 567.179 837.121 567.179 754.502 534 c 1,4,5
 684.271 502.232 684.271 502.232 673.262 452.457 c 0,6,7
 668.531 428.581 668.531 428.581 668.502 376 c 0,8,9
 668.462 375.767 668.462 375.767 666.502 20 c 1,10,11
 627.551 -171.276 627.551 -171.276 278.498 -172 c 1,12,13
 214.913 -168.12 214.913 -168.12 212.498 -128 c 1,14,15
 216.9 -93.498 216.9 -93.498 246.498 -86 c 1,16,17
 537.758 -82.3594 537.758 -82.3594 562.854 26.127 c 0,18,19
 566.484 43.7148 566.484 43.7148 566.498 72 c 2,20,-1
 566.498 440 l 2,21,22
 566.498 498.072 566.498 498.072 639.052 562.761 c 0,23,24
 670.161 589.731 670.161 589.731 708.502 612 c 1,25,26
 577.55 683.218 577.55 683.218 567.64 783.588 c 0,27,28
 566.581 796.265 566.581 796.265 566.498 808 c 2,29,-1
 566.498 1142 l 2,30,31
 566.498 1220.03 566.498 1220.03 527.493 1251.87 c 0,32,33
 459.099 1304.98 459.099 1304.98 260.498 1308 c 1,34,35
 215.048 1312.35 215.048 1312.35 212.498 1350 c 1,36,37
 214.728 1393.9 214.728 1393.9 278.498 1394 c 0,38,39
 459.951 1392.94 459.951 1392.94 570.498 1334 c 1,40,41
 667.871 1271.96 667.871 1271.96 668.502 1142 c 2,42,-1
 668.502 796 l 1,43,44
 672.502 670 672.502 670 982.121 652.021 c 1,45,46
 1018.09 647.317 1018.09 647.317 1020.5 610 c 1,0,1
EndSplineSet
EndChar

StartChar: asciitilde
Encoding: 126 126 97
Width: 1233
VWidth: 2000
GlyphClass: 2
Flags: W
HStem: 508 92<707.5 735.5 707.5 742.5> 622 92<497.5 525.5>
LayerCount: 2
Fore
SplineSet
958.5 668 m 0,0,1
 956.22 638.486 956.22 638.486 864.5 572 c 0,2,3
 775.76 508.979 775.76 508.979 716.5 508 c 1,4,5
 664.994 509.271 664.994 509.271 622.5 544 c 1,6,7
 543.179 615.885 543.179 615.885 523.618 620.675 c 0,8,9
 517.126 621.81 517.126 621.81 512.5 622 c 0,10,11
 456.968 619.584 456.968 619.584 354.5 524 c 1,12,13
 332.999 508.816 332.999 508.816 318.5 508 c 0,14,15
 287.535 508 287.535 508 276.55 540.132 c 0,16,17
 274.796 547.104 274.796 547.104 274.5 552 c 0,18,19
 274.5 577.37 274.5 577.37 363.987 646.503 c 0,20,21
 367.327 649.091 367.327 649.091 368.5 650 c 0,22,23
 457.105 712.981 457.105 712.981 516.5 714 c 0,24,25
 563.513 712.852 563.513 712.852 610.5 678 c 1,26,27
 689.82 606.115 689.82 606.115 709.38 601.325 c 0,28,29
 715.87 600.19 715.87 600.19 720.5 600 c 0,30,31
 774.9 602.341 774.9 602.341 878.5 696 c 0,32,33
 898.11 713.07 898.11 713.07 914.5 714 c 0,34,35
 943.76 714 943.76 714 955.61 683.163 c 0,36,37
 958.16 674.612 958.16 674.612 958.5 668 c 0,0,1
EndSplineSet
EndChar

StartChar: exclamdown
Encoding: 161 161 99
Width: 1233
VWidth: 2000
GlyphClass: 2
Flags: W
HStem: -482 42G<608.5 624.5> 598 164<593.5 639.5>
VStem: 534.5 164<-429 -384 657 703>
LayerCount: 2
Fore
SplineSet
698.5 680 m 0,0,1
 698.5 622.194 698.5 622.194 645.072 602.929 c 0,2,3
 630.28 598.332 630.28 598.332 616.5 598 c 0,4,5
 558.694 598 558.694 598 539.429 651.428 c 0,6,7
 534.832 666.22 534.832 666.22 534.5 680 c 0,8,9
 534.5 737.806 534.5 737.806 587.928 757.071 c 0,10,11
 602.72 761.668 602.72 761.668 616.5 762 c 0,12,13
 674.306 762 674.306 762 693.571 708.572 c 0,14,15
 698.168 693.78 698.168 693.78 698.5 680 c 0,0,1
698.5 -384 m 1,16,17
 688.92 -472.153 688.92 -472.153 616.5 -482 c 1,18,19
 558.796 -482 558.796 -482 540.461 -425.751 c 0,20,21
 534.787 -406.034 534.787 -406.034 534.5 -384 c 2,22,-1
 552.5 304 l 1,23,24
 556.4 366.406 556.4 366.406 575.907 376 c 0,25,26
 590.342 381.773 590.342 381.773 616.5 382 c 0,27,28
 674.132 379.002 674.132 379.002 678.5 350 c 1,29,-1
 698.5 -384 l 1,16,17
EndSplineSet
EndChar

StartChar: cent
Encoding: 162 162 100
Width: 1233
VWidth: 2000
GlyphClass: 2
Flags: W
HStem: -192 42G<644.5 668.5> 1002 40G<644.5 668.5>
VStem: 230.5 102<342 472 342 504> 612.5 88<-148 -12 78 780 780 780 868 998> 834.5 142<744 753>
LayerCount: 2
Fore
SplineSet
1002.5 204 m 1,0,1
 1002.5 160.959 1002.5 160.959 947.636 100.322 c 0,2,3
 858.314 4.65137 858.314 4.65137 700.5 -12 c 1,4,-1
 700.5 -148 l 2,5,6
 700.5 -183.069 700.5 -183.069 666.055 -190.925 c 0,7,8
 660.3 -191.819 660.3 -191.819 656.5 -192 c 0,9,10
 621.431 -192 621.431 -192 613.575 -157.555 c 0,11,12
 612.681 -151.8 612.681 -151.8 612.5 -148 c 2,13,-1
 612.5 -10 l 1,14,15
 401.298 24.8945 401.298 24.8945 295.438 195.367 c 0,16,17
 231.094 301.166 231.094 301.166 230.5 426 c 0,18,19
 230.5 597.552 230.5 597.552 345.685 724.604 c 0,20,21
 448.701 835.722 448.701 835.722 612.5 864 c 1,22,-1
 612.5 998 l 2,23,24
 612.5 1033.07 612.5 1033.07 646.945 1040.92 c 0,25,26
 652.7 1041.82 652.7 1041.82 656.5 1042 c 0,27,28
 691.569 1042 691.569 1042 699.425 1007.55 c 0,29,30
 700.319 1001.8 700.319 1001.8 700.5 998 c 2,31,-1
 700.5 868 l 1,32,33
 891.674 864.586 891.674 864.586 945.295 814.135 c 0,34,35
 975.654 782.99 975.654 782.99 976.5 738 c 0,36,37
 976.5 681.7 976.5 681.7 925.435 666.938 c 0,38,39
 914.201 664.259 914.201 664.259 904.5 664 c 0,40,41
 839.288 664 839.288 664 834.698 739.86 c 0,42,43
 834.551 742.931 834.551 742.931 834.5 744 c 0,44,45
 834.5 767.223 834.5 767.223 755.356 779.74 c 0,46,47
 727.366 783.84 727.366 783.84 700.5 784 c 1,48,-1
 700.5 72 l 1,49,50
 850.5 92 850.5 92 903.883 218.534 c 2,51,-1
 904.5 220 l 1,52,53
 920.076 241.682 920.076 241.682 950.5 242 c 1,54,55
 999.359 237.782 999.359 237.782 1002.5 204 c 1,0,1
612.5 78 m 1,56,-1
 612.5 780 l 1,57,58
 406.997 727.307 406.997 727.307 348.686 531.467 c 0,59,60
 332.785 476.503 332.785 476.503 332.5 426 c 0,61,62
 332.5 239.26 332.5 239.26 488.86 134.337 c 0,63,64
 545.298 97.3242 545.298 97.3242 612.5 78 c 1,56,-1
EndSplineSet
EndChar

StartChar: sterling
Encoding: 163 163 101
Width: 1233
VWidth: 2000
GlyphClass: 2
Flags: W
HStem: -22 102<289.5 351.5 289.5 367.5 843.5 929.5> 80 102 220 102<338.5 388.5 311.5 393.5> 560 104<231.5 341.5 245.5 341.5 245.5 393.5 491.5 491.5 491.5 789.5> 1118 104<575.5 694.5>
VStem: 131.5 104<130 177 130 204> 293.5 102<838 938 836 967> 511.5 102 997.5 104<229 292>
LayerCount: 2
Fore
SplineSet
1101.5 278 m 0,0,1
 1101.5 112.863 1101.5 112.863 1009.94 27.0791 c 0,2,3
 956.1 -21.1484 956.1 -21.1484 887.5 -22 c 0,4,5
 800.544 -22 800.544 -22 633.344 100.908 c 0,6,7
 619.177 111.342 619.177 111.342 599.5 126 c 1,8,9
 497.383 -14.7373 497.383 -14.7373 309.5 -22 c 1,10,11
 207.738 -22 207.738 -22 156.395 60.4121 c 0,12,13
 132.096 101.604 132.096 101.604 131.5 148 c 0,14,15
 131.5 253.695 131.5 253.695 253.286 300.766 c 0,16,17
 309.331 321.629 309.331 321.629 371.5 322 c 0,18,19
 417.276 320.83 417.276 320.83 503.5 288 c 1,20,21
 476.003 386.805 476.003 386.805 393.5 560 c 1,22,-1
 245.5 560 l 2,23,24
 204.98 560 204.98 560 195.131 598.771 c 0,25,26
 193.714 606.282 193.714 606.282 193.5 612 c 0,27,28
 193.5 649.453 193.5 649.453 229.933 661.479 c 0,29,30
 238.623 663.71 238.623 663.71 245.5 664 c 2,31,-1
 341.5 664 l 1,32,33
 293.885 790.84 293.885 790.84 293.5 870 c 0,34,35
 293.5 1037.69 293.5 1037.69 422.94 1143.44 c 0,36,37
 520.409 1221.21 520.409 1221.21 643.5 1222 c 0,38,39
 810.602 1222 810.602 1222 916.263 1106.63 c 0,40,41
 992.627 1020.94 992.627 1020.94 993.5 912 c 0,42,43
 993.5 864.396 993.5 864.396 948.307 846.705 c 0,44,45
 935.202 842.362 935.202 842.362 923.5 842 c 0,46,47
 875.896 842 875.896 842 858.205 887.193 c 0,48,49
 853.862 900.298 853.862 900.298 853.5 912 c 0,50,51
 855.526 940.747 855.526 940.747 881.5 970 c 1,52,53
 836.412 1083.91 836.412 1083.91 704.267 1111.72 c 0,54,55
 673.395 1117.8 673.395 1117.8 643.5 1118 c 0,56,57
 517.425 1118 517.425 1118 442.537 1014.55 c 0,58,59
 395.5 949.577 395.5 949.577 395.5 870 c 0,60,61
 396.312 783.947 396.312 783.947 441.5 664 c 1,62,-1
 789.5 664 l 2,63,64
 826.953 664 826.953 664 838.979 627.567 c 0,65,66
 841.21 618.877 841.21 618.877 841.5 612 c 0,67,68
 841.5 571.165 841.5 571.165 802.066 561.511 c 0,69,70
 794.845 560.206 794.845 560.206 789.5 560 c 2,71,-1
 491.5 560 l 1,72,73
 589.64 360.653 589.64 360.653 606.24 272.42 c 0,74,75
 612.289 238.645 612.289 238.645 613.5 208 c 1,76,77
 746.249 107.701 746.249 107.701 820.194 88.6143 c 0,78,79
 853.564 80 853.564 80 887.5 80 c 0,80,81
 989.104 80 989.104 80 996.974 254.257 c 0,82,83
 997.46 266.94 997.46 266.94 997.5 278 c 0,84,85
 997.5 316.913 997.5 316.913 1036.93 326.496 c 0,86,87
 1043.12 328 1043.12 328 1049.5 328 c 0,88,89
 1090.61 328 1090.61 328 1099.99 290.438 c 0,90,91
 1101.29 283.312 1101.29 283.312 1101.5 278 c 0,0,1
511.5 182 m 1,92,93
 429.654 220 429.654 220 371.5 220 c 0,94,95
 238.002 217.47 238.002 217.47 235.5 148 c 0,96,97
 235.5 103.45 235.5 103.45 281.778 85.2773 c 0,98,99
 296.301 80.3701 296.301 80.3701 309.5 80 c 0,100,101
 467.529 82.2432 467.529 82.2432 511.5 182 c 1,92,93
EndSplineSet
EndChar

StartChar: currency
Encoding: 164 164 102
Width: 1233
VWidth: 2000
GlyphClass: 2
Flags: W
HStem: 324 104<590.5 645.5> 796 104<590.5 645.5 590.5 668.5>
VStem: 330.5 104<585 639> 800.5 104<584 640 584 662>
LayerCount: 2
Fore
SplineSet
930.5 298 m 1,0,1
 896.5 264 896.5 264 841.753 312.923 c 2,2,-1
 840.5 314 l 1,3,-1
 780.5 376 l 1,4,5
 696.723 324 696.723 324 618.5 324 c 0,6,7
 534.298 325.309 534.298 325.309 454.5 376 c 1,8,-1
 396.5 316 l 1,9,10
 341.977 275.107 341.977 275.107 315.146 291.138 c 0,11,12
 310.779 294.207 310.779 294.207 308.5 296 c 0,13,14
 272.5 330 272.5 330 318.048 388.781 c 2,15,-1
 320.5 392 l 1,16,-1
 380.5 450 l 1,17,18
 331.077 533.392 331.077 533.392 330.5 612 c 0,19,20
 331.751 692.787 331.751 692.787 380.5 774 c 1,21,-1
 318.5 836 l 1,22,23
 273.315 893.515 273.315 893.515 302.5 926 c 1,24,25
 336.5 960 336.5 960 391.247 911.077 c 2,26,-1
 392.5 910 l 1,27,-1
 454.5 848 l 1,28,29
 536.534 899.427 536.534 899.427 618.5 900 c 0,30,31
 698.001 898.676 698.001 898.676 780.5 848 c 1,32,-1
 838.5 908 l 1,33,34
 893.49 955.134 893.49 955.134 924.5 928 c 0,35,36
 962.5 892 962.5 892 912.648 834.173 c 0,37,-1
 852.5 776 l 1,38,39
 904.5 692.223 904.5 692.223 904.5 612 c 0,40,41
 903.191 530.515 903.191 530.515 852.5 448 c 1,42,-1
 914.5 388 l 1,43,44
 959.685 330.485 959.685 330.485 930.5 298 c 1,0,1
800.5 612 m 0,45,46
 800.5 713.668 800.5 713.668 713.621 768.374 c 0,47,48
 668.555 795.385 668.555 795.385 618.5 796 c 0,49,50
 515.912 796 515.912 796 461.652 707.679 c 0,51,52
 434.5 663.481 434.5 663.481 434.5 612 c 0,53,54
 434.5 510.101 434.5 510.101 521.934 455.626 c 0,55,56
 567.483 428.605 567.483 428.605 618.5 428 c 0,57,58
 719.437 428 719.437 428 773.432 516.321 c 0,59,60
 799.901 561.776 799.901 561.776 800.5 612 c 0,45,46
EndSplineSet
EndChar

StartChar: yen
Encoding: 165 165 103
Width: 1233
VWidth: 2000
GlyphClass: 2
Flags: W
HStem: 0 84<482.5 566.5 494.5 566.5 668.5 740.5> 400 102<278.5 560.5 292.5 560.5 292.5 566.5 674.5 942.5> 722 102<278.5 402.5 292.5 402.5 292.5 454.5 562.5 562.5 562.5 682.5 830.5 942.5> 1138 84<184.5 412.5 196.5 252.5 366.5 401.5 830.5 864.5 980.5 1036.5 980.5 980.5>
VStem: 412.5 102 566.5 102<84 400 84 400>
LayerCount: 2
Fore
SplineSet
1098.5 1178 m 1,0,1
 1096.32 1138.11 1096.32 1138.11 1036.5 1138 c 2,2,-1
 980.5 1138 l 1,3,-1
 830.5 824 l 1,4,-1
 942.5 824 l 2,5,6
 982.797 824 982.797 824 992.869 786.438 c 0,7,8
 994.275 779.288 994.275 779.288 994.5 774 c 0,9,10
 994.5 733.165 994.5 733.165 955.066 723.511 c 0,11,12
 947.845 722.206 947.845 722.206 942.5 722 c 2,13,-1
 778.5 722 l 1,14,-1
 674.5 502 l 1,15,-1
 942.5 502 l 2,16,17
 983.02 502 983.02 502 992.869 463.228 c 0,18,19
 994.286 455.718 994.286 455.718 994.5 450 c 0,20,21
 994.5 411.087 994.5 411.087 955.066 401.504 c 0,22,23
 947.834 400.205 947.834 400.205 942.5 400 c 2,24,-1
 668.5 400 l 1,25,-1
 668.5 84 l 1,26,-1
 740.5 84 l 1,27,28
 800.18 80.0654 800.18 80.0654 802.5 42 c 1,29,30
 800.316 0.113281 800.316 0.113281 740.5 0 c 2,31,-1
 494.5 0 l 1,32,33
 434.82 4.12207 434.82 4.12207 432.5 44 c 1,34,35
 434.684 83.8926 434.684 83.8926 494.5 84 c 2,36,-1
 566.5 84 l 1,37,-1
 566.5 400 l 1,38,-1
 292.5 400 l 2,39,40
 252.203 400 252.203 400 242.131 437.562 c 0,41,42
 240.725 444.712 240.725 444.712 240.5 450 c 0,43,44
 240.5 490.835 240.5 490.835 279.934 500.489 c 0,45,46
 287.155 501.794 287.155 501.794 292.5 502 c 2,47,-1
 560.5 502 l 1,48,-1
 454.5 722 l 1,49,-1
 292.5 722 l 2,50,51
 251.98 722 251.98 722 242.131 760.771 c 0,52,53
 240.714 768.282 240.714 768.282 240.5 774 c 0,54,55
 240.5 812.913 240.5 812.913 279.934 822.496 c 0,56,57
 287.166 823.795 287.166 823.795 292.5 824 c 2,58,-1
 402.5 824 l 1,59,-1
 252.5 1138 l 1,60,-1
 196.5 1138 l 1,61,62
 136.82 1141.93 136.82 1141.93 134.5 1180 c 1,63,64
 136.684 1221.89 136.684 1221.89 196.5 1222 c 2,65,-1
 412.5 1222 l 1,66,67
 472.061 1218.07 472.061 1218.07 474.5 1180 c 1,68,69
 474.5 1143.06 474.5 1143.06 420.138 1139.09 c 0,70,71
 402.901 1138 402.901 1138 366.5 1138 c 1,72,-1
 514.5 824 l 1,73,-1
 726.5 824 l 1,74,-1
 864.5 1138 l 1,75,76
 777.245 1138 777.245 1138 764.251 1157.44 c 0,77,78
 758.5 1166.05 758.5 1166.05 758.5 1180 c 0,79,80
 760.684 1221.89 760.684 1221.89 820.5 1222 c 2,81,-1
 1036.5 1222 l 1,82,83
 1096.18 1217.88 1096.18 1217.88 1098.5 1178 c 1,0,1
682.5 722 m 1,84,-1
 562.5 722 l 1,85,-1
 618.5 564 l 1,86,-1
 682.5 722 l 1,84,-1
EndSplineSet
EndChar

StartChar: brokenbar
Encoding: 166 166 104
Width: 1233
VWidth: 2000
GlyphClass: 2
Flags: W
HStem: -172 42G<590.5 642.5> 1354 40G<590.5 642.5>
VStem: 564.5 104<-96 402 820 1318>
LayerCount: 2
Fore
SplineSet
668.5 820 m 1,0,1
 658.998 783.727 658.998 783.727 616.5 778 c 1,2,3
 569.794 783.819 569.794 783.819 564.5 820 c 1,4,-1
 564.5 1318 l 1,5,6
 568.498 1391.09 568.498 1391.09 616.5 1394 c 1,7,8
 668.366 1392.5 668.366 1392.5 668.5 1318 c 2,9,-1
 668.5 820 l 1,0,1
668.5 -96 m 1,10,11
 664.502 -169.094 664.502 -169.094 616.5 -172 c 1,12,13
 564.634 -170.498 564.634 -170.498 564.5 -96 c 2,14,-1
 564.5 402 l 1,15,16
 574.002 438.273 574.002 438.273 616.5 444 c 1,17,18
 663.206 438.181 663.206 438.181 668.5 402 c 1,19,-1
 668.5 -96 l 1,10,11
EndSplineSet
EndChar

StartChar: section
Encoding: 167 167 105
Width: 1233
VWidth: 2000
GlyphClass: 2
Flags: W
HStem: -244 104<564.5 683.5 564.5 711.5> 1140 104<549.5 668.5>
VStem: 144.5 104<556 650> 248.5 104<932 1017 905 1045> 248.5 144<-1 30 -1 30> 840.5 144<970 1001> 880.5 104<-17 67 -45 95> 984.5 104<350 444>
LayerCount: 2
Fore
SplineSet
1088.5 388 m 0,0,1
 1088.5 266.005 1088.5 266.005 986.696 199.688 c 0,2,3
 962.814 184.76 962.814 184.76 938.5 176 c 1,4,5
 983.744 112.377 983.744 112.377 984.5 42 c 0,6,7
 984.5 -106.962 984.5 -106.962 834.096 -190.2 c 0,8,9
 735.691 -243.467 735.691 -243.467 616.5 -244 c 0,10,11
 419.599 -244 419.599 -244 314.087 -141.579 c 0,12,13
 249.426 -76.4023 249.426 -76.4023 248.5 10 c 0,14,15
 248.5 60.2256 248.5 60.2256 295.282 77.5225 c 0,16,17
 308.503 81.6611 308.503 81.6611 320.5 82 c 0,18,19
 370.726 82 370.726 82 388.022 35.2178 c 0,20,21
 392.161 21.9971 392.161 21.9971 392.5 10 c 0,22,23
 390.809 -23.4756 390.809 -23.4756 366.5 -46 c 1,24,25
 426.674 -136.17 426.674 -136.17 616.5 -140 c 1,26,27
 769.996 -140 769.996 -140 843.47 -55.7812 c 0,28,29
 879.706 -11.9141 879.706 -11.9141 880.5 42 c 0,30,31
 880.5 155.199 880.5 155.199 687.3 218.931 c 0,32,33
 672.776 223.668 672.776 223.668 658.5 228 c 2,34,-1
 440.5 294 l 2,35,36
 247.518 353.379 247.518 353.379 175.331 489.311 c 0,37,38
 145.02 548.557 145.02 548.557 144.5 612 c 0,39,40
 144.5 731.417 144.5 731.417 246.304 799.358 c 0,41,42
 270.18 814.68 270.18 814.68 294.5 824 c 1,43,44
 249.227 887.749 249.227 887.749 248.5 958 c 0,45,46
 248.5 1106.96 248.5 1106.96 398.904 1190.2 c 0,47,48
 497.309 1243.47 497.309 1243.47 616.5 1244 c 0,49,50
 813.401 1244 813.401 1244 918.913 1141.58 c 0,51,52
 983.574 1076.4 983.574 1076.4 984.5 990 c 0,53,54
 984.5 939.774 984.5 939.774 937.718 922.479 c 0,55,56
 924.497 918.339 924.497 918.339 912.5 918 c 0,57,58
 862.274 918 862.274 918 844.978 964.782 c 0,59,60
 840.839 978.003 840.839 978.003 840.5 990 c 0,61,62
 842.191 1023.48 842.191 1023.48 866.5 1046 c 1,63,64
 806.326 1136.17 806.326 1136.17 616.5 1140 c 1,65,66
 463.004 1140 463.004 1140 389.53 1055.78 c 0,67,68
 353.294 1011.91 353.294 1011.91 352.5 958 c 0,69,70
 352.5 844.801 352.5 844.801 545.7 781.069 c 0,71,72
 560.224 776.332 560.224 776.332 574.5 772 c 2,73,-1
 792.5 706 l 2,74,75
 985.482 646.621 985.482 646.621 1057.67 510.689 c 0,76,77
 1087.98 451.443 1087.98 451.443 1088.5 388 c 0,0,1
984.5 388 m 0,78,79
 984.5 518.097 984.5 518.097 811.118 588.923 c 0,80,81
 786.662 598.693 786.662 598.693 762.5 606 c 2,82,-1
 544.5 672 l 1,83,84
 451.738 702.358 451.738 702.358 384.5 744 c 1,85,86
 307.267 748.291 307.267 748.291 266.7 679.115 c 0,87,88
 249.066 646.881 249.066 646.881 248.5 612 c 0,89,90
 248.5 481.903 248.5 481.903 421.882 411.077 c 0,91,92
 446.338 401.307 446.338 401.307 470.5 394 c 2,93,-1
 688.5 328 l 1,94,95
 781.262 297.642 781.262 297.642 848.5 256 c 1,96,97
 925.733 251.709 925.733 251.709 966.3 320.885 c 0,98,99
 983.934 353.119 983.934 353.119 984.5 388 c 0,78,79
EndSplineSet
EndChar

StartChar: dieresis
Encoding: 168 168 106
Width: 1233
VWidth: 2000
GlyphClass: 2
Flags: W
HStem: 1054 146<425.5 465.5 767.5 807.5>
VStem: 373.5 144<1106 1147> 715.5 144<1106 1147>
LayerCount: 2
Fore
SplineSet
517.5 1126 m 0,0,1
 517.5 1075.77 517.5 1075.77 470.718 1058.48 c 0,2,3
 457.497 1054.34 457.497 1054.34 445.5 1054 c 0,4,5
 395.274 1054 395.274 1054 377.978 1100.78 c 0,6,7
 373.839 1114 373.839 1114 373.5 1126 c 0,8,9
 373.5 1178.58 373.5 1178.58 420.919 1195.73 c 0,10,11
 433.825 1199.67 433.825 1199.67 445.5 1200 c 0,12,13
 496.467 1200 496.467 1200 513.255 1151.62 c 0,14,15
 517.185 1138.25 517.185 1138.25 517.5 1126 c 0,0,1
859.5 1126 m 0,16,17
 859.5 1075.77 859.5 1075.77 812.718 1058.48 c 0,18,19
 799.497 1054.34 799.497 1054.34 787.5 1054 c 0,20,21
 737.274 1054 737.274 1054 719.979 1100.78 c 0,22,23
 715.839 1114 715.839 1114 715.5 1126 c 0,24,25
 715.5 1178.58 715.5 1178.58 762.919 1195.73 c 0,26,27
 775.825 1199.67 775.825 1199.67 787.5 1200 c 0,28,29
 838.467 1200 838.467 1200 855.255 1151.62 c 0,30,31
 859.185 1138.25 859.185 1138.25 859.5 1126 c 0,16,17
EndSplineSet
EndChar

StartChar: copyright
Encoding: 169 169 107
Width: 1233
VWidth: 2000
GlyphClass: 2
Flags: W
HStem: 0 38<483.502 750.502 483.502 760.502> 142 50<558.502 644.502 558.502 679.502> 654 38<805.502 849.502> 852 50<557.502 641.502 533.502 655.502> 864 38 1006 38<483.502 750.502>
VStem: 93.5018 38<390 656 390 667> 323.502 60<425 619 425 632> 787.502 62 1101.5 38<390 656>
LayerCount: 2
Fore
SplineSet
1139.5 524 m 0,0,1
 1139.5 298.024 1139.5 298.024 974.747 142.561 c 0,2,3
 822.32 0.902344 822.32 0.902344 617.502 0 c 0,4,5
 392.166 0 392.166 0 236.781 164.257 c 0,6,7
 94.4023 317.087 94.4023 317.087 93.502 524 c 0,8,9
 93.502 747.367 93.502 747.367 258.535 901.885 c 0,10,11
 411.676 1043.1 411.676 1043.1 617.502 1044 c 0,12,13
 840.253 1044 840.253 1044 995.425 881.373 c 0,14,15
 1138.59 729.021 1138.59 729.021 1139.5 524 c 0,0,1
1101.5 524 m 0,16,17
 1101.5 732.884 1101.5 732.884 945.954 876.771 c 0,18,19
 804.912 1005.11 804.912 1005.11 617.502 1006 c 0,20,21
 405.127 1006 405.127 1006 260.169 849.677 c 0,22,23
 132.393 709.587 132.393 709.587 131.502 524 c 0,24,25
 131.502 309.464 131.502 309.464 290.676 164.592 c 0,26,27
 431.109 38.8701 431.109 38.8701 617.502 38 c 0,28,29
 828.812 38 828.812 38 973.047 194.908 c 0,30,31
 1100.62 335.999 1100.62 335.999 1101.5 524 c 0,16,17
849.502 350 m 1,32,33
 849.502 250.841 849.502 250.841 755.016 185.938 c 0,34,35
 689.754 142.673 689.754 142.673 611.502 142 c 0,36,37
 475.773 142 475.773 142 390.066 276.37 c 0,38,39
 324.1 382.133 324.1 382.133 323.502 522 c 0,40,41
 323.502 721.795 323.502 721.795 444.627 833.358 c 0,42,43
 520.392 901.116 520.392 901.116 611.502 902 c 1,44,45
 701.271 900.4 701.271 900.4 775.502 836 c 1,46,47
 799.322 882.144 799.322 882.144 799.502 888 c 1,48,49
 815.277 901.059 815.277 901.059 823.502 902 c 0,50,51
 849.329 899.711 849.329 899.711 849.502 864 c 2,52,-1
 849.502 692 l 1,53,54
 840.423 657.232 840.423 657.232 817.502 654 c 1,55,56
 795.502 654 795.502 654 788.159 681.329 c 2,57,-1
 787.502 684 l 1,58,59
 767.032 806.812 767.032 806.812 669.714 842.416 c 0,60,61
 642.442 851.653 642.442 851.653 615.502 852 c 0,62,63
 512.671 852 512.671 852 441.572 738.678 c 0,64,65
 383.502 646.117 383.502 646.117 383.502 522 c 0,66,67
 383.502 343.452 383.502 343.452 491.379 245.469 c 0,68,69
 551.341 192.907 551.341 192.907 617.502 192 c 0,70,71
 707.544 192 707.544 192 756.498 260.994 c 0,72,73
 783.635 301.54 783.635 301.54 787.502 356 c 1,74,75
 792.821 379.659 792.821 379.659 817.502 380 c 1,76,77
 847.049 374.719 847.049 374.719 849.502 350 c 1,32,33
EndSplineSet
EndChar

StartChar: ordfeminine
Encoding: 170 170 108
Width: 1233
VWidth: 2000
GlyphClass: 2
Flags: W
HStem: 490 48<393.5 827.5 405.5 827.5> 640 48<474.5 532.5 474.5 541.5> 650 46<866.5 897.5> 966 44<731.5 731.5> 1114 46 1198 46<496.5 527.5 473.5 620.5>
VStem: 335.5 88<1160 1171 1160 1202> 523.5 140 731.5 140
LayerCount: 2
Fore
SplineSet
935.5 674 m 1,0,1
 932.288 650.062 932.288 650.062 883.5 650 c 0,2,3
 774.751 650 774.751 650 737.961 697.775 c 0,4,5
 734.988 701.87 734.988 701.87 733.5 704 c 1,6,7
 635.525 640.426 635.525 640.426 515.5 640 c 0,8,9
 376.934 640 376.934 640 319.654 735.188 c 0,10,11
 298.073 773.146 298.073 773.146 297.5 814 c 0,12,13
 297.5 990.292 297.5 990.292 678.485 1008.36 c 0,14,15
 705.312 1009.57 705.312 1009.57 731.5 1010 c 1,16,17
 727.923 1196.31 727.923 1196.31 527.5 1198 c 2,18,-1
 473.5 1198 l 1,19,20
 425.716 1178.79 425.716 1178.79 423.5 1160 c 0,21,22
 416.8 1117.97 416.8 1117.97 379.5 1114 c 1,23,24
 340.19 1121.51 340.19 1121.51 335.5 1160 c 1,25,26
 337.25 1243.97 337.25 1243.97 523.5 1244 c 0,27,28
 716.236 1244 716.236 1244 774.585 1118.43 c 0,29,30
 791.068 1080.99 791.068 1080.99 791.5 1042 c 2,31,-1
 791.5 714 l 1,32,33
 837.618 696.283 837.618 696.283 899.5 696 c 1,34,35
 933.086 692.533 933.086 692.533 935.5 674 c 1,0,1
871.5 512 m 1,36,37
 868.254 491.249 868.254 491.249 827.5 490 c 2,38,-1
 405.5 490 l 2,39,40
 364.172 491.872 364.172 491.872 361.5 512 c 1,41,42
 364.746 536.444 364.746 536.444 405.5 538 c 2,43,-1
 827.5 538 l 1,44,45
 868.743 535.855 868.743 535.855 871.5 512 c 1,36,37
731.5 822 m 1,46,-1
 731.5 966 l 1,47,48
 451.06 956.88 451.06 956.88 375.854 862.287 c 0,49,50
 358.238 838.104 358.238 838.104 357.5 814 c 0,51,52
 357.5 739.35 357.5 739.35 439.906 704.432 c 0,53,54
 480.039 688.391 480.039 688.391 527.5 688 c 0,55,56
 607.934 689.217 607.934 689.217 663.5 716 c 1,57,58
 729.128 762.684 729.128 762.684 731.5 822 c 1,46,-1
EndSplineSet
EndChar

StartChar: guillemotleft
Encoding: 171 171 109
Width: 1233
VWidth: 2000
GlyphClass: 2
Flags: W
HStem: 168 42G<678.5 688.5 1013.5 1024.5> 1016 40G<678.5 688.5 1013.5 1024.5>
LayerCount: 2
Fore
SplineSet
1041.5 212 m 0,0,1
 1039.62 170.348 1039.62 170.348 1017.5 168 c 1,2,3
 1005.09 170.796 1005.09 170.796 993.5 182 c 2,4,-1
 543.5 570 l 2,5,6
 528.372 584.627 528.372 584.627 527.5 612 c 1,7,8
 528.814 640.613 528.814 640.613 549.5 658 c 2,9,-1
 993.5 1042 l 2,10,11
 1008.93 1055.55 1008.93 1055.55 1017.5 1056 c 0,12,13
 1040.16 1052.26 1040.16 1052.26 1041.5 1012 c 0,14,15
 1041.5 988 1041.5 988 1019.51 965.993 c 2,16,-1
 1017.5 964 l 1,17,-1
 611.5 612 l 1,18,-1
 1017.5 260 l 1,19,20
 1040.5 233.894 1040.5 233.894 1041.5 212 c 0,0,1
705.5 212 m 1,21,22
 703.616 170.348 703.616 170.348 681.5 168 c 1,23,24
 670.891 170.796 670.891 170.796 657.5 182 c 2,25,-1
 207.5 570 l 1,26,27
 192.524 587.479 192.524 587.479 191.5 612 c 1,28,29
 192.814 640.613 192.814 640.613 213.5 658 c 2,30,-1
 657.5 1042 l 2,31,32
 673.833 1056 673.833 1056 681.5 1056 c 0,33,34
 704.158 1052.26 704.158 1052.26 705.5 1012 c 1,35,36
 704.24 984.833 704.24 984.833 683.5 964 c 1,37,-1
 275.5 612 l 1,38,-1
 683.5 260 l 1,39,40
 704.565 235.818 704.565 235.818 705.5 212 c 1,21,22
EndSplineSet
EndChar

StartChar: logicalnot
Encoding: 172 172 110
Width: 1233
VWidth: 2000
GlyphClass: 2
Flags: W
HStem: 718 102<212.5 1006.5 226.5 956.5>
VStem: 956.5 102<454 718 718 718>
LayerCount: 2
Fore
SplineSet
1058.5 454 m 2,0,1
 1058.5 415.087 1058.5 415.087 1019.07 405.504 c 0,2,3
 1012.88 404 1012.88 404 1006.5 404 c 0,4,5
 967.703 404 967.703 404 958.124 441.086 c 0,6,7
 956.717 448.45 956.717 448.45 956.5 454 c 2,8,-1
 956.5 718 l 1,9,-1
 226.5 718 l 2,10,11
 189.047 718 189.047 718 177.021 754.433 c 0,12,13
 174.79 763.123 174.79 763.123 174.5 770 c 0,14,15
 174.5 808.913 174.5 808.913 213.934 818.496 c 0,16,17
 221.166 819.795 221.166 819.795 226.5 820 c 2,18,-1
 1006.5 820 l 2,19,20
 1046.8 820 1046.8 820 1056.87 782.438 c 0,21,22
 1058.5 776.354 1058.5 776.354 1058.5 770 c 2,23,-1
 1058.5 454 l 2,0,1
EndSplineSet
EndChar

StartChar: sfthyphen
Encoding: 173 173 111
Width: 1233
VWidth: 2000
GlyphClass: 2
Flags: W
HStem: 560 104<278.5 944.5 288.5 944.5>
LayerCount: 2
Fore
SplineSet
1022.5 612 m 1,0,1
 1020.89 560.119 1020.89 560.119 944.5 560 c 2,2,-1
 288.5 560 l 1,3,4
 213.337 563.898 213.337 563.898 210.5 612 c 1,5,6
 212.111 663.881 212.111 663.881 288.5 664 c 2,7,-1
 944.5 664 l 1,8,9
 1019.66 660.102 1019.66 660.102 1022.5 612 c 1,0,1
EndSplineSet
EndChar

StartChar: registered
Encoding: 174 174 112
Width: 1233
VWidth: 2000
GlyphClass: 2
Flags: W
HStem: 0 38<483.502 750.502 483.502 760.502> 148 52<831.502 861.502 828.502 884.502> 162 38 502 52<489.502 591.502 591.502 599.502 489.502 591.502> 844 52<379.502 605.502 385.502 429.502 489.502 489.502 489.502 591.502> 1006 38<483.502 750.502>
VStem: 93.5018 38<390 656 390 667> 429.502 60<212 502 212 554 554 844> 533.502 38<162 200 175 212> 739.502 62<312 372 297 378> 763.502 38 773.502 60<676 732> 883.502 60<261 268> 1101.5 38<390 656>
LayerCount: 2
Fore
SplineSet
1139.5 524 m 0,0,1
 1139.5 298.024 1139.5 298.024 974.747 142.561 c 0,2,3
 822.32 0.902344 822.32 0.902344 617.502 0 c 0,4,5
 392.166 0 392.166 0 236.781 164.257 c 0,6,7
 94.4023 317.087 94.4023 317.087 93.502 524 c 0,8,9
 93.502 747.367 93.502 747.367 258.535 901.885 c 0,10,11
 411.676 1043.1 411.676 1043.1 617.502 1044 c 0,12,13
 840.253 1044 840.253 1044 995.425 881.373 c 0,14,15
 1138.59 729.021 1138.59 729.021 1139.5 524 c 0,0,1
1101.5 524 m 0,16,17
 1101.5 732.884 1101.5 732.884 945.954 876.771 c 0,18,19
 804.912 1005.11 804.912 1005.11 617.502 1006 c 0,20,21
 405.127 1006 405.127 1006 260.169 849.677 c 0,22,23
 132.393 709.587 132.393 709.587 131.502 524 c 0,24,25
 131.502 309.464 131.502 309.464 290.676 164.592 c 0,26,27
 431.109 38.8701 431.109 38.8701 617.502 38 c 0,28,29
 828.812 38 828.812 38 973.047 194.908 c 0,30,31
 1100.62 335.999 1100.62 335.999 1101.5 524 c 0,16,17
943.502 266 m 1,32,33
 943.502 193.21 943.502 193.21 894.332 160.93 c 0,34,35
 873.216 148.588 873.216 148.588 849.502 148 c 0,36,37
 794.132 150.07 794.132 150.07 763.502 194 c 1,38,39
 739.592 247.235 739.592 247.235 739.502 350 c 0,40,41
 739.502 429.515 739.502 429.515 717.883 456.661 c 0,42,43
 712.984 462.355 712.984 462.355 709.502 466 c 0,44,45
 664.105 501.971 664.105 501.971 599.502 502 c 2,46,-1
 489.502 502 l 1,47,-1
 489.502 212 l 1,48,-1
 533.502 212 l 1,49,50
 569.197 208.406 569.197 208.406 571.502 188 c 1,51,52
 569.213 162.172 569.213 162.172 533.502 162 c 2,53,-1
 385.502 162 l 1,54,55
 351.916 166.097 351.916 166.097 349.502 188 c 1,56,57
 351.903 211.832 351.903 211.832 385.502 212 c 2,58,-1
 429.502 212 l 1,59,-1
 429.502 844 l 1,60,-1
 385.502 844 l 1,61,62
 351.916 847.782 351.916 847.782 349.502 868 c 1,63,64
 351.903 895.804 351.903 895.804 385.502 896 c 2,65,-1
 605.502 896 l 2,66,67
 739.085 896 739.085 896 803.584 797.544 c 0,68,69
 832.86 750.769 832.86 750.769 833.502 700 c 1,70,71
 830.32 592.323 830.32 592.323 719.502 528 c 1,72,73
 772.949 483.722 772.949 483.722 791.502 446 c 1,74,75
 801.497 416.001 801.497 416.001 801.502 334 c 0,76,77
 803.184 202.127 803.184 202.127 847.502 200 c 1,78,79
 878.806 204.575 878.806 204.575 883.502 268 c 0,80,81
 887.228 291.704 887.228 291.704 913.502 292 c 1,82,83
 941.138 287.139 941.138 287.139 943.502 266 c 1,32,33
773.502 700 m 0,84,85
 773.502 775.939 773.502 775.939 698.179 818.497 c 0,86,87
 651.521 843.488 651.521 843.488 591.502 844 c 2,88,-1
 489.502 844 l 1,89,-1
 489.502 554 l 1,90,-1
 591.502 554 l 2,91,92
 716.134 554 716.134 554 760.202 644.384 c 0,93,94
 773.027 672.61 773.027 672.61 773.502 700 c 0,84,85
EndSplineSet
EndChar

StartChar: macron
Encoding: 175 175 113
Width: 1233
VWidth: 2000
GlyphClass: 2
Flags: W
HStem: 1084 88<308.5 310.5 310.5 924.5>
LayerCount: 2
Fore
SplineSet
986.5 1126 m 1,0,1
 984.136 1084.1 984.136 1084.1 924.5 1084 c 2,2,-1
 310.5 1084 l 1,3,4
 248.754 1088 248.754 1088 246.5 1128 c 1,5,6
 248.864 1171.89 248.864 1171.89 308.5 1172 c 2,7,-1
 924.5 1172 l 1,8,9
 982.334 1163.66 982.334 1163.66 986.5 1126 c 1,0,1
EndSplineSet
EndChar

StartChar: degree
Encoding: 176 176 114
Width: 1233
VWidth: 2000
GlyphClass: 2
Flags: W
HStem: 944 80<600.5 636.5 600.5 661.5> 1162 80<598.5 637.5>
VStem: 470.5 76<1069 1110 1069 1125> 610.5 76 686.5 76<1072 1111>
LayerCount: 2
Fore
SplineSet
762.5 1092 m 0,0,1
 762.5 1006.2 762.5 1006.2 691.638 964.627 c 0,2,3
 655.035 944.532 655.035 944.532 610.5 944 c 0,4,5
 521.273 944 521.273 944 483.469 1030.85 c 0,6,7
 470.946 1061.49 470.946 1061.49 470.5 1090 c 0,8,9
 470.5 1171.08 470.5 1171.08 536.631 1216.97 c 0,10,11
 572.694 1242 572.694 1242 618.5 1242 c 0,12,13
 695.302 1242 695.302 1242 741.426 1162.88 c 0,14,15
 762.5 1126.73 762.5 1126.73 762.5 1092 c 0,0,1
686.5 1092 m 0,16,17
 686.5 1142.3 686.5 1142.3 640.164 1158.37 c 0,18,19
 628.591 1161.69 628.591 1161.69 618.5 1162 c 0,20,21
 568.274 1162 568.274 1162 550.978 1115.22 c 0,22,23
 546.839 1102 546.839 1102 546.5 1090 c 0,24,25
 546.5 1041.29 546.5 1041.29 596.932 1026.83 c 0,26,27
 607.745 1024.27 607.745 1024.27 616.5 1024 c 0,28,29
 670.656 1024 670.656 1024 683.956 1072.57 c 0,30,31
 686.261 1082.99 686.261 1082.99 686.5 1092 c 0,16,17
EndSplineSet
EndChar

StartChar: plusminus
Encoding: 177 177 115
Width: 1233
VWidth: 2000
GlyphClass: 2
Flags: W
HStem: 0 104<241.5 564.5 250.5 564.5 668.5 982.5> 392 104<241.5 564.5 250.5 564.5 668.5 982.5> 850 40G<590.5 642.5>
VStem: 564.5 104<104 392 104 392 496 812>
LayerCount: 2
Fore
SplineSet
1058.5 52 m 1,0,1
 1057 0.133789 1057 0.133789 982.5 0 c 2,2,-1
 250.5 0 l 1,3,4
 177.406 3.99805 177.406 3.99805 174.5 52 c 1,5,6
 176.002 103.866 176.002 103.866 250.5 104 c 2,7,-1
 564.5 104 l 1,8,-1
 564.5 392 l 1,9,-1
 250.5 392 l 1,10,11
 177.406 395.998 177.406 395.998 174.5 444 c 1,12,13
 176.002 495.866 176.002 495.866 250.5 496 c 2,14,-1
 564.5 496 l 1,15,-1
 564.5 812 l 1,16,17
 568.398 887.163 568.398 887.163 616.5 890 c 1,18,19
 668.381 888.389 668.381 888.389 668.5 812 c 2,20,-1
 668.5 496 l 1,21,-1
 982.5 496 l 1,22,23
 1055.59 492.002 1055.59 492.002 1058.5 444 c 1,24,25
 1057 392.134 1057 392.134 982.5 392 c 2,26,-1
 668.5 392 l 1,27,-1
 668.5 104 l 1,28,-1
 982.5 104 l 1,29,30
 1055.59 100.002 1055.59 100.002 1058.5 52 c 1,0,1
EndSplineSet
EndChar

StartChar: twosuperior
Encoding: 178 178 116
Width: 1233
VWidth: 2000
GlyphClass: 2
Flags: W
HStem: 624 58<516.5 758.5 516.5 800.5> 1188 58<569.5 640.5>
VStem: 410.5 82<1058 1081 1058 1118> 452.5 64<624 682> 516.5 82 644.5 64<844 868> 708.5 82 758.5 64<682 686 657 694 1013 1096>
LayerCount: 2
Fore
SplineSet
822.5 664 m 1,0,1
 819.362 630.982 819.362 630.982 800.5 624 c 1,2,-1
 452.5 624 l 1,3,4
 412.949 627.812 412.949 627.812 410.5 652 c 1,5,6
 412.876 666.436 412.876 666.436 424.5 676 c 2,7,-1
 644.5 868 l 2,8,9
 757.07 966.412 757.07 966.412 758.5 1052 c 0,10,11
 758.5 1144.74 758.5 1144.74 664.571 1177.28 c 0,12,13
 632.483 1187.68 632.483 1187.68 598.5 1188 c 0,14,15
 513.255 1188 513.255 1188 484.736 1113.29 c 0,16,17
 482.093 1105.75 482.093 1105.75 480.5 1100 c 1,18,19
 491.618 1085.32 491.618 1085.32 492.5 1072 c 1,20,21
 487.271 1035 487.271 1035 452.5 1030 c 1,22,23
 416.3 1040.12 416.3 1040.12 410.5 1076 c 1,24,25
 410.5 1163.05 410.5 1163.05 493.093 1214.96 c 0,26,27
 543.819 1245.4 543.819 1245.4 604.5 1246 c 0,28,29
 736.362 1246 736.362 1246 795.543 1149.78 c 0,30,31
 821.929 1104.65 821.929 1104.65 822.5 1052 c 0,32,33
 822.072 941.461 822.072 941.461 708.5 844 c 2,34,-1
 516.5 682 l 1,35,-1
 758.5 682 l 1,36,37
 758.5 720.471 758.5 720.471 779.113 724.925 c 0,38,39
 785.447 725.843 785.447 725.843 790.5 726 c 0,40,41
 822.337 723.273 822.337 723.273 822.5 686 c 2,42,-1
 822.5 664 l 1,0,1
EndSplineSet
EndChar

StartChar: threesuperior
Encoding: 179 179 117
Width: 1233
VWidth: 2000
GlyphClass: 2
Flags: W
HStem: 612 58<570.5 664.5 570.5 683.5> 738 58 924 58<556.5 570.5 556.5 616.5> 924 62<616.5 616.5> 1188 58<611.5 654.5>
VStem: 402.5 82<762 777 762 778> 430.5 82<1109 1130 1109 1161> 474.5 82 532.5 82 556.5 64 738.5 64<1091 1129> 766.5 64<765 822 749 825>
LayerCount: 2
Fore
SplineSet
830.5 796 m 1,0,1
 830.5 699.915 830.5 699.915 741.365 644.842 c 0,2,3
 686.852 612.583 686.852 612.583 620.5 612 c 0,4,5
 486.388 612 486.388 612 426.955 691.104 c 0,6,7
 402.5 723.655 402.5 723.655 402.5 762 c 1,8,9
 405.486 804.017 405.486 804.017 444.5 806 c 1,10,11
 479.532 799.534 479.532 799.534 484.5 766 c 1,12,13
 483.502 756.104 483.502 756.104 476.5 742 c 2,14,-1
 474.5 738 l 1,15,16
 474.5 718.392 474.5 718.392 517.25 694.422 c 0,17,18
 562.416 670.551 562.416 670.551 620.5 670 c 0,19,20
 716.153 670 716.153 670 754.016 745.847 c 0,21,22
 766.02 771.935 766.02 771.935 766.5 798 c 0,23,24
 766.5 866.347 766.5 866.347 701.611 903.333 c 0,25,26
 663.849 923.484 663.849 923.484 616.5 924 c 2,27,-1
 570.5 924 l 1,28,29
 534.438 928.492 534.438 928.492 532.5 954 c 0,30,31
 532.5 977.618 532.5 977.618 552.455 981.421 c 0,32,33
 555.482 981.854 555.482 981.854 556.5 982 c 0,34,35
 560.367 982.207 560.367 982.207 614.5 986 c 0,36,37
 714.021 993.655 714.021 993.655 735.271 1081.43 c 0,38,39
 738.5 1094.77 738.5 1094.77 738.5 1106 c 0,40,41
 738.5 1159.37 738.5 1159.37 671.213 1180.58 c 0,42,43
 646.455 1187.71 646.455 1187.71 620.5 1188 c 0,44,45
 536.889 1186.07 536.889 1186.07 504.5 1148 c 1,46,47
 504.635 1144.42 504.635 1144.42 512.5 1122 c 1,48,49
 504.218 1089.08 504.218 1089.08 472.5 1082 c 1,50,51
 436.042 1090.55 436.042 1090.55 430.5 1124 c 1,52,53
 430.5 1205.18 430.5 1205.18 534.255 1234.87 c 0,54,55
 574.406 1245.74 574.406 1245.74 620.5 1246 c 0,56,57
 737.806 1246 737.806 1246 785.311 1166.99 c 0,58,59
 801.93 1137.25 801.93 1137.25 802.5 1106 c 0,60,61
 800.039 1010.06 800.039 1010.06 714.5 956 c 1,62,63
 823.587 899.091 823.587 899.091 830.5 796 c 1,0,1
EndSplineSet
EndChar

StartChar: acute
Encoding: 180 180 118
Width: 1233
VWidth: 2000
GlyphClass: 2
Flags: W
HStem: 1010 42G<446.5 466.5> 1204 40G<762.5 777.5>
LayerCount: 2
Fore
SplineSet
814.5 1194 m 0,0,1
 814.5 1160.85 814.5 1160.85 772.6 1141.79 c 0,2,3
 769.548 1140.46 769.548 1140.46 768.5 1140 c 2,4,-1
 480.5 1012 l 1,5,-1
 466.5 1010 l 1,6,7
 423.606 1014.95 423.606 1014.95 418.5 1072 c 1,8,9
 421.483 1097.75 421.483 1097.75 456.5 1112 c 2,10,-1
 732.5 1236 l 1,11,-1
 762.5 1244 l 1,12,13
 803.607 1244 803.607 1244 812.989 1206.44 c 0,14,15
 814.5 1200.39 814.5 1200.39 814.5 1194 c 0,0,1
EndSplineSet
EndChar

StartChar: mu
Encoding: 181 181 119
Width: 1233
VWidth: 2000
GlyphClass: 2
Flags: W
HStem: -460 84<171.502 296.501 184.502 296.501 396.501 508.501 508.501 510.501> -12 84<537.502 608.502> 0 84<884.502 1050.5 936.502 1048.5> 766 84<171.502 334.501 184.502 296.501 724.502 836.502>
VStem: 296.501 100<-376 24 190 228 228 766 766 766> 836.502 100<304 766 766 766>
LayerCount: 2
Fore
SplineSet
1112.5 44 m 1,0,1
 1110.21 0.106445 1110.21 0.106445 1048.5 0 c 2,2,-1
 898.502 0 l 2,3,4
 853.505 0 853.505 0 841.683 35.4443 c 0,5,6
 835.425 56.5801 835.425 56.5801 834.502 86 c 1,7,8
 703.835 -12 703.835 -12 568.502 -12 c 0,9,10
 457.979 -11.0312 457.979 -11.0312 396.502 24 c 1,11,-1
 396.502 -376 l 1,12,-1
 508.502 -376 l 1,13,14
 570.133 -379.815 570.133 -379.815 572.502 -418 c 1,15,16
 570.317 -459.887 570.317 -459.887 510.502 -460 c 2,17,-1
 182.502 -460 l 1,18,19
 122.941 -456.065 122.941 -456.065 120.502 -418 c 1,20,21
 122.797 -376.102 122.797 -376.102 184.502 -376 c 2,22,-1
 296.502 -376 l 1,23,-1
 296.502 766 l 1,24,-1
 182.502 766 l 1,25,26
 122.941 769.747 122.941 769.747 120.502 806 c 1,27,28
 122.797 849.894 122.797 849.894 184.502 850 c 2,29,-1
 334.502 850 l 2,30,31
 387.889 850 387.889 850 394.407 816.25 c 0,32,33
 396.397 803.627 396.397 803.627 396.502 786 c 2,34,-1
 396.502 228 l 2,35,36
 396.502 139.107 396.502 139.107 431.681 108.729 c 0,37,38
 476.732 72.5186 476.732 72.5186 580.502 72 c 0,39,40
 727.811 72 727.811 72 795.968 164.976 c 0,41,42
 835.875 222.003 835.875 222.003 836.502 304 c 2,43,-1
 836.502 766 l 1,44,-1
 722.502 766 l 1,45,46
 662.94 769.747 662.94 769.747 660.502 806 c 1,47,48
 662.797 849.894 662.797 849.894 724.502 850 c 2,49,-1
 874.502 850 l 2,50,51
 927.889 850 927.889 850 934.407 816.25 c 0,52,53
 936.397 803.627 936.397 803.627 936.502 786 c 2,54,-1
 936.502 84 l 1,55,-1
 1050.5 84 l 1,56,57
 1110.06 80.2529 1110.06 80.2529 1112.5 44 c 1,0,1
EndSplineSet
EndChar

StartChar: paragraph
Encoding: 182 182 120
Width: 1233
VWidth: 2000
GlyphClass: 2
Flags: W
HStem: -402 42G<688.5 702.5 883.5 898.5> 1354 40G<593.5 1025.5 1025.5 1033.5>
VStem: 669.5 52<-354 474 474 474> 863.5 54<-354 1352>
LayerCount: 2
Fore
SplineSet
1063.5 1372 m 1,0,1
 1060.93 1352.12 1060.93 1352.12 1025.5 1352 c 2,2,-1
 917.5 1352 l 1,3,-1
 917.5 -354 l 2,4,5
 917.5 -386.695 917.5 -386.695 898.287 -399.694 c 0,6,7
 893.869 -401.511 893.869 -401.511 891.5 -402 c 0,8,9
 870.426 -392.194 870.426 -392.194 863.5 -354 c 1,10,-1
 863.5 1352 l 1,11,-1
 721.5 1352 l 1,12,-1
 721.5 -354 l 2,13,14
 721.5 -386.695 721.5 -386.695 702.287 -399.694 c 0,15,16
 697.869 -401.511 697.869 -401.511 695.5 -402 c 0,17,18
 676.324 -392.194 676.324 -392.194 669.5 -354 c 1,19,-1
 669.5 474 l 1,20,21
 432.983 485.925 432.983 485.925 291.06 628.091 c 0,22,23
 170.368 751.562 170.368 751.562 169.5 936 c 0,24,25
 169.5 1141.58 169.5 1141.58 312.641 1278.81 c 0,26,27
 434.13 1393.08 434.13 1393.08 593.5 1394 c 2,28,-1
 1025.5 1394 l 1,29,30
 1061.38 1390.71 1061.38 1390.71 1063.5 1372 c 1,0,1
EndSplineSet
EndChar

StartChar: periodcentered
Encoding: 183 183 121
Width: 1233
VWidth: 2000
GlyphClass: 2
Flags: W
HStem: 502 218<587.5 645.5 584.5 648.5>
VStem: 507.5 218<583 639>
LayerCount: 2
Fore
SplineSet
725.5 610 m 0,0,1
 725.5 544.988 725.5 544.988 666.973 514.38 c 0,2,3
 642.051 502.492 642.051 502.492 615.5 502 c 0,4,5
 549.936 502 549.936 502 519.521 561.404 c 0,6,7
 507.5 584.882 507.5 584.882 507.5 612 c 0,8,9
 507.5 677.012 507.5 677.012 566.027 707.62 c 0,10,11
 590.949 719.508 590.949 719.508 617.5 720 c 0,12,13
 683.064 720 683.064 720 713.479 660.596 c 0,14,15
 725.016 635.904 725.016 635.904 725.5 610 c 0,0,1
EndSplineSet
EndChar

StartChar: cedilla
Encoding: 184 184 122
Width: 1233
VWidth: 2000
GlyphClass: 2
Flags: W
HStem: -430 86<434.5 499.5>
VStem: 564.5 102<-56 -18 -56 -14 -56 1> 770.5 100<-285 -216>
LayerCount: 2
Fore
SplineSet
870.5 -240 m 0,0,1
 870.5 -408.617 870.5 -408.617 560.17 -426.875 c 0,2,3
 505.223 -429.999 505.223 -429.999 406.5 -430 c 1,4,5
 365.073 -425.76 365.073 -425.76 362.5 -386 c 1,6,7
 362.5 -348.347 362.5 -348.347 420.339 -344.819 c 0,8,9
 435.962 -344.003 435.962 -344.003 466.5 -344 c 0,10,11
 681.215 -344 681.215 -344 748.948 -283.645 c 0,12,13
 769.508 -263.025 769.508 -263.025 770.5 -240 c 0,14,15
 770.5 -179.278 770.5 -179.278 688.537 -150.256 c 0,16,17
 653.691 -138.601 653.691 -138.601 612.5 -136 c 1,18,19
 566.247 -119.639 566.247 -119.639 564.5 -70 c 2,20,-1
 564.5 -14 l 2,21,22
 564.5 41.2285 564.5 41.2285 596.264 49.667 c 0,23,24
 606.457 51.7871 606.457 51.7871 616.5 52 c 0,25,26
 657.71 52 657.71 52 663.96 10.9473 c 0,27,28
 666.496 -8.21973 666.496 -8.21973 666.5 -56 c 1,29,30
 842.614 -91.2227 842.614 -91.2227 867.34 -209.335 c 0,31,32
 870.31 -225.449 870.31 -225.449 870.5 -240 c 0,0,1
EndSplineSet
EndChar

StartChar: onesuperior
Encoding: 185 185 123
Width: 1233
VWidth: 2000
GlyphClass: 2
Flags: W
HStem: 624 58<491.5 586.5 498.5 586.5 652.5 740.5> 1066 58<481.5 488.5 481.5 512.5>
VStem: 586.5 66<682 1110 1110 1110>
LayerCount: 2
Fore
SplineSet
780.5 652 m 1,0,1
 778.314 624.175 778.314 624.175 740.5 624 c 2,2,-1
 498.5 624 l 1,3,4
 460.88 627.993 460.88 627.993 458.5 652 c 1,5,6
 460.686 681.812 460.686 681.812 498.5 682 c 2,7,-1
 586.5 682 l 1,8,-1
 586.5 1110 l 1,9,10
 586.5 1110 586.5 1110 546.076 1082.24 c 1,11,12
 514.341 1066 514.341 1066 484.5 1066 c 1,13,14
 454.449 1069.3 454.449 1069.3 452.5 1096 c 1,15,16
 454.902 1123.34 454.902 1123.34 488.5 1124 c 1,17,18
 549.581 1130.83 549.581 1130.83 594.5 1224 c 0,19,20
 606.629 1244.77 606.629 1244.77 622.5 1246 c 1,21,22
 652.312 1243.81 652.312 1243.81 652.5 1206 c 2,23,-1
 652.5 682 l 1,24,-1
 740.5 682 l 1,25,26
 778.12 677.722 778.12 677.722 780.5 652 c 1,0,1
EndSplineSet
EndChar

StartChar: ordmasculine
Encoding: 186 186 124
Width: 1233
VWidth: 2000
GlyphClass: 2
Flags: W
HStem: 490 48<436.5 785.5 447.5 785.5> 640 48<558.5 675.5 558.5 690.5> 1198 46<560.5 674.5>
VStem: 339.5 58<878 1024 878 1025> 835.5 58<878 1024>
LayerCount: 2
Fore
SplineSet
893.5 940 m 0,0,1
 893.5 789.997 893.5 789.997 780.015 699.033 c 0,2,3
 706.366 640 706.366 640 617.5 640 c 0,4,5
 484.329 640 484.329 640 399.998 753.636 c 0,6,7
 340.214 836.48 340.214 836.48 339.5 940 c 0,8,9
 339.5 1094.62 339.5 1094.62 453.525 1185.59 c 0,10,11
 527.988 1243.23 527.988 1243.23 617.5 1244 c 0,12,13
 752.548 1244 752.548 1244 835.826 1125.85 c 0,14,15
 892.82 1042.73 892.82 1042.73 893.5 940 c 0,0,1
827.5 512 m 1,16,17
 824.373 491.353 824.373 491.353 785.5 490 c 2,18,-1
 447.5 490 l 2,19,20
 408.283 491.959 408.283 491.959 405.5 512 c 1,21,22
 408.627 536.315 408.627 536.315 447.5 538 c 2,23,-1
 785.5 538 l 1,24,25
 824.628 535.756 824.628 535.756 827.5 512 c 1,16,17
835.5 952 m 0,26,27
 835.5 1090.1 835.5 1090.1 731.699 1161.59 c 0,28,29
 677.684 1197.33 677.684 1197.33 617.5 1198 c 0,30,31
 508.408 1198 508.408 1198 441.771 1100.31 c 0,32,33
 398.149 1034.05 398.149 1034.05 397.5 952 c 0,34,35
 397.5 810.421 397.5 810.421 497.105 731.657 c 0,36,37
 553.496 688.775 553.496 688.775 617.5 688 c 0,38,39
 725.462 688 725.462 688 791.864 794.642 c 0,40,41
 834.896 865.998 834.896 865.998 835.5 952 c 0,26,27
EndSplineSet
EndChar

StartChar: guillemotright
Encoding: 187 187 125
Width: 1233
VWidth: 2000
GlyphClass: 2
Flags: W
HStem: 168 42G<208.5 219.5 544.5 554.5> 1016 40G<208.5 219.5 544.5 554.5>
LayerCount: 2
Fore
SplineSet
1041.5 612 m 1,0,1
 1040.36 586.285 1040.36 586.285 1025.5 570 c 1,2,-1
 575.5 182 l 2,3,4
 559.167 168 559.167 168 551.5 168 c 0,5,6
 527.102 171.743 527.102 171.743 525.5 212 c 0,7,8
 525.5 236 525.5 236 547.489 258.007 c 2,9,-1
 549.5 260 l 1,10,-1
 957.5 612 l 1,11,-1
 549.5 964 l 1,12,13
 526.5 990.106 526.5 990.106 525.5 1012 c 0,14,15
 527.395 1053.47 527.395 1053.47 551.5 1056 c 1,16,17
 562.109 1053.2 562.109 1053.2 575.5 1042 c 2,18,-1
 1019.5 658 l 1,19,20
 1040.37 634.132 1040.37 634.132 1041.5 612 c 1,0,1
705.5 612 m 1,21,22
 704.099 583.283 704.099 583.283 689.5 570 c 2,23,-1
 239.5 182 l 2,24,25
 224.072 168.449 224.072 168.449 215.5 168 c 0,26,27
 192.842 171.743 192.842 171.743 191.5 212 c 1,28,29
 192.999 240.864 192.999 240.864 215.5 260 c 2,30,-1
 621.5 612 l 1,31,-1
 215.5 964 l 2,32,33
 192.514 986.282 192.514 986.282 191.5 1012 c 1,34,35
 193.384 1053.65 193.384 1053.65 215.5 1056 c 1,36,37
 227.907 1053.2 227.907 1053.2 239.5 1042 c 2,38,-1
 683.5 658 l 2,39,40
 704.344 638.305 704.344 638.305 705.5 612 c 1,21,22
EndSplineSet
EndChar

StartChar: onequarter
Encoding: 188 188 126
Width: 1233
VWidth: 2000
GlyphClass: 2
Flags: W
HStem: -32 42G<310.5 332.5> 0 58<840.5 907.5 847.5 907.5 963.5 1023.5> 168 58<649.5 907.5 689.5 907.5 689.5 907.5 963.5 1039.5 689.5 963.5> 624 58<192.5 287.5 199.5 287.5 353.5 441.5> 1066 58<182.5 189.5 182.5 213.5> 1214 40G<996.5 1014.5>
VStem: 287.5 66<682 1110 1110 1110> 907.5 56<58 168 58 168 226 576 576 576>
LayerCount: 2
Fore
SplineSet
481.5 652 m 1,0,1
 479.314 624.175 479.314 624.175 441.5 624 c 2,2,-1
 199.5 624 l 1,3,4
 161.88 627.993 161.88 627.993 159.5 652 c 1,5,6
 161.686 681.812 161.686 681.812 199.5 682 c 2,7,-1
 287.5 682 l 1,8,-1
 287.5 1110 l 1,9,10
 287.5 1110 287.5 1110 247.076 1082.24 c 1,11,12
 215.341 1066 215.341 1066 185.5 1066 c 1,13,14
 155.449 1069.3 155.449 1069.3 153.5 1096 c 1,15,16
 155.902 1123.34 155.902 1123.34 189.5 1124 c 1,17,18
 250.581 1130.83 250.581 1130.83 295.5 1224 c 0,19,20
 307.629 1244.77 307.629 1244.77 323.5 1246 c 1,21,22
 353.312 1243.81 353.312 1243.81 353.5 1206 c 2,23,-1
 353.5 682 l 1,24,-1
 441.5 682 l 1,25,26
 479.12 677.722 479.12 677.722 481.5 652 c 1,0,1
1079.5 198 m 1,27,28
 1077.31 168.188 1077.31 168.188 1039.5 168 c 2,29,-1
 963.5 168 l 1,30,-1
 963.5 58 l 1,31,-1
 1023.5 58 l 1,32,33
 1061.12 54.0068 1061.12 54.0068 1063.5 30 c 1,34,35
 1061.31 0.1875 1061.31 0.1875 1023.5 0 c 2,36,-1
 847.5 0 l 1,37,38
 809.88 4.27832 809.88 4.27832 807.5 30 c 1,39,40
 809.686 57.8252 809.686 57.8252 847.5 58 c 2,41,-1
 907.5 58 l 1,42,-1
 907.5 168 l 1,43,-1
 663.5 168 l 2,44,45
 629.462 168 629.462 168 624.972 190.016 c 0,46,47
 623.643 198.803 623.643 198.803 623.5 208 c 0,48,49
 624.908 229.826 624.908 229.826 631.5 240 c 2,50,-1
 859.5 606 l 1,51,52
 879.049 625.455 879.049 625.455 899.5 626 c 2,53,-1
 923.5 626 l 2,54,55
 958.214 626 958.214 626 962.183 604.106 c 0,56,57
 963.399 595.078 963.399 595.078 963.5 584 c 2,58,-1
 963.5 226 l 1,59,-1
 1039.5 226 l 1,60,61
 1077.12 222.007 1077.12 222.007 1079.5 198 c 1,27,28
1027.5 1218 m 0,62,63
 1026.82 1202.65 1026.82 1202.65 1013.5 1180 c 2,64,-1
 361.5 -4 l 1,65,66
 342.126 -30.6543 342.126 -30.6543 323.5 -32 c 1,67,68
 295.312 -20.6152 295.312 -20.6152 293.5 12 c 0,69,70
 293.5 17.0039 293.5 17.0039 302.2 30.6279 c 0,71,72
 306.481 37.8818 306.481 37.8818 307.5 40 c 2,73,-1
 961.5 1226 l 1,74,75
 980.451 1252.49 980.451 1252.49 1005.5 1254 c 1,76,77
 1026.28 1251.9 1026.28 1251.9 1027.5 1218 c 0,62,63
907.5 226 m 1,78,-1
 907.5 576 l 1,79,-1
 689.5 226 l 1,80,-1
 907.5 226 l 1,78,-1
EndSplineSet
EndChar

StartChar: onehalf
Encoding: 189 189 127
Width: 1233
VWidth: 2000
GlyphClass: 2
Flags: W
HStem: -4 62 0 58<685.5 711.5 685.5 1049.5> 0 62<783.5 1021.5 783.5 1049.5>
VStem: 175.5 66 189.5 68 227.5 68<-4 16> 277.5 66<682 1110 1110 1110> 669.5 90<438 458 438 498> 715.5 68 895.5 66<1214 1226> 981.5 68 1021.5 68<62 68 26 76 393 472>
LayerCount: 2
Fore
SplineSet
471.5 652 m 1,0,1
 469.314 624.175 469.314 624.175 431.5 624 c 2,2,-1
 189.5 624 l 1,3,4
 151.88 627.993 151.88 627.993 149.5 652 c 1,5,6
 151.686 681.812 151.686 681.812 189.5 682 c 2,7,-1
 277.5 682 l 1,8,-1
 277.5 1110 l 1,9,10
 277.5 1110 277.5 1110 237.076 1082.24 c 1,11,12
 205.341 1066 205.341 1066 175.5 1066 c 1,13,14
 145.449 1069.3 145.449 1069.3 143.5 1096 c 1,15,16
 145.902 1123.34 145.902 1123.34 179.5 1124 c 1,17,18
 240.581 1130.83 240.581 1130.83 285.5 1224 c 0,19,20
 297.629 1244.77 297.629 1244.77 313.5 1246 c 1,21,22
 343.312 1243.81 343.312 1243.81 343.5 1206 c 2,23,-1
 343.5 682 l 1,24,-1
 431.5 682 l 1,25,26
 469.12 677.722 469.12 677.722 471.5 652 c 1,0,1
1089.5 42 m 2,27,28
 1089.5 5.2998 1089.5 5.2998 1066.03 1.1709 c 0,29,30
 1057.84 0.119141 1057.84 0.119141 1049.5 0 c 2,31,-1
 711.5 0 l 1,32,33
 671.78 4.35742 671.78 4.35742 669.5 32 c 0,34,35
 669.5 46 669.5 46 683.961 56.7734 c 2,36,-1
 685.5 58 l 1,37,-1
 905.5 244 l 2,38,39
 1020.19 343.575 1020.19 343.575 1021.5 428 c 0,40,41
 1021.5 519.712 1021.5 519.712 926.703 551.646 c 0,42,43
 894.864 561.685 894.864 561.685 861.5 562 c 0,44,45
 785.855 562 785.855 562 753.16 502.188 c 0,46,47
 748.241 492.314 748.241 492.314 745.5 484 c 1,48,49
 758.286 472.191 758.286 472.191 759.5 452 c 1,50,51
 751.166 415.438 751.166 415.438 715.5 408 c 1,52,53
 672.256 412.605 672.256 412.605 669.5 456 c 1,54,55
 669.5 541.646 669.5 541.646 753.312 591.815 c 0,56,57
 805.086 621.432 805.086 621.432 867.5 622 c 0,58,59
 1002.5 622 1002.5 622 1062.12 526.915 c 0,60,61
 1088.93 481.891 1088.93 481.891 1089.5 428 c 0,62,63
 1087.64 324.651 1087.64 324.651 981.5 228 c 0,64,65
 956.729 205.48 956.729 205.48 873.8 137.273 c 0,66,67
 808.596 83.5791 808.596 83.5791 783.5 62 c 1,68,-1
 1021.5 62 l 1,69,70
 1021.5 101.437 1021.5 101.437 1040.67 106.409 c 0,71,72
 1048.3 107.813 1048.3 107.813 1055.5 108 c 0,73,74
 1089.33 105.273 1089.33 105.273 1089.5 68 c 2,75,-1
 1089.5 42 l 2,27,28
961.5 1218 m 0,76,77
 960.821 1202.65 960.821 1202.65 947.5 1180 c 2,78,-1
 295.5 -4 l 1,79,80
 276.126 -30.6543 276.126 -30.6543 257.5 -32 c 1,81,82
 229.312 -20.6152 229.312 -20.6152 227.5 12 c 0,83,84
 227.5 17.0039 227.5 17.0039 236.2 30.6279 c 0,85,86
 240.481 37.8818 240.481 37.8818 241.5 40 c 2,87,-1
 895.5 1226 l 1,88,89
 914.451 1252.49 914.451 1252.49 939.5 1254 c 1,90,91
 960.281 1251.9 960.281 1251.9 961.5 1218 c 0,76,77
EndSplineSet
EndChar

StartChar: threequarters
Encoding: 190 190 128
Width: 1233
VWidth: 2000
GlyphClass: 2
Flags: W
HStem: -32 42G<314.5 336.5> 0 58<844.5 911.5 851.5 911.5 967.5 1027.5> 168 58<653.5 911.5 693.5 911.5 693.5 911.5 967.5 1043.5 693.5 967.5> 612 58<315.5 409.5 315.5 428.5> 1188 58<357.5 399.5> 1214 40G<1000.5 1018.5>
VStem: 149.5 80<762 777 762 778> 177.5 80<1109 1130 1109 1161> 221.5 56 483.5 66<1091 1129> 511.5 66<765 822 749 825> 911.5 56<58 168 58 168 226 576 576 576>
LayerCount: 2
Fore
SplineSet
577.5 796 m 1,0,1
 577.5 701.291 577.5 701.291 488.582 645.826 c 0,2,3
 433.004 612.592 433.004 612.592 365.5 612 c 0,4,5
 230.495 612 230.495 612 172.54 692.442 c 0,6,7
 150.178 725.646 150.178 725.646 149.5 762 c 1,8,9
 152.226 803.932 152.226 803.932 189.5 806 c 1,10,11
 224.532 799.534 224.532 799.534 229.5 766 c 0,12,13
 229.5 754 229.5 754 223.5 742 c 2,14,-1
 221.5 738 l 1,15,16
 221.5 717.698 221.5 717.698 264.299 693.748 c 0,17,18
 308.362 670.543 308.362 670.543 365.5 670 c 0,19,20
 461.153 670 461.153 670 499.016 745.847 c 0,21,22
 511.02 771.935 511.02 771.935 511.5 798 c 0,23,24
 511.5 866.347 511.5 866.347 446.611 903.333 c 0,25,26
 408.849 923.484 408.849 923.484 361.5 924 c 2,27,-1
 315.5 924 l 1,28,29
 279.62 928.492 279.62 928.492 277.5 954 c 0,30,31
 277.5 977.304 277.5 977.304 299.426 981.421 c 0,32,33
 302.467 981.854 302.467 981.854 303.5 982 c 2,34,-1
 359.5 986 l 2,35,36
 461.98 993.734 461.98 993.734 480.97 1083.65 c 0,37,38
 483.302 1096.22 483.302 1096.22 483.5 1106 c 0,39,40
 483.5 1159.37 483.5 1159.37 416.213 1180.58 c 0,41,42
 391.455 1187.71 391.455 1187.71 365.5 1188 c 0,43,44
 281.958 1186.07 281.958 1186.07 249.5 1148 c 1,45,46
 249.635 1144.42 249.635 1144.42 257.5 1122 c 1,47,48
 249.218 1089.08 249.218 1089.08 217.5 1082 c 1,49,50
 180.278 1086.42 180.278 1086.42 177.5 1124 c 1,51,52
 177.5 1204.66 177.5 1204.66 279.724 1234.64 c 0,53,54
 319.72 1245.73 319.72 1245.73 365.5 1246 c 0,55,56
 481.91 1246 481.91 1246 530.975 1168.5 c 0,57,58
 548.896 1138.08 548.896 1138.08 549.5 1106 c 0,59,60
 547.117 1011.85 547.117 1011.85 461.5 956 c 1,61,62
 570.587 899.091 570.587 899.091 577.5 796 c 1,0,1
1083.5 198 m 1,63,64
 1081.31 168.188 1081.31 168.188 1043.5 168 c 2,65,-1
 967.5 168 l 1,66,-1
 967.5 58 l 1,67,-1
 1027.5 58 l 1,68,69
 1065.12 54.0068 1065.12 54.0068 1067.5 30 c 1,70,71
 1065.31 0.1875 1065.31 0.1875 1027.5 0 c 2,72,-1
 851.5 0 l 1,73,74
 813.88 4.27832 813.88 4.27832 811.5 30 c 1,75,76
 813.686 57.8252 813.686 57.8252 851.5 58 c 2,77,-1
 911.5 58 l 1,78,-1
 911.5 168 l 1,79,-1
 667.5 168 l 2,80,81
 633.462 168 633.462 168 628.972 190.016 c 0,82,83
 627.643 198.803 627.643 198.803 627.5 208 c 0,84,85
 628.908 229.826 628.908 229.826 635.5 240 c 2,86,-1
 863.5 606 l 1,87,88
 883.049 625.455 883.049 625.455 903.5 626 c 2,89,-1
 927.5 626 l 2,90,91
 962.214 626 962.214 626 966.183 604.106 c 0,92,93
 967.399 595.078 967.399 595.078 967.5 584 c 2,94,-1
 967.5 226 l 1,95,-1
 1043.5 226 l 1,96,97
 1081.12 222.007 1081.12 222.007 1083.5 198 c 1,63,64
911.5 226 m 1,98,-1
 911.5 576 l 1,99,-1
 693.5 226 l 1,100,-1
 911.5 226 l 1,98,-1
1031.5 1218 m 0,101,102
 1030.82 1202.65 1030.82 1202.65 1017.5 1180 c 2,103,-1
 365.5 -4 l 1,104,105
 346.126 -30.6543 346.126 -30.6543 327.5 -32 c 1,106,107
 299.312 -20.6152 299.312 -20.6152 297.5 12 c 0,108,109
 297.5 17.0039 297.5 17.0039 306.2 30.6279 c 0,110,111
 310.481 37.8818 310.481 37.8818 311.5 40 c 2,112,-1
 965.5 1226 l 1,113,114
 984.451 1252.49 984.451 1252.49 1009.5 1254 c 1,115,116
 1030.28 1251.9 1030.28 1251.9 1031.5 1218 c 0,101,102
EndSplineSet
EndChar

StartChar: questiondown
Encoding: 191 191 129
Width: 1233
VWidth: 2000
GlyphClass: 2
Flags: W
HStem: -472 86<567.5 607.5 567.5 619.5> 296 86 598 164<561.5 608.5>
VStem: 224.5 100<-259 -203 -308 -183> 398.5 124 522.5 124<284 318 318 328 256 346> 866.5 142<-244 -214 -356 -213>
LayerCount: 2
Fore
SplineSet
668.5 680 m 0,0,1
 668.5 621.464 668.5 621.464 613.468 602.703 c 0,2,3
 598.533 598.312 598.533 598.312 584.5 598 c 0,4,5
 526.694 598 526.694 598 507.429 651.428 c 0,6,7
 502.832 666.22 502.832 666.22 502.5 680 c 0,8,9
 502.5 737.806 502.5 737.806 555.928 757.071 c 0,10,11
 570.72 761.668 570.72 761.668 584.5 762 c 0,12,13
 644.663 762 644.663 762 663.777 707.938 c 0,14,15
 668.5 694.58 668.5 694.58 668.5 680 c 0,0,1
1008.5 -240 m 0,16,17
 1008.5 -426.165 1008.5 -426.165 719.633 -464.123 c 0,18,19
 658.796 -471.994 658.796 -471.994 588.5 -472 c 0,20,21
 292.443 -472 292.443 -472 235.003 -299.592 c 0,22,23
 224.717 -267.506 224.717 -267.506 224.5 -236 c 0,24,25
 226.63 -132.018 226.63 -132.018 336.5 -50 c 1,26,27
 522.202 76.457 522.202 76.457 522.5 284 c 2,28,-1
 522.5 318 l 2,29,30
 522.5 373.165 522.5 373.165 555.406 379.875 c 0,31,32
 567.608 381.893 567.608 381.893 584.5 382 c 0,33,34
 637.06 382 637.06 382 643.868 348.493 c 0,35,36
 646.493 333.043 646.493 333.043 646.5 296 c 0,37,38
 646.5 136.228 646.5 136.228 555.337 20.9531 c 0,39,40
 494.347 -54.5996 494.347 -54.5996 398.5 -120 c 1,41,42
 326.101 -166.8 326.101 -166.8 324.5 -236 c 0,43,44
 324.5 -363.504 324.5 -363.504 534.965 -383.351 c 0,45,46
 563.599 -385.939 563.599 -385.939 590.5 -386 c 0,47,48
 801.855 -384.263 801.855 -384.263 892.5 -296 c 1,49,50
 866.795 -266.554 866.795 -266.554 866.5 -236 c 0,51,52
 866.5 -181.793 866.5 -181.793 916.719 -166.905 c 0,53,54
 927.517 -164.269 927.517 -164.269 936.5 -164 c 0,55,56
 989.833 -164 989.833 -164 1004.89 -214.089 c 0,57,58
 1008.23 -227.323 1008.23 -227.323 1008.5 -240 c 0,16,17
EndSplineSet
EndChar

StartChar: Agrave
Encoding: 192 192 130
Width: 1233
VWidth: 2000
GlyphClass: 2
Flags: W
HStem: 0 84<206.5 270.5 249.5 270.5 376.5 418.5 814.5 856.5 962.5 983.5> 342 84<454.5 778.5 454.5 800.5 432.5 778.5> 1162 84<610.5 624.5 610.5 610.5> 1346 42G<766.5 786.5> 1542 40G<455.5 470.5>
LayerCount: 2
Fore
SplineSet
1082.5 42 m 1,0,1
 1080.23 0.0859375 1080.23 0.0859375 1012.5 0 c 2,2,-1
 802.5 0 l 1,3,4
 740.661 7.18262 740.661 7.18262 736.5 42 c 1,5,6
 736.5 76.7363 736.5 76.7363 782.868 81.9297 c 0,7,8
 803.825 83.9971 803.825 83.9971 856.5 84 c 1,9,-1
 800.5 342 l 1,10,-1
 432.5 342 l 1,11,-1
 376.5 84 l 1,12,13
 475.5 84 475.5 84 489.562 66.2812 c 0,14,15
 495.994 55.6934 495.994 55.6934 496.5 42 c 1,16,17
 491.31 0.323242 491.31 0.323242 430.5 0 c 2,18,-1
 218.5 0 l 1,19,20
 152.958 3.59766 152.958 3.59766 150.5 42 c 1,21,22
 152.84 69.752 152.84 69.752 174.5 82 c 1,23,24
 189.114 83.998 189.114 83.998 270.5 84 c 1,25,-1
 524.5 1184 l 2,26,27
 538.711 1239.07 538.711 1239.07 580.416 1244.6 c 0,28,29
 593.149 1245.99 593.149 1245.99 616.5 1246 c 0,30,31
 675.298 1246 675.298 1246 691.105 1224.45 c 0,32,33
 701.62 1208.35 701.62 1208.35 708.5 1182 c 2,34,-1
 962.5 84 l 1,35,36
 1043.6 83.875 1043.6 83.875 1056.5 82 c 1,37,38
 1081.54 69.334 1081.54 69.334 1082.5 42 c 1,0,1
778.5 426 m 1,39,-1
 624.5 1162 l 1,40,-1
 610.5 1162 l 1,41,-1
 454.5 426 l 1,42,-1
 778.5 426 l 1,39,-1
814.5 1408 m 1,43,44
 814.5 1363.71 814.5 1363.71 783.458 1349.53 c 0,45,46
 774.43 1346.38 774.43 1346.38 766.5 1346 c 0,47,48
 764.465 1346.85 764.465 1346.85 752.5 1350 c 2,49,-1
 464.5 1478 l 2,50,51
 419.745 1498.69 419.745 1498.69 418.5 1530 c 1,52,53
 428.544 1574.66 428.544 1574.66 470.5 1582 c 1,54,55
 474.019 1580.5 474.019 1580.5 500.5 1574 c 1,56,-1
 776.5 1450 l 1,57,58
 811.667 1426.22 811.667 1426.22 814.5 1408 c 1,43,44
EndSplineSet
EndChar

StartChar: Aacute
Encoding: 193 193 131
Width: 1233
VWidth: 2000
GlyphClass: 2
Flags: W
HStem: 0 84<206.5 270.5 249.5 270.5 376.5 418.5 814.5 856.5 962.5 983.5> 342 84<454.5 778.5 454.5 800.5 432.5 778.5> 1162 84<610.5 624.5 610.5 610.5> 1346 42G<448.5 468.5> 1542 40G<764.5 779.5>
LayerCount: 2
Fore
SplineSet
1082.5 42 m 1,0,1
 1080.23 0.0859375 1080.23 0.0859375 1012.5 0 c 2,2,-1
 802.5 0 l 1,3,4
 740.661 7.18262 740.661 7.18262 736.5 42 c 1,5,6
 736.5 76.7363 736.5 76.7363 782.868 81.9297 c 0,7,8
 803.825 83.9971 803.825 83.9971 856.5 84 c 1,9,-1
 800.5 342 l 1,10,-1
 432.5 342 l 1,11,-1
 376.5 84 l 1,12,13
 475.5 84 475.5 84 489.562 66.2812 c 0,14,15
 495.994 55.6934 495.994 55.6934 496.5 42 c 1,16,17
 491.31 0.323242 491.31 0.323242 430.5 0 c 2,18,-1
 218.5 0 l 1,19,20
 152.958 3.59766 152.958 3.59766 150.5 42 c 1,21,22
 152.84 69.752 152.84 69.752 174.5 82 c 1,23,24
 189.114 83.998 189.114 83.998 270.5 84 c 1,25,-1
 524.5 1184 l 2,26,27
 538.711 1239.07 538.711 1239.07 580.416 1244.6 c 0,28,29
 593.149 1245.99 593.149 1245.99 616.5 1246 c 0,30,31
 675.298 1246 675.298 1246 691.105 1224.45 c 0,32,33
 701.62 1208.35 701.62 1208.35 708.5 1182 c 2,34,-1
 962.5 84 l 1,35,36
 1043.6 83.875 1043.6 83.875 1056.5 82 c 1,37,38
 1081.54 69.334 1081.54 69.334 1082.5 42 c 1,0,1
778.5 426 m 1,39,-1
 624.5 1162 l 1,40,-1
 610.5 1162 l 1,41,-1
 454.5 426 l 1,42,-1
 778.5 426 l 1,39,-1
816.5 1530 m 1,43,44
 816.5 1498.91 816.5 1498.91 774.753 1479.86 c 0,45,46
 771.624 1478.49 771.624 1478.49 770.5 1478 c 2,47,-1
 482.5 1350 l 1,48,49
 468.5 1346 468.5 1346 468.5 1346 c 1,50,51
 427.241 1352.35 427.241 1352.35 420.5 1408 c 1,52,53
 420.5 1432 420.5 1432 456.19 1448.85 c 2,54,-1
 458.5 1450 l 1,55,-1
 734.5 1574 l 1,56,-1
 764.5 1582 l 1,57,58
 809.163 1571.96 809.163 1571.96 816.5 1530 c 1,43,44
EndSplineSet
EndChar

StartChar: Acircumflex
Encoding: 194 194 132
Width: 1233
VWidth: 2000
GlyphClass: 2
Flags: W
HStem: 0 84<206.5 270.5 249.5 270.5 376.5 418.5 814.5 856.5 962.5 983.5> 342 84<454.5 778.5 454.5 800.5 432.5 778.5> 1162 84<610.5 624.5 610.5 610.5> 1326 42G<361.5 384.5 848.5 871.5>
LayerCount: 2
Fore
SplineSet
1082.5 42 m 1,0,1
 1080.23 0.0859375 1080.23 0.0859375 1012.5 0 c 2,2,-1
 802.5 0 l 1,3,4
 740.661 7.18262 740.661 7.18262 736.5 42 c 1,5,6
 736.5 76.7363 736.5 76.7363 782.868 81.9297 c 0,7,8
 803.825 83.9971 803.825 83.9971 856.5 84 c 1,9,-1
 800.5 342 l 1,10,-1
 432.5 342 l 1,11,-1
 376.5 84 l 1,12,13
 475.5 84 475.5 84 489.562 66.2812 c 0,14,15
 495.994 55.6934 495.994 55.6934 496.5 42 c 1,16,17
 491.31 0.323242 491.31 0.323242 430.5 0 c 2,18,-1
 218.5 0 l 1,19,20
 152.958 3.59766 152.958 3.59766 150.5 42 c 1,21,22
 152.84 69.752 152.84 69.752 174.5 82 c 1,23,24
 189.114 83.998 189.114 83.998 270.5 84 c 1,25,-1
 524.5 1184 l 2,26,27
 538.711 1239.07 538.711 1239.07 580.416 1244.6 c 0,28,29
 593.149 1245.99 593.149 1245.99 616.5 1246 c 0,30,31
 675.298 1246 675.298 1246 691.105 1224.45 c 0,32,33
 701.62 1208.35 701.62 1208.35 708.5 1182 c 2,34,-1
 962.5 84 l 1,35,36
 1043.6 83.875 1043.6 83.875 1056.5 82 c 1,37,38
 1081.54 69.334 1081.54 69.334 1082.5 42 c 1,0,1
778.5 426 m 1,39,-1
 624.5 1162 l 1,40,-1
 610.5 1162 l 1,41,-1
 454.5 426 l 1,42,-1
 778.5 426 l 1,39,-1
902.5 1370 m 1,43,44
 898.354 1328.22 898.354 1328.22 854.5 1326 c 0,45,46
 839.363 1326.61 839.363 1326.61 794.5 1340 c 2,47,-1
 616.5 1400 l 1,48,-1
 438.5 1340 l 2,49,50
 391.833 1326 391.833 1326 378.5 1326 c 0,51,52
 332.543 1328.98 332.543 1328.98 330.5 1370 c 1,53,54
 333.995 1396.83 333.995 1396.83 374.5 1414 c 1,55,-1
 592.5 1494 l 1,56,57
 619.673 1501.7 619.673 1501.7 644.5 1494 c 2,58,-1
 858.5 1414 l 1,59,60
 899.908 1395.92 899.908 1395.92 902.5 1370 c 1,43,44
EndSplineSet
EndChar

